<svg width="206" height="346" viewBox="0 0 206 346" fill="none" xmlns="http://www.w3.org/2000/svg">
<path d="M2.58984 203.41H-48.0938C-64.9221 203.41 -78.5039 216.993 -78.5039 233.82V315.59C-78.5039 332.417 -64.9221 346 -48.0938 346H33C49.8283 346 63.4102 332.417 63.4102 315.59V264.23L2.58984 203.41Z" fill="#FFF1CC"/>
<path d="M33 346C49.8283 346 63.4102 332.417 63.4102 315.59V264.23L2.58984 203.41V346H33Z" fill="#FFDCB3"/>
<path d="M53.2734 0H-48.0938C-64.9221 0 -78.5039 13.5825 -78.5039 30.4102V112.18C-78.5039 129.007 -64.9221 142.59 -48.0938 142.59H2.58984L83.6836 81.7695V30.4102C83.6836 13.5825 70.1017 0 53.2734 0Z" fill="#FFF1CC"/>
<path d="M53.2734 0H2.58984V142.59L83.6836 81.7695V30.4102C83.6836 13.5825 70.1017 0 53.2734 0Z" fill="#FFDCB3"/>
<path d="M154.641 81.7695H83.6836L2.58984 142.59V203.41L63.4102 264.23H154.641C171.469 264.23 185.051 250.648 185.051 233.82V112.18C185.051 95.3521 171.469 81.7695 154.641 81.7695Z" fill="#F28F8F"/>
<path d="M83.6836 81.7695V112.18C83.6836 129.007 70.1017 142.59 53.2734 142.59H2.58984V112.18C2.58984 95.3521 16.1717 81.7695 33 81.7695H83.6836Z" fill="#FF725E"/>
<path d="M63.4102 233.82V264.23H33C16.1717 264.23 2.58984 250.648 2.58984 233.82V203.41H33C49.8283 203.41 63.4102 216.993 63.4102 233.82Z" fill="#FF725E"/>
<path d="M195.863 346H155.316C149.714 346 145.18 341.466 145.18 335.863V295.316C145.18 289.714 149.714 285.18 155.316 285.18H195.863C201.466 285.18 206 289.714 206 295.316V335.863C206 341.466 201.466 346 195.863 346Z" fill="#FF725E"/>
<path d="M195.863 60.8203H155.316C149.714 60.8203 145.18 56.2865 145.18 50.6836V10.1367C145.18 4.53382 149.714 0 155.316 0H195.863C201.466 0 206 4.53382 206 10.1367V50.6836C206 56.2865 201.466 60.8203 195.863 60.8203Z" fill="#FF725E"/>
</svg>
