<svg width="234" height="247" viewBox="0 0 234 247" fill="none" xmlns="http://www.w3.org/2000/svg">
<g opacity="0.5">
<path opacity="0.5" d="M207.54 163C221.648 163 233.085 154.164 233.085 143.264C233.085 132.364 221.648 123.528 207.54 123.528C193.432 123.528 181.995 132.364 181.995 143.264C181.995 154.164 193.432 163 207.54 163Z" fill="#E0E0E0"/>
<path opacity="0.5" d="M44.4771 157.253L158.741 245.519L211.114 205.067L96.8211 116.777L44.4771 157.253Z" fill="#E0E0E0"/>
<path opacity="0.5" d="M24.1654 174.651L0.524997 156.39C0.371923 156.32 0.238965 156.189 0.144802 156.013C0.0506382 155.837 0 155.625 0 155.41C0 155.194 0.0506382 154.982 0.144802 154.806C0.238965 154.631 0.371923 154.499 0.524997 154.429L83.6825 90.188C84.0758 89.9214 84.5104 89.7825 84.9513 89.7825C85.3921 89.7825 85.8268 89.9214 86.22 90.188L109.866 108.457C110.019 108.528 110.152 108.659 110.247 108.835C110.341 109.011 110.391 109.221 110.391 109.437C110.391 109.654 110.341 109.865 110.247 110.041C110.152 110.216 110.019 110.348 109.866 110.418L26.7029 174.651C26.3097 174.918 25.875 175.057 25.4342 175.057C24.9933 175.057 24.5587 174.918 24.1654 174.651Z" fill="#E0E0E0"/>
</g>
<g opacity="0.5">
<path d="M33.7061 50.3316L96.3526 1.93677V13.5493L33.7061 61.9441V50.3316Z" fill="#455A64"/>
<path d="M36.2085 52.2682V56.1338L93.8503 11.6125V7.73901L36.2085 52.2682Z" fill="#263238"/>
<path d="M33.706 50.3315L31.1978 48.3948L93.8501 0L96.3525 1.93674L33.706 50.3315Z" fill="#37474F"/>
<path d="M31.1978 48.3945L33.706 50.3313V61.9439L31.1978 60.0071V48.3945Z" fill="#263238"/>
<path d="M214.139 201.35L158.999 243.911V242.021L214.133 199.459L214.139 201.35Z" fill="#37474F"/>
<path d="M106.38 84.9966L94.2312 94.4059L86.7652 100.162C86.525 100.326 86.2905 100.514 86.062 100.71C84.6051 101.901 83.4031 103.577 82.5724 105.573C81.7418 107.569 81.3107 109.818 81.321 112.103V158.796C81.3259 160.876 80.9639 162.928 80.2643 164.785C79.5647 166.642 78.5474 168.252 77.295 169.484C75.5584 171.236 73.4458 172.193 71.2706 172.212C69.5161 172.207 67.7937 171.582 66.2776 170.401C61.7075 166.868 57.9127 161.788 55.2742 155.671C52.6357 149.556 51.2465 142.618 51.246 135.556V87.1058C51.247 80.0403 49.8579 73.0989 47.2182 66.9795C44.5786 60.86 40.7814 55.7781 36.2085 52.2446L91.3597 9.67578C95.9317 13.2113 99.7284 18.2934 102.369 24.4123C105.009 30.5311 106.401 37.4715 106.403 44.537V65.6293C106.385 71.6668 106.38 84.9966 106.38 84.9966Z" fill="#F5F5F5"/>
<path d="M126.428 216.851C121.857 213.323 118.06 208.247 115.421 202.133C112.781 196.019 111.391 189.083 111.39 182.022V135.297C111.397 129.931 110.6 124.618 109.046 119.67C106.499 111.589 102.048 104.844 96.3702 100.46C94.8461 99.2842 93.1175 98.666 91.3583 98.6678C89.599 98.6695 87.8711 99.2911 86.3482 100.47C84.8254 101.647 83.5612 103.342 82.6828 105.381C81.8045 107.421 81.3429 109.734 81.3445 112.088V158.75C81.3447 161.104 80.8819 163.418 80.0025 165.458C79.1231 167.499 77.8581 169.193 76.3344 170.372C74.8108 171.55 73.0822 172.173 71.3221 172.175C69.562 172.178 67.8324 171.56 66.307 170.386C61.7368 166.853 57.942 161.773 55.3035 155.657C52.665 149.54 51.2758 142.602 51.2753 135.54V87.1063C51.2733 80.037 49.8798 73.093 47.2348 66.9731C44.5899 60.8534 40.7869 55.7737 36.2085 52.2451V54.1741C40.4206 57.6277 43.9008 62.4683 46.3169 68.2335C48.7329 73.9989 50.0043 80.4966 50.0095 87.1063V135.54C50.0193 142.89 51.4699 150.108 54.2166 156.473C56.9633 162.837 60.9099 168.127 65.6623 171.813C67.3695 173.151 69.3125 173.856 71.2911 173.856C73.2698 173.856 75.2127 173.151 76.9199 171.813C77.1368 171.648 77.3477 171.475 77.5587 171.288C79.1061 169.924 80.3748 168.066 81.2497 165.88C82.1247 163.695 82.5782 161.253 82.5693 158.774V112.08C82.5683 110.015 82.9737 107.986 83.7448 106.196C84.516 104.408 85.6256 102.922 86.962 101.889C88.2985 100.855 89.8148 100.312 91.3583 100.311C92.9018 100.311 94.4182 100.854 95.7549 101.887C100.134 105.277 103.77 110.147 106.3 116.01C108.83 121.872 110.165 128.52 110.171 135.29V182.014C110.18 189.363 111.631 196.579 114.377 202.944C117.124 209.308 121.071 214.596 125.824 218.279L159.011 243.903V241.998L126.428 216.851Z" fill="#455A64"/>
<path d="M214.133 199.46L158.999 241.998L126.428 216.828C121.857 213.299 118.06 208.223 115.421 202.109C112.781 195.996 111.391 189.059 111.39 181.999V135.297C111.397 129.931 110.6 124.617 109.046 119.67C108.557 118.129 107.999 116.629 107.376 115.177C104.736 109.063 100.94 103.988 96.3702 100.459C94.9225 99.3267 93.2839 98.7031 91.6074 98.6468C89.9308 98.5906 88.271 99.1034 86.7827 100.138L94.2487 94.3826L109.269 82.7779L141.418 57.9454L141.494 57.8827C143.013 56.6957 144.74 56.0701 146.499 56.0701C148.258 56.0701 149.985 56.6957 151.504 57.8827C156.075 61.4127 159.87 66.4908 162.509 72.6062C165.148 78.7216 166.536 85.6589 166.535 92.7203V139.438C166.536 146.499 167.925 153.436 170.564 159.553C173.202 165.67 176.997 170.749 181.567 174.282L214.133 199.46Z" fill="#FAFAFA"/>
<path d="M110.154 135.297C110.147 128.528 108.813 121.88 106.283 116.017C103.752 110.155 100.116 105.285 95.7373 101.894C94.4006 100.862 92.8842 100.319 91.3407 100.319C89.7972 100.319 88.2809 100.863 86.9444 101.896C85.608 102.929 84.4984 104.415 83.7272 106.204C82.9561 107.993 82.5507 110.023 82.5517 112.088V158.781C82.5622 161.251 82.1135 163.686 81.246 165.865C80.3785 168.046 79.1195 169.903 77.5821 171.272C77.3712 171.46 77.1602 171.632 76.9434 171.796L110.177 146.117L110.154 135.297Z" fill="#E0E0E0"/>
<path opacity="0.15" d="M110.154 135.297C110.147 128.528 108.813 121.88 106.283 116.017C103.752 110.155 100.116 105.285 95.7373 101.894C94.4006 100.862 92.8842 100.319 91.3407 100.319C89.7972 100.319 88.2809 100.863 86.9444 101.896C85.608 102.929 84.4984 104.415 83.7272 106.204C82.9561 107.993 82.5507 110.023 82.5517 112.088V158.781C82.5622 161.251 82.1135 163.686 81.246 165.865C80.3785 168.046 79.1195 169.903 77.5821 171.272C77.3712 171.46 77.1602 171.632 76.9434 171.796L110.177 146.117L110.154 135.297Z" fill="black"/>
<path d="M46.0011 52.4953C46.6635 53.1758 47.4599 53.5828 48.2927 53.6664C49.1255 53.75 49.9585 53.5064 50.6893 52.9658L90.0294 22.5818C91.5062 21.437 91.852 19.3042 90.6975 17.9713C89.543 16.6383 87.3337 16.6226 85.8569 17.7596L46.4933 48.1671C45.0166 49.304 44.8407 51.1702 46.0011 52.4953Z" fill="#F24E1E"/>
<path opacity="0.4" d="M77.7227 41.0007C77.6274 40.9989 77.5352 40.9557 77.4599 40.8776C77.3845 40.7996 77.3302 40.6908 77.3051 40.5679C77.28 40.4449 77.2854 40.3143 77.3206 40.1958C77.3557 40.0773 77.4187 39.9773 77.5 39.9109L95.8955 25.7029C95.9944 25.6286 96.1112 25.6092 96.2208 25.6487C96.3303 25.6883 96.4239 25.7837 96.4815 25.9147C96.5355 26.0474 96.5493 26.203 96.5198 26.3491C96.4903 26.4951 96.4199 26.6204 96.3233 26.6987L77.9395 40.9224C77.8736 40.9735 77.7989 41.0005 77.7227 41.0007Z" fill="black"/>
<path opacity="0.4" d="M79.141 44.1684C79.0641 44.1688 78.9884 44.1423 78.9216 44.0913C78.8547 44.0404 78.799 43.9669 78.7601 43.8782C78.7075 43.745 78.6945 43.59 78.7239 43.4446C78.7533 43.299 78.8227 43.1738 78.9183 43.0941L97.3138 28.8862C97.4129 28.8262 97.5252 28.8176 97.6288 28.862C97.7324 28.9064 97.8201 29.0006 97.8747 29.1265C97.9294 29.2523 97.9473 29.4009 97.9248 29.5433C97.9024 29.6858 97.8413 29.812 97.7533 29.8977L79.3578 44.0899C79.2923 44.1422 79.2173 44.1693 79.141 44.1684Z" fill="black"/>
<path opacity="0.4" d="M80.3305 47.4695C80.2358 47.4661 80.1444 47.4216 80.07 47.343C79.9956 47.2643 79.9423 47.1555 79.9179 47.0329C79.8935 46.9103 79.8994 46.7805 79.9347 46.6627C79.97 46.545 80.0328 46.4457 80.1137 46.3797L98.5092 32.1717C98.6081 32.0973 98.7249 32.0779 98.8345 32.1175C98.944 32.1571 99.0376 32.2526 99.0952 32.3835C99.1487 32.5171 99.1616 32.6734 99.131 32.8196C99.1004 32.9658 99.0288 33.0904 98.9311 33.1675L80.5415 47.3755C80.4784 47.4305 80.4057 47.4629 80.3305 47.4695Z" fill="black"/>
<path opacity="0.4" d="M81.2916 50.9035C81.2147 50.904 81.1391 50.8775 81.0722 50.8266C81.0054 50.7757 80.9497 50.7022 80.9107 50.6135C80.8581 50.4802 80.8452 50.3253 80.8745 50.1797C80.9039 50.0343 80.9734 49.909 81.0689 49.8294L99.4644 35.6214C99.5634 35.547 99.6801 35.5276 99.7897 35.5672C99.8993 35.6068 99.9929 35.7023 100.05 35.8332C100.104 35.966 100.118 36.1216 100.089 36.2676C100.059 36.4136 99.9889 36.5388 99.8922 36.6173L81.4967 50.8252C81.4346 50.8747 81.3639 50.9018 81.2916 50.9035Z" fill="black"/>
<path opacity="0.4" d="M81.9831 54.2674C81.9069 54.2681 81.832 54.2417 81.7661 54.1907C81.7001 54.1397 81.6456 54.066 81.608 53.9774C81.5524 53.845 81.5379 53.6887 81.5675 53.5422C81.5971 53.3955 81.6684 53.2703 81.7662 53.1933L100.15 38.9697C100.199 38.9318 100.253 38.9073 100.309 38.8974C100.365 38.8876 100.421 38.8927 100.476 38.9123C100.53 38.932 100.581 38.9659 100.626 39.0121C100.671 39.0583 100.708 39.1158 100.736 39.1814C100.792 39.3138 100.806 39.4701 100.777 39.6166C100.747 39.7632 100.676 39.8885 100.578 39.9655L82.1882 54.1734C82.1267 54.2272 82.0562 54.2595 81.9831 54.2674Z" fill="black"/>
<path opacity="0.4" d="M82.4637 57.8823C82.3665 57.8851 82.2713 57.8443 82.1935 57.7662C82.1158 57.688 82.0599 57.5772 82.0349 57.4514C82.0098 57.3256 82.0171 57.1923 82.0556 57.0728C82.094 56.9532 82.1614 56.8545 82.2468 56.7923L100.636 42.5844C100.736 42.5245 100.848 42.5158 100.951 42.5603C101.055 42.6046 101.143 42.6989 101.197 42.8247C101.252 42.9506 101.27 43.0991 101.248 43.2416C101.225 43.3841 101.164 43.5103 101.076 43.5959L82.6805 57.8038C82.6152 57.8569 82.54 57.884 82.4637 57.8823Z" fill="black"/>
<path opacity="0.4" d="M82.7217 61.7399C82.6245 61.7428 82.5294 61.7019 82.4516 61.6238C82.3738 61.5456 82.3179 61.4348 82.2929 61.3091C82.2679 61.1833 82.2752 61.05 82.3136 60.9304C82.3521 60.8109 82.4195 60.7122 82.5049 60.65L100.895 46.4421C100.994 46.3821 101.106 46.3735 101.21 46.4179C101.313 46.4622 101.401 46.5565 101.455 46.6824C101.51 46.8082 101.528 46.9567 101.506 47.0992C101.483 47.2417 101.422 47.3679 101.334 47.4536L82.9386 61.6536C82.8736 61.7087 82.7986 61.7385 82.7217 61.7399Z" fill="black"/>
<path opacity="0.4" d="M56.4966 89.2539C56.4418 89.253 56.3881 89.2329 56.3409 89.1958C56.2936 89.1587 56.2544 89.1058 56.227 89.0423C56.1868 88.9466 56.1766 88.8335 56.1986 88.7276C56.2205 88.6219 56.2729 88.532 56.3442 88.4777L100.97 53.9772C101.041 53.9229 101.125 53.908 101.204 53.9359C101.283 53.9638 101.351 54.0321 101.392 54.1262C101.413 54.1728 101.427 54.2247 101.433 54.2786C101.438 54.3324 101.436 54.3873 101.426 54.4399C101.415 54.4926 101.397 54.5419 101.372 54.5849C101.347 54.628 101.316 54.664 101.281 54.6907L56.6489 89.1912C56.6035 89.2306 56.5507 89.2524 56.4966 89.2539Z" fill="black"/>
<path opacity="0.4" d="M56.4966 92.9395C56.4418 92.9385 56.3881 92.9184 56.3409 92.8813C56.2936 92.8442 56.2544 92.7913 56.227 92.7279C56.1868 92.6321 56.1766 92.519 56.1986 92.4132C56.2205 92.3075 56.2729 92.2176 56.3442 92.1633L100.97 57.6627C101.042 57.6091 101.126 57.5954 101.205 57.6248C101.285 57.6542 101.352 57.7242 101.392 57.8196C101.413 57.8657 101.427 57.9169 101.432 57.9701C101.438 58.0235 101.436 58.0777 101.425 58.1297C101.415 58.1816 101.397 58.2303 101.372 58.2726C101.347 58.315 101.316 58.3503 101.281 58.3763L56.6489 92.8768C56.6025 92.9133 56.5503 92.9347 56.4966 92.9395Z" fill="black"/>
<path opacity="0.4" d="M56.4966 96.6248C56.4418 96.6238 56.3881 96.6038 56.3409 96.5666C56.2936 96.5295 56.2544 96.4766 56.227 96.4131C56.1868 96.3173 56.1766 96.2042 56.1986 96.0985C56.2205 95.9927 56.2729 95.9029 56.3442 95.8485L100.97 61.3481C101.042 61.2929 101.127 61.2781 101.206 61.3068C101.286 61.3354 101.354 61.4053 101.395 61.501C101.436 61.5966 101.447 61.7103 101.426 61.8169C101.405 61.9235 101.352 62.0144 101.281 62.0694L56.6489 96.57C56.602 96.6036 56.5498 96.6225 56.4966 96.6248Z" fill="black"/>
<path opacity="0.4" d="M56.4967 100.31C56.4419 100.309 56.3883 100.289 56.341 100.251C56.2938 100.215 56.2545 100.161 56.2271 100.098C56.2066 100.052 56.1933 100 56.1881 99.9461C56.1828 99.8927 56.1858 99.8384 56.1967 99.786C56.2077 99.7346 56.2264 99.6862 56.2518 99.6437C56.2772 99.6012 56.3086 99.5667 56.3443 99.542L100.97 65.0411C101.04 65.0001 101.119 64.995 101.191 65.0266C101.264 65.0582 101.325 65.1244 101.364 65.2125C101.402 65.3006 101.415 65.4046 101.4 65.5046C101.384 65.6046 101.342 65.6935 101.281 65.7545L56.6491 100.255C56.6032 100.293 56.5504 100.312 56.4967 100.31Z" fill="black"/>
<path opacity="0.4" d="M56.4968 83.8908C56.4227 83.9049 56.3474 83.882 56.2851 83.8264C56.2229 83.7709 56.178 83.6866 56.1592 83.5898C56.1404 83.4929 56.1489 83.3901 56.183 83.3011C56.2172 83.212 56.2746 83.1428 56.3444 83.1068L79.9672 64.8529C80.0023 64.8179 80.0425 64.7931 80.0852 64.7804C80.128 64.7675 80.1722 64.7669 80.2151 64.7786C80.258 64.7903 80.2986 64.814 80.3341 64.8481C80.3697 64.8822 80.3995 64.9261 80.4215 64.9767C80.4436 65.0273 80.4573 65.0836 80.462 65.1419C80.4666 65.2001 80.462 65.259 80.4484 65.3147C80.4349 65.3703 80.4127 65.4216 80.3833 65.4649C80.3539 65.5083 80.3179 65.5429 80.2778 65.5664L56.6491 83.8203C56.6046 83.8633 56.5516 83.8878 56.4968 83.8908Z" fill="black"/>
<path d="M55.8287 62.7279C57.7064 67.5976 58.8005 72.9398 59.0401 78.4099C59.0329 78.5266 59.0515 78.6437 59.0936 78.7462C59.1358 78.8489 59.1996 78.9327 59.2772 78.987C59.3547 79.0415 59.4425 79.0641 59.5296 79.052C59.6167 79.0401 59.6991 78.9939 59.7668 78.9196L61.0795 77.9081C61.2688 77.735 61.422 77.5002 61.5245 77.2257C61.6271 76.9513 61.6756 76.6464 61.6655 76.3399C61.5201 73.4943 61.1608 70.6757 60.5931 67.9265C60.0412 65.4413 59.3335 63.0229 58.4775 60.6971C58.4299 60.5785 58.3649 60.474 58.2863 60.39C58.2077 60.3059 58.1172 60.2442 58.0203 60.2082C57.9233 60.1723 57.8219 60.1631 57.7222 60.181C57.6225 60.199 57.5266 60.2439 57.4402 60.3128L56.1451 61.3086C55.9705 61.4509 55.8415 61.6748 55.783 61.9369C55.7246 62.199 55.7408 62.4809 55.8287 62.7279Z" fill="#F24E1E"/>
<path d="M59.7141 55.428C61.0338 58.2543 62.0962 61.2815 62.8787 64.4452C63.6641 67.6411 64.1387 70.959 64.291 74.3171C64.2818 74.433 64.2986 74.5499 64.3392 74.653C64.3798 74.7561 64.4423 74.8407 64.5189 74.8962C64.5955 74.9516 64.6827 74.9754 64.7694 74.9644C64.8561 74.9535 64.9385 74.9082 65.006 74.8346L66.3187 73.8152C66.5145 73.6477 66.6746 73.4152 66.7834 73.1405C66.8923 72.8657 66.9461 72.5579 66.9398 72.247C66.7595 68.913 66.2814 65.6198 65.5158 62.4379C64.7478 59.2892 63.6928 56.2792 62.3747 53.4756C62.2584 53.2437 62.0816 53.0782 61.8789 53.0115C61.6762 52.9448 61.4622 52.9816 61.2788 53.1149L59.972 54.0872C59.8863 54.1487 59.811 54.2333 59.751 54.3357C59.691 54.438 59.6475 54.556 59.6233 54.682C59.599 54.8079 59.5946 54.9393 59.6102 55.0678C59.6259 55.1961 59.6612 55.3188 59.7141 55.428Z" fill="#F24E1E"/>
<path d="M70.0986 58.8779L68.8093 59.8737C68.6266 60.0281 68.4858 60.2571 68.4077 60.5268C68.3296 60.7964 68.3184 61.0925 68.3756 61.3713C69.0148 64.267 69.4079 67.2496 69.5477 70.263C69.5398 70.3783 69.5576 70.4941 69.5987 70.5959C69.6398 70.6977 69.7024 70.781 69.7787 70.8355C69.8551 70.8898 69.9417 70.9129 70.0278 70.9018C70.1138 70.8906 70.1955 70.8458 70.2626 70.7727L71.5754 69.7612C71.7708 69.5932 71.9306 69.3606 72.0393 69.0859C72.1481 68.8113 72.2023 68.5038 72.1965 68.1931C72.0322 65.1878 71.6275 62.2147 70.9893 59.3249C70.965 59.2048 70.9197 59.0943 70.8571 59.0024C70.7945 58.9104 70.7165 58.8397 70.6295 58.796C70.5425 58.7523 70.449 58.737 70.3567 58.7512C70.2643 58.7655 70.1759 58.8089 70.0986 58.8779Z" fill="#F24E1E"/>
<path d="M75.3494 51.8681C75.3138 51.7443 75.2576 51.6329 75.1851 51.5423C75.1127 51.4517 75.0258 51.3842 74.931 51.345C74.8363 51.3057 74.7361 51.2957 74.6381 51.3157C74.54 51.3357 74.4466 51.3852 74.3649 51.4604L73.0639 52.4484C72.8836 52.5962 72.7475 52.8235 72.6791 53.0912C72.6106 53.3588 72.6141 53.65 72.6889 53.9147C72.9233 54.6987 73.146 55.4828 73.3687 56.3767C74.1547 59.5694 74.6275 62.8851 74.7751 66.2408C74.7677 66.3567 74.7858 66.473 74.8273 66.5755C74.8687 66.6779 74.9316 66.7617 75.0083 66.8168C75.085 66.8718 75.172 66.8956 75.2587 66.8852C75.3453 66.8748 75.4278 66.8306 75.4959 66.7582L76.8087 65.7468C77.0033 65.5775 77.1624 65.3447 77.2711 65.0704C77.3798 64.7959 77.4344 64.489 77.4298 64.1785C77.2475 60.8307 76.7654 57.5243 75.9941 54.3302C75.8124 53.4755 75.5897 52.6601 75.3494 51.8681Z" fill="#F24E1E"/>
<path opacity="0.4" d="M57.4052 76.8103C57.3758 76.7437 57.3281 76.695 57.2723 76.6745C57.2166 76.654 57.157 76.6634 57.1063 76.7005L56.5554 77.124C56.4324 76.1125 56.2917 75.1089 56.1218 74.1209L56.866 73.5485C56.9083 73.5041 56.9372 73.4405 56.9473 73.3698C56.9573 73.2992 56.9479 73.2259 56.9208 73.1637C56.8936 73.1016 56.8505 73.0547 56.7995 73.0317C56.7485 73.0088 56.693 73.0113 56.6433 73.0388L56.0104 73.5328C55.8229 72.537 55.6178 71.549 55.3775 70.5846L56.0866 70.0436C56.1371 70.0051 56.1741 69.9413 56.1895 69.8663C56.2049 69.7914 56.1974 69.7112 56.1686 69.6437C56.1399 69.5761 56.0923 69.5266 56.0362 69.5059C55.9802 69.4854 55.9203 69.4955 55.8698 69.5339L55.231 70.0279C54.9849 69.0869 54.727 68.1538 54.4281 67.2443C54.4303 67.2209 54.4303 67.1972 54.4281 67.1737L55.1314 66.6327C55.1566 66.6139 55.1788 66.5887 55.1966 66.5583C55.2145 66.5279 55.2276 66.4931 55.2352 66.4559C55.2429 66.4186 55.2449 66.3797 55.2411 66.3414C55.2374 66.3031 55.228 66.2662 55.2134 66.2328C55.184 66.1662 55.1364 66.1175 55.0806 66.0969C55.0248 66.0765 54.9653 66.0859 54.9145 66.123L54.2523 66.6327C53.9476 65.7153 53.6077 64.8057 53.2385 63.8962L53.9359 63.3551C53.9611 63.3365 53.9833 63.3111 54.0011 63.2807C54.019 63.2504 54.0321 63.2155 54.0397 63.1783C54.0474 63.141 54.0494 63.1021 54.0456 63.0639C54.0419 63.0255 54.0325 62.9887 54.0179 62.9553C53.9885 62.8886 53.9409 62.8399 53.8851 62.8194C53.8293 62.7989 53.7698 62.8083 53.7191 62.8455L53.0275 63.3865C52.6525 62.5083 52.254 61.638 51.8203 60.7755L52.6115 60.1717C52.6368 60.1531 52.6591 60.1277 52.6768 60.0971C52.6945 60.0666 52.7073 60.0314 52.7145 59.994C52.7216 59.9564 52.7229 59.9174 52.7183 59.8791C52.7137 59.8409 52.7032 59.8044 52.6876 59.7718C52.6736 59.7381 52.6547 59.7083 52.632 59.6845C52.6093 59.6606 52.5833 59.6431 52.5555 59.6328C52.5276 59.6227 52.4985 59.6199 52.4699 59.6249C52.4413 59.63 52.4137 59.6426 52.3888 59.6621L51.58 60.2972C51.1112 59.3954 50.6248 58.5016 50.0974 57.6155C50.0586 57.5647 50.0072 57.5344 49.9529 57.5307C49.8986 57.5269 49.8452 57.5498 49.8027 57.5952C49.7602 57.6405 49.7315 57.7051 49.7221 57.7767C49.7127 57.8483 49.7232 57.9221 49.7516 57.9841C50.2673 58.8388 50.7479 59.7091 51.1991 60.5872L50.449 61.1675C50.408 61.1993 50.3759 61.2483 50.3577 61.3068C50.3394 61.3654 50.336 61.4303 50.348 61.4917C50.36 61.5531 50.3866 61.6076 50.4239 61.6467C50.4612 61.6858 50.5071 61.7075 50.5545 61.7085C50.5908 61.7236 50.6296 61.7236 50.6658 61.7085L51.4453 61.1127C51.8731 61.9751 52.2774 62.8376 52.6466 63.7158L51.7734 64.3902C51.732 64.4224 51.6997 64.472 51.6816 64.5313C51.6634 64.5906 51.6605 64.6563 51.6732 64.7182C51.6859 64.7799 51.7136 64.8344 51.7519 64.8729C51.7901 64.9114 51.8369 64.932 51.8848 64.9312C51.919 64.9462 51.956 64.9462 51.9903 64.9312L52.8576 64.2647C53.2268 65.1742 53.5667 66.0917 53.8714 67.009L52.9689 67.707C52.9275 67.7391 52.8952 67.7887 52.8771 67.8481C52.8589 67.9074 52.856 67.973 52.8687 68.0349C52.8814 68.0966 52.9091 68.1511 52.9474 68.1896C52.9856 68.2282 53.0324 68.2487 53.0803 68.248C53.1176 68.2497 53.1544 68.236 53.1858 68.2088L54.0472 67.5423C54.3461 68.4675 54.6333 69.4241 54.8618 70.3886L53.9417 71.1021C53.9007 71.1339 53.8687 71.1829 53.8504 71.2414C53.8322 71.2999 53.8288 71.3648 53.8407 71.4263C53.8527 71.4877 53.8794 71.5421 53.9167 71.5812C53.954 71.6204 53.9998 71.6422 54.0472 71.6432C54.0835 71.6582 54.1223 71.6582 54.1586 71.6432L55.0083 70.9845C55.2486 71.9568 55.4537 72.9369 55.6354 73.9406L54.7212 74.6462C54.6959 74.665 54.6737 74.6903 54.6559 74.7207C54.6381 74.751 54.6249 74.7859 54.6173 74.823C54.6097 74.8603 54.6076 74.8992 54.6114 74.9376C54.6151 74.9759 54.6246 75.0127 54.6391 75.0461C54.658 75.09 54.6854 75.1263 54.7184 75.1511C54.7514 75.176 54.7888 75.1884 54.8266 75.1872C54.8629 75.2023 54.9017 75.2023 54.938 75.1872L55.7467 74.5678C55.9167 75.5557 56.0514 76.5673 56.1686 77.5788L55.1783 78.3628C55.1368 78.3951 55.1045 78.4447 55.0864 78.504C55.0683 78.5633 55.0653 78.629 55.078 78.6909C55.0908 78.7526 55.1184 78.8071 55.1567 78.8456C55.195 78.8841 55.2417 78.9047 55.2896 78.9039C55.3269 78.9057 55.3638 78.8919 55.3951 78.8647L56.239 78.2139C56.3679 79.4449 56.4558 80.6995 56.5085 81.9697C56.5115 82.0439 56.5357 82.1138 56.5761 82.1648C56.6164 82.2158 56.6698 82.2443 56.7254 82.2442C56.7539 82.2421 56.7818 82.2326 56.8075 82.2162C56.8333 82.1997 56.8563 82.1766 56.8754 82.1483C56.8944 82.1198 56.9091 82.0866 56.9186 82.0507C56.928 82.0146 56.9321 81.9765 56.9305 81.9383C56.8777 80.574 56.7781 79.2254 56.6375 77.9003L57.329 77.367C57.3781 77.3644 57.4252 77.3394 57.4623 77.2962C57.4994 77.253 57.5245 77.1942 57.5334 77.1294C57.5422 77.0647 57.5344 76.9978 57.5111 76.9398C57.4878 76.8818 57.4504 76.8362 57.4052 76.8103Z" fill="black"/>
<g opacity="0.15">
<path d="M59.6438 134.12C59.4574 131.914 59.3908 129.691 59.4445 127.471C59.6203 126.616 62.2809 114.393 67.1801 110.59C67.478 110.339 67.8047 110.156 68.1471 110.048C68.2775 110.006 68.4113 109.985 68.5456 109.986C69.8465 109.986 70.4267 112.401 70.9893 114.737C71.2014 115.695 71.4598 116.632 71.7629 117.544C72.0969 118.485 72.6653 119.732 73.7436 119.732C74.2188 119.706 74.681 119.517 75.0856 119.183C77.4298 117.387 78.1154 112.526 78.8362 107.383C79.1245 105.08 79.5159 102.801 80.0083 100.561C80.7232 97.5576 81.6492 95.6993 82.9384 94.7114C83.2657 94.4312 83.6407 94.2666 84.0284 94.233C85.3939 94.233 85.9096 97.4871 86.4077 100.632C86.6234 102.278 86.957 103.893 87.404 105.453C87.9021 106.967 88.576 107.704 89.4023 107.704C89.8883 107.671 90.3602 107.475 90.7736 107.132C93.6628 104.905 94.5359 101.118 95.3798 97.4636C96.1006 94.3272 96.7746 91.426 98.6792 89.944C99.1039 89.5802 99.5934 89.3745 100.097 89.3482C100.311 89.3472 100.523 89.395 100.724 89.4892C100.777 90.0723 100.806 90.6585 100.812 91.2456L100.847 98.6475C100.894 100.067 100.971 101.18 101.064 102.136L59.6438 134.12Z" fill="#F24E1E"/>
<path d="M101.404 102.333C101.281 101.228 101.211 99.9807 101.158 98.6245L101.129 91.2226C101.121 90.5405 101.081 89.8598 101.012 89.184C100.729 89.0002 100.418 88.9063 100.103 88.9095C99.5456 88.9345 99.0033 89.1593 98.5327 89.5603C94.2781 92.8692 95.9014 102.678 90.6213 106.755C90.2449 107.076 89.8127 107.259 89.3672 107.289C88.5761 107.289 88.0486 106.504 87.6501 105.281C86.4078 101.534 86.437 93.8259 83.9933 93.8259C83.5514 93.8545 83.1229 94.0384 82.7509 94.359C81.239 95.5273 80.3306 97.7621 79.6977 100.444C78.1213 107.046 78.2151 116.321 74.9333 118.823C74.5805 119.119 74.1773 119.292 73.7612 119.325C72.9818 119.325 72.4661 118.54 72.0559 117.372C71.0421 114.518 70.6846 109.57 68.5397 109.57C68.384 109.572 68.2288 109.596 68.0768 109.641C67.7043 109.762 67.3483 109.961 67.0219 110.229C61.8004 114.291 59.1281 127.409 59.1281 127.409C59.0696 129.874 59.1538 132.341 59.3801 134.787L59.9661 134.325C59.9204 134.032 59.8872 133.737 59.8665 133.438C59.7269 131.476 59.6779 129.504 59.72 127.534C59.9661 126.374 62.5857 114.62 67.3091 110.943C67.5806 110.716 67.8774 110.55 68.1881 110.449C68.2954 110.413 68.4056 110.394 68.5163 110.394C69.5887 110.394 70.1396 112.668 70.667 114.863C70.8814 115.839 71.1437 116.796 71.4523 117.725C71.6691 118.321 72.3138 120.148 73.7144 120.148C74.2443 120.126 74.7601 119.915 75.2087 119.536C77.6876 117.655 78.3792 112.699 79.1058 107.454C79.3962 105.169 79.7876 102.909 80.2779 100.687C80.9694 97.7934 81.8484 95.9821 83.0557 95.0725C83.3337 94.8259 83.6547 94.6801 83.9875 94.6492C85.1009 94.6492 85.6166 97.8718 86.0679 100.718C86.2856 102.391 86.6231 104.033 87.0758 105.618C87.6208 107.273 88.3885 108.12 89.3613 108.12C89.9168 108.093 90.4569 107.868 90.926 107.469C93.9206 105.156 94.8524 101.118 95.6729 97.5581C96.3761 94.5315 97.0325 91.6774 98.8374 90.2738C99.214 89.9469 99.6489 89.7602 100.097 89.7328C100.212 89.7313 100.326 89.7498 100.437 89.7877C100.502 90.6188 100.508 91.2148 100.508 91.2226V98.6637C100.554 99.9422 100.619 101.016 100.701 101.894C100.726 102.185 100.767 102.473 100.824 102.757L101.369 102.333" fill="black"/>
</g>
<g opacity="0.4">
<path d="M59.1281 123.668V127.409C59.0691 129.873 59.1533 132.34 59.3801 134.787L101.398 102.333C101.275 101.228 101.199 99.9807 101.152 98.6164L101.123 91.2223C101.123 91.2223 101.123 80.1586 95.8487 84.2203C90.3283 88.4857 91.8871 102.019 87.9725 105.046C84.0578 108.072 85.3471 96.0131 80.0962 100.075C74.8454 104.136 77.4708 113.162 72.22 117.215C66.9692 121.269 69.5946 100.812 64.3438 104.865C59.093 108.919 59.1281 119.003 59.1281 123.668Z" fill="#F24E1E"/>
</g>
<path opacity="0.4" d="M57.2117 140.496C57.1734 140.495 57.1359 140.481 57.1029 140.455C57.07 140.428 57.0428 140.391 57.0242 140.346C57.0096 140.313 57.0002 140.276 56.9965 140.238C56.9927 140.199 56.9947 140.161 57.0024 140.123C57.01 140.086 57.0231 140.051 57.041 140.02C57.0588 139.991 57.081 139.965 57.1062 139.946L101.797 105.705C101.847 105.668 101.905 105.659 101.96 105.679C102.015 105.7 102.062 105.749 102.09 105.815C102.105 105.847 102.114 105.884 102.119 105.921C102.123 105.96 102.121 105.999 102.114 106.036C102.107 106.073 102.095 106.108 102.077 106.139C102.06 106.169 102.038 106.195 102.014 106.214L57.3231 140.456C57.2889 140.481 57.2507 140.495 57.2117 140.496Z" fill="black"/>
<path d="M64.4025 106.841C64.3444 106.841 64.2886 106.811 64.247 106.757C64.2054 106.703 64.1813 106.629 64.1798 106.552V105.963C64.179 105.924 64.184 105.887 64.1946 105.851C64.2052 105.816 64.2212 105.783 64.2415 105.755C64.2618 105.729 64.286 105.707 64.3127 105.693C64.3394 105.678 64.3679 105.672 64.3966 105.673C64.4541 105.673 64.5093 105.704 64.5499 105.758C64.5906 105.813 64.6134 105.886 64.6134 105.963V106.552C64.612 106.626 64.5895 106.698 64.5504 106.751C64.5113 106.806 64.4585 106.837 64.4025 106.841Z" fill="white"/>
<path d="M64.4959 129.329C64.4417 129.328 64.3898 129.301 64.3499 129.251C64.3099 129.202 64.2848 129.136 64.2791 129.063C64.2791 128.687 64.2322 128.279 64.2146 127.934C64.213 127.896 64.2171 127.857 64.2265 127.822C64.236 127.786 64.2507 127.752 64.2697 127.724C64.2888 127.696 64.3118 127.672 64.3376 127.656C64.3633 127.64 64.3912 127.63 64.4197 127.628C64.4482 127.622 64.4773 127.625 64.505 127.636C64.5327 127.647 64.5582 127.665 64.58 127.691C64.6017 127.716 64.6191 127.747 64.6308 127.783C64.6426 127.818 64.6486 127.856 64.6483 127.895C64.6483 128.271 64.6893 128.64 64.7127 129.008C64.716 129.047 64.7135 129.085 64.7056 129.122C64.6976 129.158 64.6842 129.193 64.6662 129.223C64.6482 129.253 64.626 129.278 64.6008 129.296C64.5756 129.314 64.5479 129.325 64.5193 129.329H64.4959ZM64.3963 127.087C64.3382 127.087 64.2824 127.057 64.2408 127.003C64.1992 126.948 64.1751 126.875 64.1736 126.797C64.1736 126.476 64.1736 126.099 64.1736 125.668C64.1736 125.591 64.1964 125.518 64.2371 125.462C64.2778 125.408 64.3329 125.377 64.3904 125.377C64.5193 125.377 64.6072 125.503 64.6131 125.668C64.6131 126.092 64.6131 126.452 64.6131 126.789C64.6139 126.828 64.6089 126.866 64.5983 126.903C64.5878 126.938 64.5719 126.972 64.5517 127C64.5315 127.027 64.5073 127.049 64.4806 127.064C64.4539 127.08 64.4253 127.087 64.3963 127.087ZM64.3963 124.837C64.3392 124.835 64.2849 124.803 64.2446 124.75C64.2042 124.696 64.1809 124.622 64.1794 124.546V123.417C64.1809 123.341 64.2042 123.269 64.2446 123.215C64.2849 123.16 64.3392 123.13 64.3963 123.128C64.4533 123.13 64.5076 123.16 64.548 123.215C64.5883 123.269 64.6116 123.341 64.6131 123.417V124.546C64.6116 124.624 64.5874 124.699 64.5458 124.752C64.5042 124.806 64.4485 124.837 64.3904 124.837H64.3963ZM64.3963 122.586C64.3388 122.586 64.2836 122.556 64.2429 122.501C64.2023 122.447 64.1794 122.373 64.1794 122.297V121.167C64.181 121.089 64.2051 121.015 64.2467 120.962C64.2883 120.908 64.3441 120.877 64.4021 120.877C64.4592 120.879 64.5135 120.911 64.5538 120.964C64.5942 121.018 64.6175 121.09 64.619 121.167V122.297C64.619 122.373 64.5961 122.447 64.5555 122.501C64.5148 122.556 64.4596 122.586 64.4021 122.586H64.3963ZM64.3963 120.335C64.3392 120.334 64.2849 120.303 64.2446 120.249C64.2042 120.195 64.1809 120.122 64.1794 120.046V118.893C64.188 118.824 64.2148 118.76 64.255 118.714C64.2953 118.669 64.3464 118.643 64.3992 118.643C64.452 118.643 64.5031 118.669 64.5434 118.714C64.5836 118.76 64.6104 118.824 64.619 118.893V120.022C64.621 120.066 64.6157 120.11 64.6035 120.151C64.5913 120.192 64.5725 120.229 64.5484 120.258C64.5243 120.289 64.4955 120.311 64.4641 120.325C64.4328 120.337 64.3996 120.341 64.367 120.335H64.3963ZM64.3963 118.086C64.3388 118.086 64.2836 118.055 64.2429 118.001C64.2023 117.947 64.1794 117.872 64.1794 117.795V116.674C64.1794 116.597 64.2023 116.524 64.2429 116.469C64.2836 116.415 64.3388 116.384 64.3963 116.384C64.4538 116.384 64.5089 116.415 64.5496 116.469C64.5903 116.524 64.6131 116.597 64.6131 116.674V117.795C64.6161 117.839 64.6116 117.883 64.6001 117.924C64.5887 117.964 64.5704 118.002 64.5467 118.031C64.523 118.062 64.4946 118.085 64.4635 118.098C64.4323 118.112 64.3993 118.115 64.367 118.11L64.3963 118.086ZM64.3963 115.835C64.3676 115.836 64.339 115.829 64.3123 115.815C64.2857 115.802 64.2614 115.78 64.2412 115.752C64.2209 115.725 64.2049 115.693 64.1943 115.657C64.1837 115.622 64.1786 115.583 64.1794 115.545V114.424C64.1794 114.347 64.2023 114.273 64.2429 114.219C64.2836 114.164 64.3388 114.134 64.3963 114.134C64.4538 114.134 64.5089 114.164 64.5496 114.219C64.5903 114.273 64.6131 114.347 64.6131 114.424V115.545C64.6144 115.587 64.6087 115.629 64.5964 115.668C64.584 115.707 64.5654 115.741 64.5418 115.769C64.5182 115.797 64.4902 115.817 64.46 115.828C64.4298 115.84 64.398 115.842 64.367 115.835H64.3963ZM64.3963 113.584C64.3676 113.585 64.339 113.58 64.3123 113.565C64.2857 113.551 64.2614 113.529 64.2412 113.502C64.2209 113.475 64.2049 113.442 64.1943 113.407C64.1837 113.371 64.1786 113.334 64.1794 113.295V112.174C64.1794 112.096 64.2021 112.021 64.2426 111.965C64.2831 111.91 64.3382 111.877 64.3963 111.875C64.4253 111.875 64.4539 111.883 64.4806 111.898C64.5073 111.914 64.5315 111.936 64.5517 111.963C64.5719 111.991 64.5878 112.023 64.5983 112.06C64.6089 112.097 64.6139 112.135 64.6131 112.174V113.295C64.6144 113.337 64.6087 113.379 64.5964 113.418C64.584 113.456 64.5654 113.491 64.5418 113.518C64.5182 113.546 64.4902 113.567 64.46 113.578C64.4298 113.589 64.398 113.591 64.367 113.584H64.3963ZM64.3963 111.343C64.3382 111.34 64.2831 111.308 64.2426 111.252C64.2021 111.196 64.1794 111.122 64.1794 111.044V109.923C64.188 109.854 64.2148 109.79 64.255 109.744C64.2953 109.699 64.3464 109.673 64.3992 109.673C64.452 109.673 64.5031 109.699 64.5434 109.744C64.5836 109.79 64.6104 109.854 64.619 109.923V111.052C64.6175 111.094 64.6098 111.134 64.5961 111.172C64.5825 111.209 64.5633 111.243 64.5397 111.27C64.5161 111.297 64.4886 111.317 64.4589 111.33C64.4292 111.343 64.3979 111.347 64.367 111.343H64.3963ZM64.3963 109.092C64.3392 109.09 64.2849 109.058 64.2446 109.005C64.2042 108.951 64.1809 108.878 64.1794 108.802V107.68C64.1794 107.601 64.2029 107.526 64.2447 107.47C64.2864 107.414 64.3431 107.383 64.4021 107.383C64.4596 107.383 64.5148 107.413 64.5555 107.468C64.5961 107.522 64.619 107.596 64.619 107.672V108.802C64.6184 108.844 64.6112 108.886 64.5979 108.923C64.5845 108.962 64.5654 108.995 64.5416 109.023C64.5178 109.05 64.4899 109.07 64.4598 109.082C64.4297 109.094 64.3981 109.097 64.367 109.092H64.3963Z" fill="white"/>
<path d="M64.6368 131.024C64.5844 131.023 64.5339 130.997 64.4942 130.951C64.4545 130.905 64.4282 130.842 64.42 130.773L64.3672 130.184C64.3642 130.146 64.3667 130.108 64.3748 130.071C64.3828 130.034 64.3962 130 64.4142 129.969C64.4321 129.94 64.4543 129.915 64.4794 129.896C64.5046 129.879 64.5321 129.867 64.5606 129.863C64.5891 129.859 64.6179 129.862 64.6454 129.873C64.6729 129.883 64.6985 129.901 64.7208 129.926C64.7431 129.95 64.7617 129.979 64.7754 130.013C64.7892 130.047 64.7978 130.083 64.8009 130.122L64.8536 130.694C64.8578 130.732 64.8561 130.771 64.8489 130.808C64.8417 130.846 64.829 130.88 64.8115 130.911C64.794 130.942 64.7722 130.967 64.7472 130.987C64.7223 131.006 64.6947 131.019 64.6661 131.024H64.6368Z" fill="white"/>
<path d="M95.8838 85.0987C95.8248 85.0987 95.7681 85.0674 95.7264 85.0115C95.6846 84.9556 95.6611 84.8798 95.6611 84.8008V84.2206C95.6611 84.1415 95.6846 84.0658 95.7264 84.0098C95.7681 83.954 95.8248 83.9226 95.8838 83.9226C95.9419 83.9247 95.997 83.957 96.0375 84.0126C96.078 84.0682 96.1007 84.1428 96.1007 84.2206V84.8008C96.1007 84.8785 96.078 84.9531 96.0375 85.0087C95.997 85.0644 95.9419 85.0967 95.8838 85.0987Z" fill="white"/>
<path d="M96.0069 107.586C95.9527 107.585 95.9008 107.558 95.8608 107.508C95.8209 107.459 95.7957 107.393 95.7901 107.321C95.7608 106.944 95.7432 106.536 95.7256 106.191C95.7224 106.113 95.742 106.037 95.7803 105.978C95.8187 105.92 95.8727 105.883 95.9307 105.877C95.9594 105.874 95.9882 105.879 96.0155 105.891C96.0427 105.904 96.0679 105.923 96.0893 105.948C96.1107 105.974 96.1279 106.006 96.1399 106.04C96.152 106.076 96.1586 106.113 96.1593 106.152C96.1593 106.528 96.2003 106.897 96.2237 107.265C96.2269 107.304 96.2243 107.343 96.216 107.381C96.2076 107.418 96.1937 107.453 96.1751 107.483C96.1565 107.512 96.1336 107.537 96.1077 107.556C96.0818 107.573 96.0535 107.583 96.0245 107.586H96.0069ZM95.9073 105.345C95.8492 105.345 95.7934 105.314 95.7518 105.26C95.7102 105.205 95.6861 105.132 95.6846 105.054C95.6846 104.733 95.6846 104.357 95.6846 103.925C95.6846 103.848 95.7074 103.775 95.7481 103.72C95.7887 103.666 95.8439 103.635 95.9014 103.635C95.9589 103.635 96.0141 103.666 96.0547 103.72C96.0954 103.775 96.1182 103.848 96.1182 103.925C96.1182 104.349 96.1182 104.709 96.1182 105.046C96.119 105.085 96.114 105.123 96.1034 105.16C96.0929 105.195 96.077 105.229 96.0568 105.257C96.0366 105.284 96.0124 105.306 95.9858 105.322C95.9591 105.337 95.9304 105.345 95.9014 105.345H95.9073ZM95.9073 103.094C95.8788 103.094 95.8506 103.086 95.8243 103.072C95.798 103.057 95.7741 103.036 95.7539 103.009C95.7338 102.982 95.7178 102.95 95.7069 102.915C95.696 102.88 95.6904 102.842 95.6904 102.803V101.644C95.6904 101.566 95.7133 101.492 95.7539 101.438C95.7946 101.384 95.8498 101.353 95.9073 101.353C95.9653 101.353 96.0211 101.384 96.0627 101.438C96.1043 101.491 96.1284 101.565 96.13 101.644V102.765C96.1307 102.803 96.1257 102.842 96.1152 102.878C96.1046 102.914 96.0888 102.947 96.0686 102.974C96.0483 103.003 96.0242 103.025 95.9975 103.04C95.9708 103.054 95.9421 103.062 95.9131 103.062L95.9073 103.094ZM95.9073 100.843C95.8492 100.843 95.7934 100.814 95.7518 100.759C95.7102 100.705 95.6861 100.631 95.6846 100.554V99.4245C95.6861 99.3484 95.7094 99.2753 95.7497 99.2209C95.7901 99.1676 95.8444 99.136 95.9014 99.134C95.9595 99.134 96.0152 99.1646 96.0568 99.219C96.0984 99.2733 96.1226 99.3464 96.1241 99.4245V100.554C96.1226 100.63 96.0993 100.702 96.0589 100.756C96.0186 100.811 95.9643 100.841 95.9073 100.843ZM95.9073 98.5932C95.8502 98.5912 95.7959 98.56 95.7556 98.506C95.7152 98.452 95.6919 98.3794 95.6904 98.303V97.1739C95.6904 97.0969 95.7133 97.0231 95.7539 96.9688C95.7946 96.9144 95.8498 96.8838 95.9073 96.8838C95.9648 96.8838 96.0199 96.9144 96.0606 96.9688C96.1013 97.0231 96.1241 97.0969 96.1241 97.1739V98.303C96.1244 98.3447 96.118 98.3859 96.1053 98.4239C96.0926 98.462 96.0739 98.4958 96.0506 98.5234C96.0272 98.5509 95.9997 98.5713 95.97 98.5834C95.9402 98.5954 95.9088 98.5988 95.878 98.5932H95.9073ZM95.9073 96.3428C95.8492 96.3428 95.7934 96.3125 95.7518 96.2583C95.7102 96.2041 95.6861 96.1303 95.6846 96.0526V94.9235C95.6931 94.8538 95.7199 94.7904 95.7602 94.7446C95.8004 94.6989 95.8515 94.6738 95.9043 94.6738C95.9572 94.6738 96.0083 94.6989 96.0485 94.7446C96.0888 94.7904 96.1156 94.8538 96.1241 94.9235V96.0526C96.1235 96.0939 96.1164 96.1345 96.1034 96.172C96.0904 96.2094 96.0718 96.2428 96.0486 96.2701C96.0255 96.2973 95.9984 96.3179 95.969 96.3303C95.9396 96.3429 95.9086 96.3471 95.878 96.3428H95.9073ZM95.9073 94.0924C95.8783 94.0934 95.8495 94.0867 95.8225 94.0726C95.7955 94.0584 95.7709 94.0373 95.7501 94.0102C95.7294 93.9832 95.7129 93.9508 95.7016 93.9152C95.6904 93.8794 95.6846 93.8411 95.6846 93.8023V92.681C95.6794 92.6384 95.6811 92.5947 95.6898 92.5531C95.6984 92.5114 95.7137 92.4729 95.7346 92.4399C95.7555 92.407 95.7815 92.3805 95.8108 92.3624C95.8401 92.3443 95.872 92.3349 95.9043 92.3349C95.9366 92.3349 95.9685 92.3443 95.9978 92.3624C96.0271 92.3805 96.0531 92.407 96.0741 92.4399C96.095 92.4729 96.1103 92.5114 96.1189 92.5531C96.1275 92.5947 96.1293 92.6384 96.1241 92.681V93.8023C96.1244 93.8439 96.118 93.8852 96.1053 93.9232C96.0926 93.9612 96.0739 93.9951 96.0506 94.0227C96.0272 94.0501 95.9997 94.0706 95.97 94.0827C95.9402 94.0947 95.9088 94.0981 95.878 94.0924H95.9073ZM95.9073 91.8421C95.8783 91.843 95.8495 91.8363 95.8225 91.8222C95.7955 91.8081 95.7709 91.7869 95.7501 91.7599C95.7294 91.7328 95.7129 91.7005 95.7016 91.6648C95.6904 91.629 95.6846 91.5907 95.6846 91.5519V90.4306C95.6838 90.3919 95.6888 90.3533 95.6994 90.3172C95.7099 90.2811 95.7258 90.2482 95.746 90.2205C95.7662 90.1926 95.7904 90.1706 95.817 90.1554C95.8437 90.1404 95.8724 90.1326 95.9014 90.1327C95.9594 90.1347 96.0146 90.167 96.0551 90.2227C96.0956 90.2784 96.1182 90.3529 96.1182 90.4306V91.5519C96.1184 91.5928 96.1121 91.6333 96.0998 91.6706C96.0875 91.7081 96.0694 91.7416 96.0467 91.7689C96.024 91.7964 95.9972 91.8171 95.9682 91.8296C95.9391 91.8423 95.9083 91.8464 95.878 91.8421H95.9073ZM95.9073 89.5995C95.8783 89.5995 95.8496 89.5917 95.8229 89.5767C95.7962 89.5616 95.772 89.5395 95.7518 89.5118C95.7316 89.484 95.7158 89.4511 95.7052 89.4149C95.6947 89.3789 95.6896 89.3402 95.6904 89.3015V88.1802C95.6904 88.1033 95.7133 88.0296 95.7539 87.9751C95.7946 87.9207 95.8498 87.8902 95.9073 87.8902C95.9648 87.8902 96.0199 87.9207 96.0606 87.9751C96.1013 88.0296 96.1241 88.1033 96.1241 88.1802V89.3015C96.1243 89.3434 96.1178 89.3849 96.1052 89.4232C96.0926 89.4617 96.074 89.496 96.0508 89.5241C96.0276 89.5523 96.0002 89.5735 95.9704 89.5865C95.9406 89.5995 95.9091 89.6039 95.878 89.5995H95.9073ZM95.9073 87.3491C95.8492 87.3471 95.7941 87.3147 95.7536 87.2591C95.7131 87.2035 95.6904 87.1288 95.6904 87.0511V85.9613C95.699 85.8915 95.7258 85.8281 95.766 85.7824C95.8063 85.7366 95.8574 85.7114 95.9102 85.7114C95.963 85.7114 96.0141 85.7366 96.0544 85.7824C96.0946 85.8281 96.1214 85.8915 96.13 85.9613V87.0904C96.1263 87.1296 96.1169 87.1675 96.1023 87.2019C96.0876 87.2362 96.068 87.2663 96.0445 87.2904C96.021 87.3146 95.9942 87.3321 95.9656 87.3422C95.937 87.3523 95.9072 87.3546 95.878 87.3491H95.9073Z" fill="white"/>
<path d="M96.1475 109.28C96.0951 109.28 96.0446 109.254 96.0049 109.208C95.9652 109.162 95.9389 109.099 95.9307 109.03L95.8779 108.441C95.8738 108.403 95.8755 108.365 95.8828 108.328C95.8901 108.292 95.9029 108.257 95.9204 108.226C95.9379 108.197 95.9598 108.172 95.9847 108.153C96.0097 108.135 96.0371 108.124 96.0655 108.12C96.094 108.114 96.123 108.117 96.1509 108.126C96.1788 108.136 96.2049 108.152 96.2279 108.176C96.2508 108.2 96.27 108.228 96.2844 108.262C96.2987 108.296 96.308 108.332 96.3116 108.371L96.3643 108.951C96.3684 108.989 96.3669 109.028 96.3596 109.065C96.3524 109.103 96.3397 109.137 96.3222 109.168C96.3047 109.199 96.2829 109.224 96.2579 109.244C96.233 109.263 96.2054 109.276 96.1768 109.28H96.1475Z" fill="white"/>
<path d="M80.1255 101.964C80.0675 101.964 80.0117 101.934 79.9701 101.88C79.9285 101.826 79.9044 101.752 79.9028 101.674V101.086C79.9114 101.017 79.9382 100.953 79.9784 100.907C80.0187 100.862 80.0698 100.836 80.1226 100.836C80.1754 100.836 80.2265 100.862 80.2668 100.907C80.307 100.953 80.3338 101.017 80.3424 101.086V101.643C80.3448 101.683 80.341 101.724 80.3312 101.762C80.3215 101.8 80.306 101.836 80.2857 101.867C80.2654 101.896 80.2407 101.92 80.2132 101.938C80.1856 101.955 80.1558 101.963 80.1255 101.964Z" fill="white"/>
<path d="M80.225 117.325C80.1704 117.325 80.1178 117.297 80.0776 117.248C80.0374 117.199 80.0126 117.131 80.0082 117.058C80.0082 116.698 79.9613 116.329 79.9437 115.961C79.9405 115.882 79.9601 115.806 79.9984 115.748C80.0368 115.689 80.0908 115.653 80.1488 115.646C80.1779 115.642 80.2074 115.646 80.2354 115.658C80.2633 115.67 80.2892 115.689 80.3112 115.715C80.3333 115.741 80.3511 115.773 80.3635 115.808C80.3758 115.844 80.3826 115.882 80.3832 115.921C80.3832 116.282 80.4184 116.642 80.4418 117.003C80.4451 117.041 80.4426 117.08 80.4346 117.117C80.4267 117.154 80.4133 117.189 80.3953 117.218C80.3773 117.248 80.3551 117.273 80.3298 117.291C80.3046 117.309 80.277 117.321 80.2484 117.325H80.225ZM80.1254 115.138C80.0673 115.138 80.0115 115.107 79.9699 115.053C79.9283 114.998 79.9042 114.925 79.9027 114.847V113.749C79.9019 113.711 79.9069 113.672 79.9175 113.636C79.928 113.6 79.9439 113.567 79.9641 113.539C79.9843 113.511 80.0084 113.49 80.0351 113.474C80.0618 113.459 80.0905 113.451 80.1195 113.451C80.1765 113.453 80.2308 113.485 80.2712 113.539C80.3115 113.592 80.3348 113.665 80.3363 113.741V114.839C80.3364 114.917 80.3137 114.991 80.2732 115.048C80.2327 115.103 80.1775 115.136 80.1195 115.138H80.1254ZM80.1254 112.941C80.0967 112.943 80.0681 112.936 80.0414 112.921C80.0148 112.908 79.9905 112.886 79.9702 112.859C79.9499 112.832 79.934 112.8 79.9234 112.763C79.9128 112.728 79.9077 112.69 79.9085 112.652V111.554C79.9085 111.476 79.9312 111.402 79.9717 111.346C80.0122 111.29 80.0673 111.258 80.1254 111.256C80.1543 111.256 80.183 111.264 80.2097 111.278C80.2364 111.294 80.2606 111.316 80.2808 111.344C80.301 111.371 80.3169 111.404 80.3274 111.44C80.3379 111.476 80.343 111.516 80.3422 111.554V112.62C80.3422 112.697 80.3193 112.771 80.2787 112.826C80.238 112.88 80.1829 112.911 80.1254 112.911V112.941ZM80.1254 110.746C80.0673 110.746 80.0115 110.716 79.9699 110.662C79.9283 110.608 79.9042 110.533 79.9027 110.456V109.359C79.9027 109.282 79.9255 109.208 79.9662 109.153C80.0068 109.099 80.062 109.068 80.1195 109.068C80.1485 109.067 80.1773 109.074 80.2043 109.088C80.2313 109.102 80.2559 109.124 80.2766 109.15C80.2974 109.177 80.3139 109.21 80.3251 109.245C80.3364 109.282 80.3422 109.319 80.3422 109.359V110.456C80.3407 110.532 80.3174 110.605 80.277 110.659C80.2367 110.713 80.1824 110.744 80.1254 110.746ZM80.1254 108.551C80.0679 108.551 80.0127 108.52 79.972 108.466C79.9314 108.411 79.9085 108.337 79.9085 108.261V107.132C79.9171 107.062 79.9439 106.998 79.9841 106.953C80.0244 106.907 80.0755 106.882 80.1283 106.882C80.1811 106.882 80.2322 106.907 80.2725 106.953C80.3127 106.998 80.3395 107.062 80.3481 107.132V108.229C80.3506 108.271 80.3465 108.312 80.336 108.351C80.3255 108.39 80.3089 108.426 80.2872 108.456C80.2655 108.485 80.2394 108.509 80.2104 108.524C80.1815 108.539 80.1505 108.546 80.1195 108.543L80.1254 108.551ZM80.1254 106.363C80.0673 106.361 80.0122 106.329 79.9717 106.273C79.9312 106.218 79.9085 106.143 79.9085 106.065V104.967C79.9171 104.898 79.9439 104.835 79.9841 104.788C80.0244 104.743 80.0755 104.717 80.1283 104.717C80.1811 104.717 80.2322 104.743 80.2725 104.788C80.3127 104.835 80.3395 104.898 80.3481 104.967V106.065C80.345 106.143 80.3194 106.216 80.2767 106.268C80.234 106.322 80.1776 106.349 80.1195 106.347L80.1254 106.363ZM80.1254 104.168C80.0673 104.166 80.0122 104.133 79.9717 104.078C79.9312 104.022 79.9085 103.947 79.9085 103.869V102.78C79.9033 102.737 79.9051 102.694 79.9137 102.652C79.9224 102.61 79.9377 102.571 79.9586 102.539C79.9795 102.506 80.0055 102.479 80.0348 102.462C80.0641 102.443 80.096 102.434 80.1283 102.434C80.1606 102.434 80.1925 102.443 80.2218 102.462C80.2511 102.479 80.2771 102.506 80.298 102.539C80.3189 102.571 80.3342 102.61 80.3429 102.652C80.3515 102.694 80.3533 102.737 80.3481 102.78V103.877C80.3451 103.953 80.3203 104.026 80.2788 104.078C80.2374 104.13 80.1824 104.16 80.1254 104.16V104.168Z" fill="white"/>
<path d="M80.3891 118.988C80.3367 118.987 80.2862 118.961 80.2465 118.915C80.2069 118.869 80.1806 118.806 80.1723 118.737L80.1196 118.148C80.1155 118.11 80.1173 118.071 80.1249 118.033C80.1326 117.997 80.1459 117.961 80.1641 117.932C80.1822 117.901 80.2048 117.876 80.2304 117.859C80.256 117.841 80.2841 117.83 80.3129 117.827C80.3696 117.818 80.4266 117.84 80.4716 117.886C80.5166 117.934 80.5459 118.002 80.5532 118.078L80.606 118.658C80.6101 118.696 80.6085 118.735 80.6012 118.772C80.594 118.81 80.5813 118.845 80.5638 118.875C80.5464 118.906 80.5245 118.931 80.4996 118.951C80.4746 118.97 80.447 118.983 80.4184 118.988H80.3891Z" fill="white"/>
<path opacity="0.4" d="M64.3673 103.713C64.7834 103.391 65.1233 103.604 65.1233 104.191C65.1012 104.525 65.0215 104.848 64.8903 105.134C64.7591 105.42 64.5801 105.661 64.3673 105.838C63.9512 106.16 63.6113 105.94 63.6113 105.359C63.632 105.025 63.7112 104.702 63.8425 104.416C63.9739 104.13 64.1536 103.889 64.3673 103.713Z" fill="black"/>
<path opacity="0.4" d="M80.1256 98.8356C80.5417 98.5144 80.8816 98.7261 80.8816 99.3138C80.86 99.6477 80.7804 99.9688 80.6491 100.253C80.5178 100.538 80.3385 100.778 80.1256 100.953C79.7095 101.282 79.3696 101.063 79.3696 100.483C79.3903 100.148 79.4695 99.8246 79.6008 99.539C79.7322 99.2525 79.9119 99.0115 80.1256 98.8356Z" fill="black"/>
<path opacity="0.4" d="M95.8781 83.1535C96.2941 82.832 96.634 83.0516 96.634 83.6318C96.6133 83.9664 96.5341 84.2897 96.4028 84.5758C96.2715 84.8618 96.0917 85.1026 95.8781 85.2784C95.4561 85.5999 95.1221 85.3882 95.1221 84.8001C95.1423 84.4654 95.2213 84.1418 95.3527 83.8557C95.484 83.5696 95.6641 83.329 95.8781 83.1535Z" fill="black"/>
<path opacity="0.4" d="M57.5048 110.519C57.53 110.5 57.5522 110.475 57.57 110.445C57.5879 110.414 57.601 110.379 57.6086 110.342C57.6163 110.304 57.6183 110.266 57.6145 110.227C57.6108 110.19 57.6014 110.152 57.5868 110.119C57.5723 110.086 57.553 110.057 57.5301 110.034C57.5072 110.011 57.4811 109.994 57.4533 109.984C57.4255 109.975 57.3965 109.973 57.3682 109.978C57.3398 109.984 57.3125 109.997 57.2879 110.017L56.7019 110.457V107.437L57.493 106.826C57.5183 106.807 57.5405 106.782 57.5583 106.752C57.5761 106.721 57.5893 106.686 57.5969 106.649C57.6045 106.611 57.6066 106.573 57.6028 106.534C57.5991 106.497 57.5896 106.459 57.5751 106.425C57.5457 106.359 57.498 106.311 57.4423 106.29C57.3865 106.269 57.3269 106.279 57.2762 106.316L56.6902 106.763V103.58C56.6887 103.503 56.6654 103.431 56.625 103.376C56.5847 103.323 56.5304 103.292 56.4733 103.29C56.4158 103.29 56.3607 103.32 56.32 103.375C56.2794 103.429 56.2565 103.503 56.2565 103.58V107.132L55.4595 107.743C55.4348 107.762 55.4131 107.788 55.3959 107.82C55.3786 107.85 55.3661 107.885 55.359 107.922C55.3519 107.959 55.3504 107.997 55.3546 108.036C55.3588 108.073 55.3685 108.11 55.3833 108.143C55.4023 108.187 55.4296 108.224 55.4626 108.248C55.4956 108.273 55.533 108.285 55.5709 108.284C55.61 108.286 55.6488 108.272 55.6822 108.245L56.2682 107.806V110.825L55.4712 111.437C55.4298 111.468 55.3975 111.518 55.3794 111.578C55.3612 111.637 55.3583 111.702 55.371 111.765C55.3837 111.826 55.4114 111.88 55.4497 111.919C55.4879 111.957 55.5347 111.978 55.5826 111.977C55.6218 111.979 55.6605 111.965 55.6939 111.939L56.28 111.499V114.518L55.483 115.13C55.4576 115.149 55.4354 115.173 55.4176 115.204C55.3999 115.234 55.3871 115.27 55.3799 115.308C55.3728 115.345 55.3715 115.384 55.3761 115.422C55.3807 115.46 55.3912 115.496 55.4068 115.529C55.4249 115.574 55.452 115.613 55.485 115.639C55.5181 115.665 55.5559 115.679 55.5943 115.678C55.6314 115.677 55.6677 115.664 55.6998 115.64L56.2858 115.192V118.211L55.4888 118.823C55.4636 118.842 55.4414 118.866 55.4236 118.897C55.4057 118.928 55.3926 118.962 55.385 119C55.3773 119.036 55.3753 119.076 55.3791 119.114C55.3828 119.152 55.3922 119.189 55.4068 119.222C55.4268 119.267 55.4551 119.305 55.489 119.331C55.5228 119.356 55.5611 119.371 55.6002 119.371C55.6373 119.37 55.6736 119.357 55.7057 119.333L56.2917 118.885V121.904L55.4947 122.516C55.4694 122.535 55.4472 122.56 55.4294 122.59C55.4116 122.621 55.3985 122.655 55.3908 122.693C55.3832 122.729 55.3812 122.769 55.3849 122.807C55.3887 122.845 55.3981 122.883 55.4126 122.915C55.4327 122.961 55.461 122.998 55.4948 123.024C55.5287 123.05 55.567 123.064 55.606 123.064C55.6408 123.075 55.6768 123.075 55.7115 123.064L56.2975 122.618V125.636L55.5005 126.248C55.4507 126.287 55.4143 126.351 55.399 126.426C55.3837 126.501 55.3907 126.58 55.4185 126.648C55.4385 126.692 55.4668 126.73 55.5007 126.757C55.5345 126.782 55.5728 126.796 55.6119 126.797C55.6488 126.795 55.6849 126.781 55.7174 126.758L56.3034 126.311V129.329L55.5064 129.941C55.4566 129.98 55.4202 130.045 55.4049 130.119C55.3895 130.194 55.3965 130.273 55.4244 130.341C55.4434 130.385 55.4707 130.422 55.5036 130.449C55.5364 130.474 55.5737 130.489 55.6119 130.49C55.6508 130.489 55.689 130.475 55.7232 130.451L56.3093 130.004C56.3093 131.008 56.3093 132.011 56.3093 133.007L55.4947 133.634C55.4506 133.664 55.4154 133.713 55.395 133.773C55.3746 133.834 55.3702 133.902 55.3825 133.965C55.3948 134.029 55.4231 134.086 55.4627 134.126C55.5023 134.166 55.5508 134.185 55.6002 134.183C55.6391 134.182 55.6773 134.169 55.7115 134.144L56.3386 133.658C56.3854 134.755 56.4558 135.853 56.5554 136.927C56.5637 136.997 56.59 137.06 56.6296 137.106C56.6693 137.151 56.7198 137.177 56.7722 137.178C56.8008 137.174 56.8284 137.161 56.8534 137.142C56.8783 137.123 56.9002 137.097 56.9176 137.066C56.9351 137.036 56.9478 137.001 56.955 136.964C56.9623 136.926 56.9639 136.887 56.9598 136.849C56.8543 135.696 56.7781 134.497 56.7312 133.337L57.4813 132.756C57.5318 132.717 57.5689 132.654 57.5842 132.579C57.5996 132.504 57.5921 132.424 57.5634 132.357C57.5346 132.288 57.487 132.239 57.4309 132.218C57.3749 132.197 57.315 132.208 57.2645 132.247L56.7136 132.67C56.7136 131.674 56.6785 130.67 56.7136 129.666L57.4989 129.055C57.5483 129.017 57.5846 128.955 57.5999 128.882C57.6153 128.809 57.6085 128.73 57.5809 128.663C57.5669 128.629 57.548 128.599 57.5253 128.575C57.5026 128.552 57.4766 128.534 57.4488 128.524C57.4209 128.514 57.3918 128.511 57.3632 128.516C57.3346 128.521 57.307 128.534 57.2821 128.554L56.696 128.992V125.974L57.4813 125.361C57.5073 125.344 57.5303 125.319 57.5489 125.288C57.5675 125.259 57.5813 125.223 57.5895 125.186C57.5977 125.148 57.6001 125.109 57.5966 125.07C57.5931 125.03 57.5837 124.993 57.569 124.959C57.5544 124.926 57.5347 124.896 57.5113 124.872C57.4878 124.849 57.4611 124.832 57.4326 124.823C57.4041 124.813 57.3746 124.812 57.3457 124.818C57.3168 124.825 57.2892 124.839 57.2645 124.861L56.6785 125.299V122.281L57.4696 121.669C57.4943 121.65 57.516 121.624 57.5332 121.593C57.5505 121.563 57.563 121.527 57.5701 121.49C57.5772 121.453 57.5787 121.414 57.5745 121.376C57.5703 121.338 57.5606 121.302 57.5458 121.269C57.5154 121.204 57.4674 121.157 57.4117 121.138C57.356 121.119 57.2969 121.129 57.2469 121.167L56.6609 121.606V118.588L57.452 117.976C57.5018 117.937 57.5377 117.871 57.552 117.797C57.5663 117.722 57.5577 117.642 57.5282 117.576C57.4987 117.509 57.4506 117.461 57.3945 117.442C57.3385 117.423 57.2791 117.435 57.2293 117.474L56.6433 117.913V114.895L57.4344 114.283C57.4598 114.264 57.482 114.239 57.4998 114.208C57.5175 114.177 57.5303 114.143 57.5375 114.105C57.5446 114.068 57.5459 114.028 57.5413 113.99C57.5367 113.952 57.5262 113.915 57.5106 113.883C57.4973 113.849 57.4789 113.82 57.4566 113.796C57.4342 113.772 57.4085 113.755 57.3809 113.746C57.3533 113.736 57.3246 113.734 57.2965 113.74C57.2684 113.747 57.2415 113.76 57.2176 113.781L56.6316 114.22V111.13L57.5048 110.519Z" fill="black"/>
<path d="M112.257 128.632L70.2625 161.055C68.7857 162.191 66.6467 162.059 65.5742 160.607C64.5018 159.157 64.9472 156.93 66.424 155.793L108.384 123.378C109.09 122.836 109.907 122.61 110.716 122.731C111.526 122.852 112.285 123.315 112.884 124.052C113.986 125.511 113.734 127.518 112.257 128.632Z" fill="#F24E1E"/>
<path opacity="0.4" d="M57.9912 144.4C57.9171 144.414 57.8417 144.391 57.7795 144.336C57.7172 144.281 57.6724 144.196 57.6536 144.099C57.6348 144.002 57.6432 143.899 57.6774 143.81C57.7116 143.721 57.769 143.652 57.8388 143.616L105.114 107.132C105.184 107.091 105.262 107.085 105.335 107.117C105.407 107.148 105.468 107.215 105.507 107.304C105.545 107.392 105.558 107.495 105.543 107.595C105.528 107.695 105.485 107.785 105.424 107.845L58.1435 144.368C58.0959 144.398 58.0431 144.409 57.9912 144.4Z" fill="black"/>
<path opacity="0.4" d="M58.9582 147.827C58.9034 147.826 58.8498 147.806 58.8025 147.768C58.7553 147.732 58.716 147.678 58.6887 147.615C58.648 147.52 58.6369 147.408 58.6577 147.302C58.6786 147.196 58.7297 147.106 58.8 147.05L106.087 110.527C106.122 110.499 106.16 110.48 106.201 110.473C106.241 110.465 106.282 110.468 106.321 110.482C106.36 110.496 106.397 110.521 106.43 110.553C106.462 110.587 106.489 110.628 106.509 110.676C106.549 110.771 106.56 110.883 106.54 110.989C106.519 111.095 106.468 111.185 106.397 111.24L59.1282 147.764C59.0777 147.808 59.0184 147.83 58.9582 147.827Z" fill="black"/>
<path opacity="0.4" d="M60.1478 151.104C60.0775 151.107 60.0086 151.078 59.9523 151.021C59.8961 150.964 59.8558 150.884 59.8381 150.793C59.8204 150.702 59.8264 150.606 59.8549 150.52C59.8835 150.434 59.933 150.364 59.9954 150.32L107.288 113.781C107.358 113.739 107.436 113.734 107.509 113.766C107.581 113.798 107.643 113.864 107.681 113.952C107.719 114.041 107.732 114.145 107.717 114.244C107.702 114.344 107.66 114.433 107.599 114.494L60.3002 151.041C60.2531 151.076 60.2012 151.097 60.1478 151.104Z" fill="black"/>
<path opacity="0.4" d="M61.5601 154.225C61.5054 154.224 61.4517 154.204 61.4045 154.167C61.3572 154.13 61.318 154.077 61.2906 154.013C61.2698 153.967 61.2562 153.916 61.2505 153.862C61.2449 153.809 61.2473 153.756 61.2577 153.703C61.2681 153.651 61.2862 153.602 61.311 153.56C61.3358 153.517 61.3667 153.483 61.4019 153.456L108.7 116.917C108.77 116.876 108.849 116.872 108.921 116.903C108.994 116.935 109.055 117.001 109.093 117.089C109.132 117.177 109.145 117.281 109.129 117.381C109.114 117.481 109.072 117.57 109.011 117.631L61.7125 154.177C61.6661 154.213 61.6132 154.229 61.5601 154.225Z" fill="black"/>
<path d="M102.834 93.7236L141.758 63.6689C143.235 62.532 145.585 61.8576 146.904 62.5711C148.222 63.2847 147.976 65.1352 146.499 66.2722L107.124 96.6718C105.647 97.8165 103.549 97.9342 102.377 97.0873C101.205 96.2405 101.357 94.8604 102.834 93.7236Z" fill="#F24E1E"/>
<path opacity="0.4" d="M107.346 101.988C107.292 101.987 107.238 101.968 107.191 101.93C107.143 101.893 107.104 101.84 107.077 101.777C107.037 101.681 107.026 101.567 107.048 101.462C107.07 101.356 107.123 101.266 107.194 101.212L152.037 66.5782C152.108 66.5239 152.192 66.5091 152.271 66.5369C152.35 66.5648 152.417 66.6332 152.459 66.7272C152.48 66.7744 152.493 66.8266 152.498 66.8809C152.504 66.935 152.501 66.9901 152.49 67.0428C152.479 67.0955 152.46 67.1447 152.435 67.1874C152.409 67.2302 152.378 67.2657 152.342 67.2918L107.499 101.925C107.453 101.965 107.401 101.986 107.346 101.988Z" fill="black"/>
<path opacity="0.4" d="M109.204 104.67C109.149 104.669 109.096 104.649 109.048 104.612C109.001 104.575 108.962 104.522 108.935 104.458C108.894 104.363 108.884 104.249 108.906 104.143C108.928 104.037 108.98 103.948 109.052 103.893L153.965 69.2129C153.999 69.185 154.038 69.1668 154.078 69.1592C154.117 69.1517 154.158 69.155 154.197 69.1689C154.236 69.1828 154.272 69.207 154.304 69.2402C154.335 69.2733 154.362 69.3147 154.381 69.3618C154.422 69.4566 154.433 69.569 154.412 69.6746C154.391 69.7803 154.34 69.8708 154.27 69.9264L109.356 104.615C109.31 104.649 109.257 104.668 109.204 104.67Z" fill="black"/>
<path opacity="0.4" d="M116.641 135.36C116.612 135.36 116.583 135.352 116.557 135.336C116.53 135.321 116.506 135.3 116.486 135.272C116.465 135.244 116.45 135.211 116.439 135.175C116.428 135.139 116.423 135.1 116.424 135.062V131.878C116.424 129.486 116.424 129.486 116.377 127.863V127.597C116.243 123.892 115.712 120.232 114.801 116.729C113.891 113.278 112.521 110.077 110.757 107.281C110.721 107.221 110.704 107.144 110.71 107.066C110.716 106.989 110.744 106.918 110.79 106.869C110.835 106.821 110.892 106.798 110.95 106.806C111.008 106.814 111.061 106.852 111.097 106.912C112.888 109.764 114.278 113.026 115.199 116.541C116.128 120.078 116.673 123.775 116.817 127.518V127.793C116.87 129.424 116.87 129.424 116.864 131.839V135.022C116.868 135.065 116.865 135.108 116.856 135.148C116.847 135.189 116.831 135.227 116.81 135.259C116.789 135.291 116.763 135.316 116.734 135.333C116.704 135.351 116.673 135.36 116.641 135.36Z" fill="black"/>
<path d="M116.19 110.268C115.991 109.797 115.774 109.343 115.545 108.888C115.487 108.782 115.447 108.661 115.426 108.533C115.406 108.403 115.406 108.271 115.427 108.142C115.449 108.014 115.49 107.893 115.548 107.788C115.607 107.683 115.682 107.595 115.768 107.532L132.903 94.2959C133.083 94.154 133.297 94.1108 133.5 94.1751C133.703 94.2394 133.88 94.4063 133.993 94.6409C134.199 95.0879 134.398 95.5662 134.579 96.0602C134.672 96.3106 134.69 96.5986 134.63 96.8663C134.57 97.1339 134.437 97.3614 134.257 97.5029L117.215 110.66C117.129 110.726 117.034 110.769 116.935 110.784C116.836 110.801 116.736 110.79 116.641 110.754C116.545 110.717 116.456 110.655 116.379 110.572C116.301 110.489 116.237 110.385 116.19 110.268Z" fill="#F24E1E"/>
<path d="M117.86 115.584C117.983 116.11 118.106 116.628 118.212 117.153C118.234 117.27 118.276 117.379 118.335 117.471C118.394 117.563 118.469 117.635 118.552 117.683C118.636 117.73 118.726 117.75 118.816 117.743C118.907 117.735 118.995 117.7 119.073 117.639L159.726 86.2356C159.913 86.0802 160.058 85.8512 160.143 85.58C160.228 85.3089 160.248 85.0093 160.201 84.7223C160.089 84.1812 159.972 83.6559 159.855 83.1541C159.834 83.0277 159.789 82.9105 159.725 82.8128C159.662 82.715 159.581 82.64 159.491 82.5941C159.4 82.5483 159.303 82.5333 159.207 82.5502C159.111 82.5671 159.019 82.6157 158.941 82.6914L118.276 114.094C118.095 114.248 117.956 114.478 117.881 114.746C117.806 115.015 117.799 115.31 117.86 115.584Z" fill="#F24E1E"/>
<path opacity="0.7" d="M117.86 115.584C117.983 116.11 118.106 116.628 118.212 117.153C118.234 117.27 118.276 117.379 118.335 117.471C118.394 117.563 118.469 117.635 118.552 117.683C118.636 117.73 118.726 117.75 118.816 117.743C118.907 117.735 118.995 117.7 119.073 117.639L159.726 86.2356C159.913 86.0802 160.058 85.8512 160.143 85.58C160.228 85.3089 160.248 85.0093 160.201 84.7223C160.089 84.1812 159.972 83.6559 159.855 83.1541C159.834 83.0277 159.789 82.9105 159.725 82.8128C159.662 82.715 159.581 82.64 159.491 82.5941C159.4 82.5483 159.303 82.5333 159.207 82.5502C159.111 82.5671 159.019 82.6157 158.941 82.6914L118.276 114.094C118.095 114.248 117.956 114.478 117.881 114.746C117.806 115.015 117.799 115.31 117.86 115.584Z" fill="white"/>
<path d="M119.044 122.814C119.096 123.394 119.137 123.958 119.173 124.5C119.163 124.615 119.18 124.732 119.221 124.836C119.261 124.938 119.324 125.023 119.4 125.079C119.477 125.134 119.564 125.158 119.651 125.147C119.738 125.136 119.82 125.091 119.887 125.018L147.431 103.745C147.627 103.578 147.787 103.345 147.895 103.07C148.003 102.795 148.055 102.487 148.046 102.176C148.011 101.612 147.964 101.055 147.917 100.49C147.916 100.371 147.89 100.254 147.842 100.154C147.795 100.053 147.727 99.9717 147.646 99.9194C147.566 99.868 147.477 99.8462 147.388 99.8591C147.299 99.8709 147.214 99.9154 147.144 99.9885L119.6 121.253C119.41 121.421 119.258 121.655 119.16 121.93C119.062 122.206 119.022 122.511 119.044 122.814Z" fill="#F24E1E"/>
<path opacity="0.15" d="M119.044 122.814C119.096 123.394 119.137 123.958 119.173 124.5C119.163 124.615 119.18 124.732 119.221 124.836C119.261 124.938 119.324 125.023 119.4 125.079C119.477 125.134 119.564 125.158 119.651 125.147C119.738 125.136 119.82 125.091 119.887 125.018L147.431 103.745C147.627 103.578 147.787 103.345 147.895 103.07C148.003 102.795 148.055 102.487 148.046 102.176C148.011 101.612 147.964 101.055 147.917 100.49C147.916 100.371 147.89 100.254 147.842 100.154C147.795 100.053 147.727 99.9717 147.646 99.9194C147.566 99.868 147.477 99.8462 147.388 99.8591C147.299 99.8709 147.214 99.9154 147.144 99.9885L119.6 121.253C119.41 121.421 119.258 121.655 119.16 121.93C119.062 122.206 119.022 122.511 119.044 122.814Z" fill="black"/>
<path d="M119.266 130.334V131.996C119.266 132.561 119.565 132.78 119.934 132.506L131.725 123.402C131.922 123.23 132.085 122.999 132.201 122.726C132.317 122.454 132.383 122.147 132.393 121.834V120.171C132.393 119.599 132.095 119.388 131.725 119.654L119.934 128.765C119.738 128.937 119.575 129.169 119.459 129.442C119.343 129.715 119.277 130.02 119.266 130.334Z" fill="#F24E1E"/>
<path opacity="0.5" d="M119.266 130.334V131.996C119.266 132.561 119.565 132.78 119.934 132.506L131.725 123.402C131.922 123.23 132.085 122.999 132.201 122.726C132.317 122.454 132.383 122.147 132.393 121.834V120.171C132.393 119.599 132.095 119.388 131.725 119.654L119.934 128.765C119.738 128.937 119.575 129.169 119.459 129.442C119.343 129.715 119.277 130.02 119.266 130.334Z" fill="white"/>
<path opacity="0.4" d="M161.273 104.136C161.214 104.136 161.157 104.168 161.115 104.224C161.074 104.279 161.05 104.356 161.05 104.435V105.853L157.909 108.277V107.218C157.9 107.149 157.874 107.085 157.833 107.039C157.793 106.994 157.742 106.969 157.689 106.969C157.636 106.969 157.585 106.994 157.545 107.039C157.505 107.085 157.478 107.149 157.469 107.218V108.614L154.328 111.044V110.002C154.334 109.959 154.332 109.915 154.323 109.874C154.314 109.832 154.299 109.794 154.278 109.761C154.257 109.727 154.231 109.702 154.202 109.683C154.173 109.665 154.141 109.655 154.109 109.655C154.076 109.655 154.044 109.665 154.015 109.683C153.986 109.702 153.96 109.727 153.939 109.761C153.918 109.794 153.903 109.832 153.894 109.874C153.885 109.915 153.884 109.959 153.889 110.002V111.381L150.748 113.805V112.785C150.748 112.707 150.725 112.633 150.685 112.578C150.644 112.521 150.589 112.49 150.531 112.487C150.502 112.487 150.473 112.495 150.446 112.511C150.42 112.525 150.396 112.547 150.375 112.575C150.355 112.602 150.339 112.636 150.329 112.672C150.318 112.708 150.313 112.747 150.314 112.785V114.142L147.167 116.572V115.568C147.167 115.492 147.144 115.418 147.104 115.364C147.063 115.31 147.008 115.279 146.95 115.279C146.893 115.279 146.838 115.31 146.797 115.364C146.756 115.418 146.733 115.492 146.733 115.568V116.91L143.586 119.341V118.353C143.587 118.314 143.582 118.275 143.572 118.24C143.561 118.204 143.545 118.172 143.525 118.145C143.504 118.117 143.48 118.097 143.454 118.082C143.427 118.068 143.398 118.061 143.37 118.062C143.341 118.062 143.313 118.07 143.287 118.085C143.26 118.099 143.236 118.12 143.216 118.147C143.196 118.174 143.18 118.206 143.169 118.241C143.158 118.276 143.153 118.314 143.153 118.353V119.677L140 122.1V121.136C139.991 121.067 139.965 121.002 139.924 120.957C139.884 120.911 139.833 120.886 139.78 120.886C139.727 120.886 139.676 120.911 139.636 120.957C139.596 121.002 139.569 121.067 139.56 121.136V122.438L136.419 124.868V123.92C136.411 123.85 136.384 123.787 136.344 123.74C136.303 123.695 136.252 123.67 136.2 123.67C136.147 123.67 136.096 123.695 136.055 123.74C136.015 123.787 135.988 123.85 135.98 123.92V125.205L132.839 127.628V126.735C132.83 126.665 132.803 126.601 132.763 126.556C132.723 126.509 132.672 126.485 132.619 126.485C132.566 126.485 132.515 126.509 132.475 126.556C132.434 126.601 132.408 126.665 132.399 126.735V127.996L129.258 130.428V129.518C129.249 129.448 129.223 129.385 129.182 129.339C129.142 129.294 129.091 129.268 129.038 129.268C128.985 129.268 128.934 129.294 128.894 129.339C128.854 129.385 128.827 129.448 128.818 129.518V130.765L125.677 133.195V132.301C125.669 132.232 125.642 132.169 125.602 132.122C125.562 132.077 125.51 132.052 125.458 132.052C125.405 132.052 125.354 132.077 125.313 132.122C125.273 132.169 125.246 132.232 125.238 132.301V133.532L122.097 135.956V135.085C122.088 135.015 122.061 134.952 122.021 134.906C121.981 134.86 121.93 134.835 121.877 134.835C121.824 134.835 121.773 134.86 121.733 134.906C121.693 134.952 121.666 135.015 121.657 135.085V136.293L118.932 138.402C118.907 138.421 118.885 138.446 118.867 138.476C118.849 138.507 118.836 138.541 118.828 138.579C118.821 138.616 118.819 138.655 118.822 138.694C118.826 138.731 118.836 138.769 118.85 138.802C118.87 138.847 118.898 138.884 118.932 138.91C118.966 138.936 119.004 138.95 119.044 138.95C119.081 138.949 119.118 138.934 119.149 138.904L121.657 136.966V138.159C121.666 138.228 121.693 138.292 121.733 138.338C121.773 138.383 121.824 138.409 121.877 138.409C121.93 138.409 121.981 138.383 122.021 138.338C122.061 138.292 122.088 138.228 122.097 138.159V136.63L125.238 134.207V135.36C125.246 135.429 125.273 135.492 125.313 135.539C125.354 135.584 125.405 135.609 125.458 135.609C125.51 135.609 125.562 135.584 125.602 135.539C125.642 135.492 125.669 135.429 125.677 135.36V133.854L128.818 131.424V132.576C128.827 132.646 128.854 132.709 128.894 132.755C128.934 132.801 128.985 132.826 129.038 132.826C129.091 132.826 129.142 132.801 129.182 132.755C129.223 132.709 129.249 132.646 129.258 132.576V131.086L132.399 128.663V129.793C132.408 129.862 132.434 129.926 132.475 129.971C132.515 130.017 132.566 130.043 132.619 130.043C132.672 130.043 132.723 130.017 132.763 129.971C132.803 129.926 132.83 129.862 132.839 129.793V128.303L135.98 125.88V126.994C135.988 127.063 136.015 127.126 136.055 127.172C136.096 127.218 136.147 127.243 136.2 127.243C136.252 127.243 136.303 127.218 136.344 127.172C136.384 127.126 136.411 127.063 136.419 126.994V125.542L139.56 123.112V124.209C139.569 124.28 139.596 124.343 139.636 124.388C139.676 124.435 139.727 124.459 139.78 124.459C139.833 124.459 139.884 124.435 139.924 124.388C139.965 124.343 139.991 124.28 140 124.209V122.814L143.141 120.391V121.465C143.142 121.542 143.166 121.614 143.206 121.668C143.247 121.723 143.301 121.753 143.358 121.755C143.386 121.755 143.415 121.748 143.441 121.733C143.467 121.719 143.491 121.697 143.511 121.67C143.531 121.644 143.547 121.611 143.558 121.576C143.569 121.541 143.575 121.503 143.575 121.465V120.054L146.722 117.623V118.682C146.722 118.759 146.745 118.833 146.785 118.887C146.826 118.941 146.881 118.972 146.938 118.972C146.996 118.972 147.051 118.941 147.092 118.887C147.132 118.833 147.155 118.759 147.155 118.682V117.247L150.302 114.817V115.859C150.302 115.936 150.325 116.01 150.366 116.064C150.406 116.119 150.462 116.149 150.519 116.149C150.576 116.147 150.63 116.116 150.671 116.061C150.711 116.008 150.734 115.935 150.736 115.859V114.479L153.877 112.056V113.076C153.886 113.145 153.912 113.208 153.953 113.254C153.993 113.3 154.044 113.326 154.097 113.326C154.15 113.326 154.201 113.3 154.241 113.254C154.281 113.208 154.308 113.145 154.317 113.076V111.719L157.458 109.288V110.269C157.466 110.338 157.493 110.401 157.533 110.448C157.574 110.493 157.625 110.518 157.677 110.518C157.73 110.518 157.781 110.493 157.822 110.448C157.862 110.401 157.889 110.338 157.897 110.269V108.927L161.038 106.504V107.485C161.047 107.555 161.074 107.618 161.114 107.663C161.154 107.71 161.205 107.735 161.258 107.735C161.311 107.735 161.362 107.71 161.402 107.663C161.443 107.618 161.469 107.555 161.478 107.485V104.411C161.474 104.34 161.451 104.274 161.413 104.223C161.376 104.173 161.326 104.142 161.273 104.136Z" fill="black"/>
<path d="M126.808 142.707C126.003 142.956 125.231 143.374 124.523 143.946C120.175 147.364 116.653 155.918 116.653 163.046C116.653 163.242 116.653 163.422 116.653 163.603L124.511 158.788L126.808 142.707Z" fill="#F24E1E"/>
<path d="M126.809 142.707L124.517 158.788L132.306 152.743C132.364 152.096 132.393 151.444 132.394 150.791C132.382 144.926 130.038 141.805 126.809 142.707Z" fill="#F24E1E"/>
<path d="M131.321 158.161C131.817 156.417 132.148 154.597 132.306 152.743L124.517 158.788L131.321 158.161Z" fill="#F24E1E"/>
<path d="M116.659 163.587C116.835 170.33 120.292 173.145 124.523 169.86C127.453 167.617 129.962 163.062 131.321 158.099L124.517 158.725L116.659 163.587Z" fill="#F24E1E"/>
<path opacity="0.7" d="M126.809 142.707L124.517 158.788L132.306 152.743C132.364 152.096 132.393 151.444 132.394 150.791C132.382 144.926 130.038 141.805 126.809 142.707Z" fill="white"/>
<path opacity="0.15" d="M131.321 158.161C131.817 156.417 132.148 154.597 132.306 152.743L124.517 158.788L131.321 158.161Z" fill="black"/>
<path opacity="0.5" d="M116.659 163.587C116.835 170.33 120.292 173.145 124.523 169.86C127.453 167.617 129.962 163.062 131.321 158.099L124.517 158.725L116.659 163.587Z" fill="white"/>
<path d="M116.659 164.019C116.601 164.017 116.544 163.995 116.495 163.956C116.451 163.92 116.416 163.871 116.39 163.811C116.364 163.753 116.35 163.687 116.348 163.619C116.348 163.43 116.348 163.242 116.348 163.047C116.348 155.793 119.946 147.066 124.371 143.593C125.108 142.997 125.911 142.562 126.75 142.307C126.8 142.292 126.852 142.294 126.901 142.314C126.95 142.332 126.995 142.368 127.031 142.416C127.068 142.464 127.095 142.522 127.11 142.586C127.125 142.65 127.129 142.719 127.119 142.785L124.816 158.882C124.808 158.946 124.788 159.008 124.758 159.059C124.729 159.111 124.69 159.153 124.646 159.181L116.788 163.995C116.746 164.014 116.702 164.022 116.659 164.019ZM126.416 143.271C125.8 143.517 125.21 143.865 124.658 144.306C120.415 147.639 116.963 155.989 116.934 162.96L124.219 158.506L126.416 143.271Z" fill="white"/>
<path d="M124.517 159.204C124.452 159.205 124.388 159.179 124.336 159.125C124.288 159.079 124.252 159.015 124.23 158.942C124.208 158.867 124.202 158.787 124.213 158.71L126.51 142.636C126.52 142.556 126.549 142.481 126.592 142.421C126.635 142.363 126.69 142.322 126.75 142.307C127.415 142.081 128.109 142.063 128.779 142.253C129.45 142.444 130.079 142.837 130.618 143.404C131.96 144.863 132.704 147.49 132.704 150.791C132.703 151.458 132.674 152.126 132.616 152.79C132.61 152.854 132.593 152.914 132.567 152.967C132.54 153.02 132.505 153.064 132.464 153.096L124.67 159.149C124.623 159.183 124.571 159.201 124.517 159.204ZM127.108 143.067L124.974 157.965L132.048 152.476C132.094 151.914 132.117 151.349 132.118 150.783C132.118 147.733 131.456 145.333 130.255 144.032C129.815 143.572 129.305 143.248 128.761 143.081C128.217 142.914 127.653 142.91 127.108 143.067Z" fill="white"/>
<path d="M124.517 159.204C124.451 159.204 124.387 159.177 124.335 159.124C124.282 159.072 124.243 158.998 124.224 158.914C124.201 158.826 124.202 158.729 124.227 158.642C124.252 158.555 124.298 158.482 124.359 158.436L132.153 152.382C132.202 152.344 132.258 152.323 132.314 152.323C132.371 152.323 132.427 152.344 132.475 152.382C132.524 152.424 132.562 152.483 132.587 152.552C132.612 152.621 132.622 152.698 132.616 152.775C132.452 154.653 132.113 156.496 131.608 158.263C131.587 158.336 131.551 158.399 131.504 158.447C131.458 158.493 131.402 158.522 131.344 158.53L124.535 159.157L124.517 159.204ZM131.925 153.519L125.818 158.224L131.092 157.738C131.472 156.371 131.751 154.958 131.925 153.519Z" fill="white"/>
<path d="M121.171 171.671C120.426 171.678 119.693 171.433 119.038 170.958C117.397 169.734 116.442 167.131 116.348 163.619C116.345 163.536 116.361 163.455 116.393 163.385C116.426 163.314 116.473 163.259 116.53 163.227L124.388 158.412C124.423 158.404 124.459 158.404 124.494 158.412L131.298 157.785C131.349 157.778 131.402 157.79 131.449 157.818C131.496 157.847 131.537 157.892 131.567 157.95C131.599 158.003 131.619 158.066 131.627 158.134C131.634 158.202 131.627 158.271 131.608 158.334C130.19 163.501 127.506 168.072 124.675 170.283C123.617 171.146 122.41 171.625 121.171 171.671ZM116.975 163.83C117.098 166.904 117.936 169.162 119.319 170.197C120.702 171.232 122.466 170.981 124.353 169.499C126.979 167.476 129.434 163.328 130.84 158.585L124.576 159.165L116.975 163.83Z" fill="white"/>
<path d="M149.833 125.699C147.273 129.824 145.52 135.587 145.52 140.653C145.469 142.599 145.814 144.529 146.517 146.235L153.397 134.575L149.833 125.699Z" fill="#F24E1E"/>
<path d="M156.948 120.179C155.692 120.164 154.459 120.632 153.397 121.528C152.034 122.626 150.828 124.038 149.834 125.699L153.397 134.56L156.948 120.179Z" fill="#F24E1E"/>
<path d="M160.54 123.544C160.241 122.585 159.744 121.761 159.108 121.165C158.472 120.57 157.723 120.228 156.948 120.179L153.397 134.576L160.54 123.544Z" fill="#F24E1E"/>
<path d="M160.54 123.542L153.397 134.575L146.517 146.251C147.864 149.191 150.437 149.896 153.397 147.615C157.745 144.251 161.273 135.697 161.273 128.49C161.308 126.789 161.058 125.099 160.54 123.542Z" fill="#F24E1E"/>
<path opacity="0.7" d="M156.948 120.179C155.692 120.164 154.459 120.632 153.397 121.528C152.034 122.626 150.828 124.038 149.834 125.699L153.397 134.56L156.948 120.179Z" fill="white"/>
<path opacity="0.15" d="M160.54 123.544C160.241 122.585 159.744 121.761 159.108 121.165C158.472 120.57 157.723 120.228 156.948 120.179L153.397 134.576L160.54 123.544Z" fill="black"/>
<path opacity="0.5" d="M160.54 123.542L153.397 134.575L146.517 146.251C147.864 149.191 150.437 149.896 153.397 147.615C157.745 144.251 161.273 135.697 161.273 128.49C161.308 126.789 161.058 125.099 160.54 123.542Z" fill="white"/>
<path d="M146.517 146.651C146.467 146.644 146.419 146.622 146.376 146.587C146.333 146.552 146.297 146.504 146.271 146.446C145.54 144.676 145.182 142.674 145.233 140.653C145.233 135.626 146.909 129.793 149.617 125.433C149.65 125.383 149.69 125.344 149.736 125.318C149.782 125.292 149.831 125.28 149.881 125.284C149.932 125.291 149.981 125.315 150.024 125.353C150.067 125.391 150.102 125.443 150.127 125.504L153.684 134.372C153.712 134.442 153.725 134.521 153.719 134.601C153.714 134.68 153.692 134.756 153.655 134.819L146.757 146.494C146.728 146.542 146.691 146.581 146.65 146.608C146.608 146.635 146.563 146.65 146.517 146.651ZM149.781 126.444C147.337 130.6 145.831 135.994 145.831 140.653C145.798 142.319 146.048 143.973 146.564 145.49L153.01 134.513L149.781 126.444Z" fill="white"/>
<path d="M153.397 134.975C153.34 134.976 153.284 134.957 153.236 134.917C153.187 134.879 153.147 134.822 153.121 134.755L149.564 125.895C149.535 125.822 149.522 125.739 149.529 125.657C149.535 125.574 149.559 125.496 149.599 125.432C150.611 123.731 151.843 122.289 153.238 121.175C154.351 120.234 155.643 119.744 156.96 119.763C157.008 119.765 157.054 119.783 157.096 119.815C157.138 119.845 157.174 119.89 157.2 119.944C157.228 119.994 157.247 120.055 157.254 120.117C157.261 120.18 157.257 120.244 157.241 120.305L153.69 134.693C153.67 134.769 153.634 134.837 153.586 134.887C153.538 134.937 153.48 134.968 153.42 134.975H153.397ZM150.203 125.746L153.326 133.524L156.52 120.586C155.467 120.7 154.448 121.146 153.549 121.888C152.276 122.907 151.144 124.212 150.203 125.746Z" fill="white"/>
<path d="M153.397 134.975C153.343 134.977 153.29 134.958 153.244 134.92C153.182 134.874 153.134 134.8 153.108 134.711C153.083 134.622 153.081 134.524 153.104 134.434L156.655 120.046C156.676 119.96 156.717 119.887 156.772 119.835C156.827 119.784 156.893 119.759 156.96 119.763C157.791 119.817 158.593 120.183 159.275 120.82C159.957 121.457 160.491 122.338 160.816 123.363C160.842 123.436 160.851 123.519 160.843 123.599C160.834 123.68 160.809 123.756 160.769 123.817L153.625 134.833C153.597 134.878 153.562 134.913 153.523 134.938C153.483 134.963 153.44 134.975 153.397 134.975ZM157.165 120.61L154.17 132.733L160.171 123.48C159.894 122.7 159.472 122.026 158.946 121.524C158.42 121.022 157.807 120.708 157.165 120.61Z" fill="white"/>
<path d="M150.056 149.364C149.286 149.377 148.527 149.114 147.859 148.602C147.19 148.09 146.636 147.349 146.253 146.454C146.216 146.385 146.197 146.301 146.197 146.215C146.197 146.13 146.216 146.046 146.253 145.976L153.127 134.309L160.283 123.277C160.316 123.223 160.358 123.182 160.406 123.157C160.455 123.132 160.507 123.126 160.558 123.135C160.608 123.144 160.656 123.17 160.697 123.21C160.738 123.249 160.771 123.302 160.793 123.363C161.333 124.968 161.595 126.716 161.56 128.476C161.56 135.791 157.956 144.534 153.526 147.952C152.481 148.82 151.285 149.307 150.056 149.364ZM146.898 146.227C148.24 148.886 150.596 149.254 153.239 147.207C157.499 143.922 160.962 135.5 160.962 128.444C160.984 127.026 160.811 125.614 160.453 124.281L153.625 134.803L146.898 146.227Z" fill="white"/>
<path d="M135.687 135.234L136.976 134.238C137.345 133.956 137.644 134.191 137.644 134.755V136.418C137.634 136.731 137.568 137.037 137.452 137.31C137.336 137.583 137.173 137.814 136.976 137.986L135.687 138.982C135.318 139.264 135.019 139.037 135.019 138.464V136.81C135.029 136.495 135.094 136.188 135.21 135.914C135.327 135.639 135.49 135.406 135.687 135.234Z" fill="#F24E1E"/>
<path d="M135.687 142.675L136.976 141.679C137.345 141.39 137.644 141.625 137.644 142.197V143.852C137.635 144.165 137.569 144.471 137.453 144.745C137.337 145.018 137.173 145.249 136.976 145.42L135.687 146.416C135.318 146.706 135.019 146.47 135.019 145.898V144.22C135.031 143.91 135.098 143.609 135.214 143.34C135.33 143.071 135.492 142.844 135.687 142.675Z" fill="#F24E1E"/>
<path opacity="0.7" d="M135.687 142.675L136.976 141.679C137.345 141.39 137.644 141.625 137.644 142.197V143.852C137.635 144.165 137.569 144.471 137.453 144.745C137.337 145.018 137.173 145.249 136.976 145.42L135.687 146.416C135.318 146.706 135.019 146.47 135.019 145.898V144.22C135.031 143.91 135.098 143.609 135.214 143.34C135.33 143.071 135.492 142.844 135.687 142.675Z" fill="white"/>
<path d="M135.687 150.109L136.976 149.113C137.345 148.83 137.644 149.058 137.644 149.631V151.285C137.633 151.598 137.567 151.904 137.451 152.177C137.335 152.448 137.172 152.681 136.976 152.852L135.687 153.848C135.318 154.131 135.019 153.896 135.019 153.331V151.669C135.03 151.357 135.096 151.052 135.212 150.781C135.329 150.51 135.491 150.28 135.687 150.109Z" fill="#F24E1E"/>
<path opacity="0.15" d="M135.687 150.109L136.976 149.113C137.345 148.83 137.644 149.058 137.644 149.631V151.285C137.633 151.598 137.567 151.904 137.451 152.177C137.335 152.448 137.172 152.681 136.976 152.852L135.687 153.848C135.318 154.131 135.019 153.896 135.019 153.331V151.669C135.03 151.357 135.096 151.052 135.212 150.781C135.329 150.51 135.491 150.28 135.687 150.109Z" fill="black"/>
<path d="M135.687 157.542L136.976 156.546C137.345 156.264 137.644 156.499 137.644 157.063V158.726C137.634 159.039 137.568 159.345 137.452 159.617C137.336 159.891 137.173 160.122 136.976 160.294L135.687 161.29C135.318 161.572 135.019 161.344 135.019 160.772V159.117C135.029 158.803 135.094 158.496 135.21 158.221C135.327 157.948 135.49 157.715 135.687 157.542Z" fill="#F24E1E"/>
<path opacity="0.5" d="M135.687 157.542L136.976 156.546C137.345 156.264 137.644 156.499 137.644 157.063V158.726C137.634 159.039 137.568 159.345 137.452 159.617C137.336 159.891 137.173 160.122 136.976 160.294L135.687 161.29C135.318 161.572 135.019 161.344 135.019 160.772V159.117C135.029 158.803 135.094 158.496 135.21 158.221C135.327 157.948 135.49 157.715 135.687 157.542Z" fill="white"/>
<path opacity="0.4" d="M138.969 135.07C138.892 135.07 138.817 135.042 138.751 134.989C138.685 134.936 138.63 134.861 138.594 134.771C138.538 134.639 138.523 134.483 138.553 134.336C138.583 134.189 138.654 134.064 138.752 133.988L142.672 130.96C142.771 130.9 142.884 130.892 142.987 130.937C143.091 130.981 143.179 131.075 143.233 131.201C143.288 131.327 143.306 131.475 143.283 131.618C143.261 131.76 143.2 131.886 143.112 131.972L139.185 135.006C139.118 135.051 139.044 135.073 138.969 135.07Z" fill="black"/>
<path opacity="0.4" d="M138.91 142.573C138.813 142.576 138.718 142.535 138.64 142.457C138.562 142.379 138.506 142.268 138.481 142.142C138.456 142.016 138.463 141.883 138.502 141.764C138.54 141.645 138.608 141.546 138.693 141.483L142.614 138.456C142.663 138.408 142.72 138.374 142.78 138.357C142.84 138.34 142.903 138.34 142.963 138.356C143.023 138.373 143.08 138.407 143.13 138.455C143.18 138.504 143.221 138.565 143.252 138.636C143.283 138.707 143.302 138.786 143.309 138.868C143.316 138.95 143.31 139.033 143.291 139.111C143.272 139.189 143.241 139.262 143.2 139.324C143.159 139.385 143.109 139.434 143.053 139.468L139.127 142.494C139.061 142.547 138.986 142.574 138.91 142.573Z" fill="black"/>
<path opacity="0.4" d="M138.828 150.085C138.733 150.083 138.641 150.04 138.565 149.962C138.49 149.884 138.436 149.775 138.411 149.652C138.385 149.529 138.391 149.398 138.426 149.28C138.461 149.161 138.524 149.062 138.605 148.995L142.532 145.968C142.631 145.894 142.748 145.874 142.857 145.914C142.967 145.953 143.06 146.049 143.118 146.18C143.171 146.313 143.183 146.468 143.154 146.613C143.125 146.759 143.055 146.884 142.96 146.964L139.033 149.99C138.972 150.045 138.901 150.077 138.828 150.085Z" fill="black"/>
<path opacity="0.4" d="M138.787 157.597C138.711 157.598 138.636 157.572 138.57 157.521C138.503 157.47 138.449 157.395 138.412 157.307C138.356 157.174 138.342 157.018 138.371 156.872C138.401 156.725 138.472 156.599 138.57 156.523L142.497 153.488C142.547 153.443 142.603 153.412 142.663 153.398C142.722 153.383 142.783 153.385 142.842 153.404C142.901 153.422 142.957 153.456 143.005 153.505C143.053 153.554 143.094 153.615 143.124 153.686C143.154 153.756 143.172 153.834 143.179 153.914C143.185 153.995 143.179 154.076 143.161 154.153C143.143 154.23 143.113 154.301 143.073 154.362C143.034 154.424 142.985 154.473 142.93 154.508L139.004 157.534C138.937 157.581 138.862 157.603 138.787 157.597Z" fill="black"/>
<path opacity="0.4" d="M117.145 184.021C117.068 184.021 116.993 183.993 116.927 183.941C116.861 183.889 116.807 183.813 116.77 183.723C116.714 183.59 116.7 183.434 116.729 183.288C116.759 183.141 116.83 183.016 116.928 182.939L135.312 168.739C135.411 168.664 135.528 168.645 135.637 168.684C135.747 168.724 135.84 168.82 135.898 168.95C135.951 169.084 135.964 169.24 135.934 169.387C135.903 169.533 135.831 169.657 135.734 169.735L117.356 183.974C117.289 184.011 117.217 184.027 117.145 184.021Z" fill="black"/>
<path opacity="0.4" d="M117.731 187.659C117.634 187.662 117.539 187.621 117.461 187.543C117.383 187.465 117.327 187.353 117.302 187.228C117.277 187.102 117.284 186.969 117.323 186.85C117.361 186.73 117.429 186.631 117.514 186.569L135.898 172.376C135.948 172.339 136.002 172.314 136.059 172.304C136.116 172.294 136.173 172.299 136.229 172.32C136.284 172.34 136.336 172.374 136.381 172.421C136.426 172.467 136.464 172.526 136.493 172.593C136.521 172.659 136.54 172.732 136.547 172.808C136.554 172.884 136.55 172.961 136.535 173.035C136.52 173.108 136.495 173.178 136.46 173.239C136.425 173.299 136.381 173.351 136.332 173.388L117.954 187.581C117.887 187.635 117.809 187.662 117.731 187.659Z" fill="black"/>
<path opacity="0.4" d="M118.581 191.18C118.486 191.178 118.393 191.134 118.318 191.056C118.243 190.978 118.188 190.87 118.163 190.747C118.138 190.624 118.144 190.493 118.179 190.375C118.214 190.256 118.277 190.156 118.358 190.09L136.736 175.898C136.786 175.849 136.843 175.816 136.903 175.798C136.963 175.781 137.025 175.781 137.085 175.798C137.145 175.815 137.202 175.848 137.252 175.897C137.302 175.945 137.344 176.006 137.375 176.077C137.405 176.148 137.425 176.228 137.431 176.31C137.438 176.392 137.432 176.475 137.413 176.553C137.394 176.631 137.364 176.703 137.323 176.764C137.282 176.826 137.232 176.875 137.176 176.909L118.798 191.101C118.732 191.152 118.657 191.18 118.581 191.18Z" fill="black"/>
<path opacity="0.4" d="M145.984 161.745C145.907 161.745 145.832 161.719 145.767 161.668C145.701 161.616 145.646 161.543 145.608 161.454C145.553 161.322 145.538 161.166 145.568 161.019C145.598 160.872 145.669 160.747 145.767 160.67L164.145 146.478C164.244 146.408 164.36 146.39 164.469 146.43C164.577 146.469 164.671 146.562 164.731 146.689C164.784 146.824 164.797 146.98 164.766 147.126C164.736 147.272 164.664 147.397 164.567 147.474L146.195 161.666C146.13 161.716 146.058 161.743 145.984 161.745Z" fill="black"/>
<path opacity="0.4" d="M146.575 165.382C146.499 165.383 146.424 165.357 146.358 165.306C146.292 165.255 146.238 165.181 146.2 165.093C146.145 164.96 146.13 164.804 146.16 164.657C146.189 164.511 146.261 164.385 146.359 164.308L164.736 150.116C164.836 150.046 164.952 150.029 165.061 150.067C165.169 150.107 165.263 150.2 165.322 150.328C165.376 150.462 165.389 150.618 165.358 150.764C165.328 150.91 165.256 151.035 165.158 151.112L146.786 165.304C146.722 165.354 146.649 165.38 146.575 165.382Z" fill="black"/>
<path opacity="0.4" d="M147.425 168.903C147.348 168.903 147.273 168.878 147.206 168.826C147.139 168.775 147.083 168.702 147.044 168.613C146.992 168.48 146.979 168.325 147.008 168.179C147.037 168.034 147.107 167.909 147.202 167.829L165.58 153.637C165.63 153.598 165.686 153.574 165.743 153.563C165.8 153.553 165.858 153.558 165.914 153.579C165.97 153.598 166.022 153.633 166.068 153.68C166.114 153.727 166.152 153.786 166.181 153.852C166.21 153.919 166.229 153.994 166.236 154.07C166.244 154.147 166.24 154.225 166.225 154.299C166.21 154.374 166.184 154.444 166.149 154.505C166.114 154.567 166.07 154.618 166.02 154.656L147.619 168.825C147.56 168.872 147.493 168.899 147.425 168.903Z" fill="black"/>
<path d="M123.621 195.17L165.522 162.803C166.193 162.259 166.99 162.062 167.762 162.248C168.535 162.434 169.23 162.991 169.718 163.814C170.614 165.453 170.251 167.601 168.774 168.746L126.861 201.106C125.385 202.244 123.345 201.945 122.46 200.322C121.575 198.7 122.15 196.308 123.621 195.17Z" fill="#F24E1E"/>
<path opacity="0.4" d="M130.536 211.025C130.459 211.024 130.384 210.996 130.317 210.946C130.251 210.895 130.195 210.822 130.155 210.734C130.101 210.601 130.088 210.445 130.119 210.299C130.15 210.153 130.221 210.028 130.319 209.951L148.691 195.735C148.791 195.664 148.906 195.648 149.015 195.686C149.124 195.726 149.217 195.819 149.277 195.947C149.331 196.079 149.345 196.236 149.315 196.381C149.286 196.527 149.215 196.652 149.119 196.731L130.741 210.923C130.681 210.98 130.61 211.016 130.536 211.025Z" fill="black"/>
<path opacity="0.4" d="M128.239 208.853C128.143 208.851 128.051 208.809 127.976 208.731C127.9 208.653 127.846 208.544 127.821 208.421C127.796 208.298 127.801 208.168 127.836 208.049C127.872 207.931 127.935 207.83 128.016 207.764L146.394 193.572C146.494 193.5 146.611 193.483 146.72 193.524C146.829 193.565 146.922 193.66 146.98 193.791C147.032 193.925 147.045 194.079 147.016 194.225C146.987 194.37 146.917 194.496 146.822 194.575L128.455 208.775C128.39 208.827 128.315 208.853 128.239 208.853Z" fill="black"/>
<path opacity="0.4" d="M132.968 212.939C132.891 212.937 132.816 212.908 132.751 212.857C132.685 212.804 132.63 212.729 132.593 212.64C132.537 212.508 132.523 212.352 132.552 212.206C132.582 212.058 132.653 211.934 132.751 211.857L151.135 197.656C151.234 197.586 151.35 197.568 151.459 197.608C151.567 197.647 151.661 197.74 151.721 197.868C151.774 198.002 151.787 198.158 151.756 198.304C151.726 198.451 151.654 198.575 151.557 198.652L133.185 212.845C133.119 212.897 133.044 212.93 132.968 212.939Z" fill="black"/>
<path opacity="0.4" d="M156.772 190.764C156.675 190.767 156.58 190.726 156.502 190.648C156.424 190.57 156.368 190.46 156.343 190.333C156.318 190.208 156.326 190.074 156.364 189.955C156.403 189.835 156.47 189.736 156.555 189.674L174.927 175.483C175.028 175.405 175.149 175.383 175.261 175.423C175.374 175.464 175.47 175.563 175.528 175.698C175.586 175.833 175.602 175.993 175.572 176.145C175.542 176.295 175.468 176.423 175.367 176.501L156.995 190.686C156.928 190.739 156.851 190.767 156.772 190.764Z" fill="black"/>
<path opacity="0.4" d="M154.475 188.592C154.38 188.59 154.288 188.547 154.212 188.469C154.137 188.391 154.083 188.282 154.058 188.16C154.032 188.036 154.038 187.906 154.073 187.787C154.108 187.669 154.171 187.569 154.252 187.503L172.63 173.318C172.729 173.244 172.846 173.224 172.956 173.264C173.065 173.303 173.159 173.399 173.216 173.529C173.27 173.664 173.283 173.82 173.252 173.966C173.222 174.112 173.15 174.237 173.052 174.314L154.68 188.506C154.617 188.555 154.547 188.585 154.475 188.592Z" fill="black"/>
<path opacity="0.4" d="M159.187 192.678C159.11 192.679 159.036 192.652 158.97 192.601C158.904 192.55 158.849 192.476 158.812 192.387C158.756 192.255 158.742 192.099 158.771 191.953C158.801 191.805 158.872 191.681 158.97 191.604L177.348 177.411C177.398 177.366 177.454 177.335 177.514 177.321C177.573 177.307 177.635 177.308 177.693 177.327C177.752 177.345 177.808 177.38 177.856 177.428C177.905 177.476 177.945 177.538 177.975 177.609C178.005 177.679 178.024 177.757 178.03 177.837C178.036 177.917 178.03 177.999 178.012 178.076C177.994 178.153 177.964 178.224 177.924 178.286C177.885 178.347 177.836 178.396 177.781 178.431L159.409 192.6C159.342 192.651 159.265 192.679 159.187 192.678Z" fill="black"/>
<path d="M159.462 210.367C155.477 207.285 148.714 207.513 144.366 210.869C140.018 214.224 139.725 219.447 143.716 222.528C147.706 225.61 154.463 225.391 158.812 222.034C163.16 218.678 163.441 213.456 159.462 210.367ZM156.749 220.435C153.643 222.835 148.814 222.999 145.966 220.795C143.118 218.592 143.323 214.859 146.429 212.461C149.535 210.061 154.364 209.905 157.218 212.108C160.072 214.311 159.855 218.036 156.749 220.435Z" fill="#F24E1E"/>
<path d="M148.491 214.06C150.355 212.617 153.256 212.491 154.967 213.84C156.678 215.188 156.549 217.4 154.686 218.843C152.822 220.286 149.921 220.411 148.24 219.054C146.558 217.698 146.628 215.495 148.491 214.06Z" fill="#F24E1E"/>
<path opacity="0.5" d="M148.491 214.06C150.355 212.617 153.256 212.491 154.967 213.84C156.678 215.188 156.549 217.4 154.686 218.843C152.822 220.286 149.921 220.411 148.24 219.054C146.558 217.698 146.628 215.495 148.491 214.06Z" fill="black"/>
<path opacity="0.15" d="M159.462 210.367C155.477 207.285 148.714 207.513 144.366 210.869C140.018 214.224 139.725 219.447 143.716 222.528C147.706 225.61 154.463 225.391 158.812 222.034C163.16 218.678 163.441 213.456 159.462 210.367ZM156.749 220.435C153.643 222.835 148.814 222.999 145.966 220.795C143.118 218.592 143.323 214.859 146.429 212.461C149.535 210.061 154.364 209.905 157.218 212.108C160.072 214.311 159.855 218.036 156.749 220.435Z" fill="black"/>
<path d="M148.392 208.822L149.3 211.002C151.057 210.461 152.88 210.415 154.651 210.869L155.881 208.634C153.402 208.004 150.852 208.067 148.392 208.822Z" fill="#F24E1E"/>
<path opacity="0.7" d="M148.392 208.822L149.3 211.002C151.057 210.461 152.88 210.415 154.651 210.869L155.881 208.634C153.402 208.004 150.852 208.067 148.392 208.822Z" fill="white"/>
<path opacity="0.4" d="M152.137 207.74C152.021 207.73 151.913 207.659 151.837 207.543C151.76 207.428 151.72 207.276 151.727 207.12L151.85 204.439L159.925 198.166C160.026 198.088 160.146 198.067 160.259 198.108C160.372 198.148 160.468 198.247 160.526 198.382C160.584 198.517 160.6 198.678 160.57 198.828C160.54 198.979 160.466 199.108 160.365 199.186L152.664 205.144L152.571 207.199C152.563 207.346 152.514 207.484 152.434 207.585C152.353 207.685 152.247 207.741 152.137 207.74Z" fill="black"/>
<path d="M183.085 192.136C179.094 189.055 172.337 189.282 167.983 192.638C163.629 195.994 163.342 201.216 167.333 204.298C171.323 207.379 178.086 207.16 182.435 203.804C186.783 200.448 187.076 195.218 183.085 192.136ZM180.372 202.204C177.266 204.604 172.437 204.768 169.583 202.565C166.729 200.361 166.946 196.63 170.052 194.23C173.158 191.831 177.987 191.674 180.835 193.877C183.683 196.08 183.478 199.805 180.372 202.204Z" fill="#F24E1E"/>
<path d="M172.115 195.83C173.978 194.387 176.873 194.262 178.561 195.61C180.249 196.959 180.149 199.17 178.28 200.612C176.41 202.055 173.521 202.18 171.833 200.824C170.145 199.468 170.251 197.304 172.115 195.83Z" fill="#F24E1E"/>
<path opacity="0.5" d="M172.115 195.83C173.978 194.387 176.873 194.262 178.561 195.61C180.249 196.959 180.149 199.17 178.28 200.612C176.41 202.055 173.521 202.18 171.833 200.824C170.145 199.468 170.251 197.304 172.115 195.83Z" fill="black"/>
<path opacity="0.15" d="M183.085 192.136C179.094 189.055 172.337 189.282 167.983 192.638C163.629 195.994 163.342 201.216 167.333 204.298C171.323 207.379 178.086 207.16 182.435 203.804C186.783 200.448 187.076 195.218 183.085 192.136ZM180.372 202.204C177.266 204.604 172.437 204.768 169.583 202.565C166.729 200.361 166.946 196.63 170.052 194.23C173.158 191.831 177.987 191.674 180.835 193.877C183.683 196.08 183.478 199.805 180.372 202.204Z" fill="black"/>
<path d="M183.085 192.136C179.715 189.533 174.371 189.298 170.192 191.313L171.634 193.281C174.634 191.846 178.45 192.019 180.858 193.877C181.259 194.183 181.628 194.561 181.954 194.999L184.644 193.712C184.18 193.096 183.655 192.565 183.085 192.136Z" fill="#F24E1E"/>
<path opacity="0.7" d="M183.085 192.136C179.715 189.533 174.371 189.298 170.192 191.313L171.634 193.281C174.634 191.846 178.45 192.019 180.858 193.877C181.259 194.183 181.628 194.561 181.954 194.999L184.644 193.712C184.18 193.096 183.655 192.565 183.085 192.136Z" fill="white"/>
<path opacity="0.4" d="M175.824 189.463H175.795C175.679 189.453 175.571 189.382 175.494 189.266C175.418 189.15 175.378 188.997 175.384 188.843L175.508 186.154L183.583 179.92C183.682 179.86 183.794 179.851 183.898 179.896C184.002 179.94 184.089 180.034 184.144 180.161C184.199 180.286 184.217 180.434 184.194 180.577C184.172 180.72 184.111 180.845 184.023 180.931L176.334 186.844L176.24 188.906C176.236 189.052 176.191 189.19 176.113 189.293C176.036 189.397 175.933 189.457 175.824 189.463Z" fill="black"/>
<path opacity="0.4" d="M154.651 229.687C154.554 229.688 154.459 229.646 154.382 229.568C154.305 229.489 154.249 229.378 154.223 229.253C154.198 229.128 154.204 228.995 154.241 228.874C154.278 228.755 154.344 228.654 154.428 228.59L199.037 194.168C199.137 194.091 199.256 194.07 199.368 194.11C199.423 194.13 199.475 194.165 199.52 194.211C199.565 194.259 199.603 194.317 199.632 194.383C199.66 194.449 199.679 194.522 199.686 194.598C199.693 194.675 199.689 194.752 199.674 194.826C199.659 194.9 199.634 194.969 199.599 195.029C199.564 195.089 199.52 195.141 199.47 195.178L154.844 229.608C154.785 229.652 154.719 229.678 154.651 229.687Z" fill="black"/>
<path opacity="0.4" d="M157.036 231.538C156.941 231.534 156.85 231.489 156.775 231.411C156.701 231.332 156.648 231.224 156.623 231.101C156.599 230.979 156.605 230.848 156.64 230.731C156.675 230.613 156.738 230.513 156.819 230.447L201.445 195.994C201.495 195.946 201.552 195.911 201.612 195.895C201.672 195.877 201.734 195.877 201.794 195.895C201.854 195.911 201.911 195.945 201.961 195.993C202.011 196.041 202.053 196.103 202.084 196.174C202.115 196.245 202.134 196.324 202.141 196.406C202.147 196.487 202.141 196.57 202.122 196.649C202.103 196.728 202.073 196.8 202.032 196.861C201.991 196.922 201.941 196.972 201.885 197.005L157.259 231.459C157.191 231.511 157.114 231.538 157.036 231.538Z" fill="black"/>
<path opacity="0.4" d="M159.445 233.373C159.368 233.371 159.293 233.342 159.228 233.29C159.162 233.237 159.107 233.163 159.07 233.074C159.014 232.942 159 232.786 159.029 232.639C159.059 232.492 159.13 232.367 159.228 232.291L203.877 197.852C203.978 197.776 204.097 197.755 204.208 197.796C204.32 197.836 204.415 197.934 204.472 198.068C204.53 198.202 204.545 198.362 204.515 198.511C204.485 198.66 204.411 198.787 204.311 198.864L159.685 233.325C159.609 233.367 159.526 233.383 159.445 233.373Z" fill="black"/>
</g>
</svg>
