<svg width="30" height="30" viewBox="0 0 30 30" fill="none" xmlns="http://www.w3.org/2000/svg">
<path d="M8.5 11H10.5V17H8.5V11Z" fill="#B5B8BC"/>
<path d="M14 11H16V17H14V11Z" fill="#B5B8BC"/>
<path d="M19.5 11H21.5V17H19.5V11Z" fill="#B5B8BC"/>
<path d="M11 19V17C11 16.8674 10.9473 16.7402 10.8536 16.6464C10.7598 16.5527 10.6326 16.5 10.5 16.5H8.5C8.36739 16.5 8.24021 16.5527 8.14645 16.6464C8.05268 16.7402 8 16.8674 8 17V19H11Z" fill="#A2A6AA"/>
<path d="M16.5 19V17C16.5 16.8674 16.4473 16.7402 16.3536 16.6464C16.2598 16.5527 16.1326 16.5 16 16.5H14C13.8674 16.5 13.7402 16.5527 13.6464 16.6464C13.5527 16.7402 13.5 16.8674 13.5 17V19H16.5Z" fill="#A2A6AA"/>
<path d="M22 19V17C22 16.8674 21.9473 16.7402 21.8536 16.6464C21.7598 16.5527 21.6326 16.5 21.5 16.5H19.5C19.3674 16.5 19.2402 16.5527 19.1464 16.6464C19.0527 16.7402 19 16.8674 19 17V19H22Z" fill="#A2A6AA"/>
<path d="M29.5 15.0001C29.5016 12.2192 28.703 9.49664 27.1996 7.1572C25.6961 4.81777 23.5514 2.96029 21.0212 1.80642C18.491 0.652552 15.6823 0.251022 12.9301 0.649747C10.178 1.04847 7.59868 2.23061 5.5 4.0551V3.0051C5.5 2.73988 5.39464 2.48553 5.20711 2.29799C5.01957 2.11046 4.76522 2.0051 4.5 2.0051C4.23478 2.0051 3.98043 2.11046 3.79289 2.29799C3.60536 2.48553 3.5 2.73988 3.5 3.0051V6.5001C3.50079 6.76507 3.6064 7.01897 3.79377 7.20633C3.98113 7.3937 4.23503 7.49931 4.5 7.5001H8C8.26522 7.5001 8.51957 7.39474 8.70711 7.20721C8.89464 7.01967 9 6.76532 9 6.5001C9 6.23488 8.89464 5.98053 8.70711 5.79299C8.51957 5.60546 8.26522 5.5001 8 5.5001H6.88C8.95662 3.72763 11.5563 2.6836 14.2821 2.52746C17.0078 2.37133 19.7097 3.11168 21.9751 4.63544C24.2406 6.15919 25.945 8.38259 26.828 10.966C27.7111 13.5495 27.7242 16.351 26.8655 18.9426C26.8224 19.0691 26.8051 19.2029 26.8146 19.3362C26.8241 19.4695 26.8602 19.5995 26.9208 19.7186C26.9814 19.8377 27.0652 19.9434 27.1674 20.0295C27.2695 20.1157 27.3879 20.1805 27.5155 20.2201C27.7664 20.2978 28.0378 20.2741 28.2714 20.1541C28.5051 20.0341 28.6825 19.8273 28.7655 19.5781C29.2546 18.1014 29.5026 16.5556 29.5 15.0001Z" fill="#50AD80"/>
<path d="M0.50002 15C0.498468 17.7809 1.29705 20.5035 2.80047 22.8429C4.30389 25.1824 6.44866 27.0398 8.97884 28.1937C11.509 29.3476 14.3178 29.7491 17.0699 29.3504C19.822 28.9517 22.4013 27.7695 24.5 25.945V26.995C24.5 27.2602 24.6054 27.5146 24.7929 27.7021C24.9804 27.8897 25.2348 27.995 25.5 27.995C25.7652 27.995 26.0196 27.8897 26.2071 27.7021C26.3947 27.5146 26.5 27.2602 26.5 26.995V23.5C26.4992 23.2351 26.3936 22.9812 26.2063 22.7938C26.0189 22.6064 25.765 22.5008 25.5 22.5H22C21.7348 22.5 21.4804 22.6054 21.2929 22.7929C21.1054 22.9805 21 23.2348 21 23.5C21 23.7652 21.1054 24.0196 21.2929 24.2071C21.4804 24.3947 21.7348 24.5 22 24.5H23.12C21.0434 26.2725 18.4437 27.3165 15.718 27.4727C12.9922 27.6288 10.2903 26.8884 8.02489 25.3647C5.75946 23.8409 4.05506 21.6175 3.172 19.0341C2.28895 16.4506 2.27578 13.6492 3.13452 11.0575C3.17761 10.9311 3.19492 10.7972 3.18542 10.6639C3.17592 10.5307 3.13981 10.4006 3.07921 10.2816C3.01862 10.1625 2.93478 10.0567 2.83264 9.97059C2.73049 9.88445 2.61212 9.81965 2.48452 9.78003C2.2336 9.70236 1.96223 9.72606 1.72857 9.84607C1.49492 9.96608 1.31757 10.1728 1.23452 10.422C0.745418 11.8987 0.497407 13.4445 0.50002 15Z" fill="#50AD80"/>
<path d="M21.5 11.4999H8.5C8.36739 11.4999 8.24021 11.4472 8.14645 11.3534C8.05268 11.2597 8 11.1325 8 10.9999V9.92438C8.00009 9.84705 8.0236 9.77155 8.06742 9.70783C8.11124 9.64411 8.17332 9.59515 8.2455 9.56738L14.859 7.02588C14.9498 6.99137 15.0502 6.99137 15.141 7.02588L21.75 9.56638C21.8234 9.59408 21.8866 9.64345 21.9312 9.70793C21.9759 9.77241 21.9999 9.84895 22 9.92738V10.9999C22 11.1325 21.9473 11.2597 21.8536 11.3534C21.7598 11.4472 21.6326 11.4999 21.5 11.4999Z" fill="#D5D8DB"/>
<path d="M22 18.5H8C7.72386 18.5 7.5 18.7239 7.5 19V20C7.5 20.2761 7.72386 20.5 8 20.5H22C22.2761 20.5 22.5 20.2761 22.5 20V19C22.5 18.7239 22.2761 18.5 22 18.5Z" fill="#D5D8DB"/>
<path d="M15.5 10H14.5C14.3674 10 14.2402 9.94732 14.1464 9.85355C14.0527 9.75979 14 9.63261 14 9.5C14 9.36739 14.0527 9.24021 14.1464 9.14645C14.2402 9.05268 14.3674 9 14.5 9H15.5C15.6326 9 15.7598 9.05268 15.8536 9.14645C15.9473 9.24021 16 9.36739 16 9.5C16 9.63261 15.9473 9.75979 15.8536 9.85355C15.7598 9.94732 15.6326 10 15.5 10Z" fill="#B5B8BC"/>
</svg>
