<svg width="40" height="40" viewBox="0 0 40 40" fill="none" xmlns="http://www.w3.org/2000/svg">
<path d="M36.875 1.875H19.375C18.6846 1.875 18.125 2.43464 18.125 3.125V14.375C18.125 15.0654 18.6846 15.625 19.375 15.625H36.875C37.5654 15.625 38.125 15.0654 38.125 14.375V3.125C38.125 2.43464 37.5654 1.875 36.875 1.875Z" fill="#FF9811"/>
<path d="M25.625 15.625H36.875C37.2062 15.624 37.5236 15.492 37.7578 15.2578C37.992 15.0236 38.124 14.7062 38.125 14.375V3.125C38.1153 6.43721 36.7952 9.61099 34.4531 11.9531C32.111 14.2952 28.9372 15.6153 25.625 15.625Z" fill="#EE8700"/>
<path d="M34.375 4.375H16.875C16.1846 4.375 15.625 4.93464 15.625 5.625V16.875C15.625 17.5654 16.1846 18.125 16.875 18.125H34.375C35.0654 18.125 35.625 17.5654 35.625 16.875V5.625C35.625 4.93464 35.0654 4.375 34.375 4.375Z" fill="#ED1C24"/>
<path d="M23.125 18.125H34.375C34.7062 18.124 35.0236 17.992 35.2578 17.7578C35.492 17.5236 35.624 17.2062 35.625 16.875V5.625C35.6153 8.93721 34.2952 12.111 31.9531 14.4531C29.611 16.7952 26.4372 18.1153 23.125 18.125Z" fill="#D80027"/>
<path d="M20.625 6.875H19.375C19.0435 6.875 18.7255 7.0067 18.4911 7.24112C18.2567 7.47554 18.125 7.79348 18.125 8.125V9.375C18.125 9.70652 18.2567 10.0245 18.4911 10.2589C18.7255 10.4933 19.0435 10.625 19.375 10.625H20.625V6.875Z" fill="#FF9811"/>
<path d="M23.125 8.75V8.125C23.125 7.79348 22.9933 7.47554 22.7589 7.24112C22.5245 7.0067 22.2065 6.875 21.875 6.875H20.625V8.75H23.125Z" fill="#FFA733"/>
<path d="M23.125 8.75H20.625V10.625H21.875C22.2065 10.625 22.5245 10.4933 22.7589 10.2589C22.9933 10.0245 23.125 9.70652 23.125 9.375V8.75Z" fill="#EE8700"/>
<path d="M4.375 11.875H9.375V13.75L13.125 10.625L9.375 7.5V9.375H3.125C2.79348 9.375 2.47554 9.5067 2.24112 9.74112C2.0067 9.97554 1.875 10.2935 1.875 10.625V18.75H4.375V11.875Z" fill="#5EAC24"/>
<path d="M25.625 32.5L29.375 35.625V33.75H35.625C35.9565 33.75 36.2745 33.6183 36.5089 33.3839C36.7433 33.1495 36.875 32.8315 36.875 32.5V24.375H34.375V31.25H29.375V29.375L25.625 32.5Z" fill="#ED1C24"/>
<path d="M25.625 26.875H1.875L13.75 21.25L25.625 26.875Z" fill="#91DC5A"/>
<path d="M3.125 35.625H24.375V38.125H3.125V35.625Z" fill="#7ED63E"/>
<path d="M15 29.375H17.5V35.625H15V29.375Z" fill="#5EAC24"/>
<path d="M10 29.375H12.5V35.625H10V29.375Z" fill="#5EAC24"/>
<path d="M5 29.375H7.5V35.625H5V29.375Z" fill="#5EAC24"/>
<path d="M20 29.375H22.5V35.625H20V29.375Z" fill="#5EAC24"/>
<path d="M3.125 26.875H24.375V29.375H3.125V26.875Z" fill="#7ED63E"/>
<path d="M13.75 25.625C14.4404 25.625 15 25.0654 15 24.375C15 23.6846 14.4404 23.125 13.75 23.125C13.0596 23.125 12.5 23.6846 12.5 24.375C12.5 25.0654 13.0596 25.625 13.75 25.625Z" fill="#5EAC24"/>
<path d="M12.5 29.375H15V35.625H12.5V29.375Z" fill="#4E901E"/>
<path d="M7.5 29.375H10V35.625H7.5V29.375Z" fill="#4E901E"/>
<path d="M17.5 29.375H20V35.625H17.5V29.375Z" fill="#4E901E"/>
<path d="M3.125 26.875H24.375V27.5H3.125V26.875Z" fill="#5EAC24"/>
<path d="M28.125 13.75H26.875C26.7092 13.75 26.5503 13.8158 26.4331 13.9331C26.3158 14.0503 26.25 14.2092 26.25 14.375C26.25 14.5408 26.3158 14.6997 26.4331 14.8169C26.5503 14.9342 26.7092 15 26.875 15H28.125C28.2908 15 28.4497 14.9342 28.5669 14.8169C28.6842 14.6997 28.75 14.5408 28.75 14.375C28.75 14.2092 28.6842 14.0503 28.5669 13.9331C28.4497 13.8158 28.2908 13.75 28.125 13.75Z" fill="#F1F2F2"/>
<path d="M31.875 13.75H30.625C30.4592 13.75 30.3003 13.8158 30.1831 13.9331C30.0658 14.0503 30 14.2092 30 14.375C30 14.5408 30.0658 14.6997 30.1831 14.8169C30.3003 14.9342 30.4592 15 30.625 15H31.875C32.0408 15 32.1997 14.9342 32.3169 14.8169C32.4342 14.6997 32.5 14.5408 32.5 14.375C32.5 14.2092 32.4342 14.0503 32.3169 13.9331C32.1997 13.8158 32.0408 13.75 31.875 13.75Z" fill="#F1F2F2"/>
<path d="M24.375 13.75H23.125C22.9592 13.75 22.8003 13.8158 22.6831 13.9331C22.5658 14.0503 22.5 14.2092 22.5 14.375C22.5 14.5408 22.5658 14.6997 22.6831 14.8169C22.8003 14.9342 22.9592 15 23.125 15H24.375C24.5408 15 24.6997 14.9342 24.8169 14.8169C24.9342 14.6997 25 14.5408 25 14.375C25 14.2092 24.9342 14.0503 24.8169 13.9331C24.6997 13.8158 24.5408 13.75 24.375 13.75Z" fill="#F1F2F2"/>
<path d="M20.625 13.75H19.375C19.2092 13.75 19.0503 13.8158 18.9331 13.9331C18.8158 14.0503 18.75 14.2092 18.75 14.375C18.75 14.5408 18.8158 14.6997 18.9331 14.8169C19.0503 14.9342 19.2092 15 19.375 15H20.625C20.7908 15 20.9497 14.9342 21.0669 14.8169C21.1842 14.6997 21.25 14.5408 21.25 14.375C21.25 14.2092 21.1842 14.0503 21.0669 13.9331C20.9497 13.8158 20.7908 13.75 20.625 13.75Z" fill="#F1F2F2"/>
<path d="M26.25 8.125C26.25 7.95924 26.1842 7.80027 26.0669 7.68306C25.9497 7.56585 25.7908 7.5 25.625 7.5C25.4592 7.5 25.3003 7.56585 25.1831 7.68306C25.0658 7.80027 25 7.95924 25 8.125V9.375C25 9.54076 25.0658 9.69973 25.1831 9.81694C25.3003 9.93415 25.4592 10 25.625 10C25.7908 10 25.9497 9.93415 26.0669 9.81694C26.1842 9.69973 26.25 9.54076 26.25 9.375V8.125Z" fill="#F1F2F2"/>
<path d="M28.125 7.5C27.9592 7.5 27.8003 7.56585 27.6831 7.68306C27.5658 7.80027 27.5 7.95924 27.5 8.125V9.375C27.5 9.54076 27.5658 9.69973 27.6831 9.81694C27.8003 9.93415 27.9592 10 28.125 10C28.2908 10 28.4497 9.93415 28.5669 9.81694C28.6842 9.69973 28.75 9.54076 28.75 9.375V8.125C28.75 7.95924 28.6842 7.80027 28.5669 7.68306C28.4497 7.56585 28.2908 7.5 28.125 7.5Z" fill="#F1F2F2"/>
<path d="M30.625 10C30.7908 10 30.9497 9.93415 31.0669 9.81694C31.1842 9.69973 31.25 9.54076 31.25 9.375V8.125C31.25 7.95924 31.1842 7.80027 31.0669 7.68306C30.9497 7.56585 30.7908 7.5 30.625 7.5C30.4592 7.5 30.3003 7.56585 30.1831 7.68306C30.0658 7.80027 30 7.95924 30 8.125V9.375C30 9.54076 30.0658 9.69973 30.1831 9.81694C30.3003 9.93415 30.4592 10 30.625 10Z" fill="#F1F2F2"/>
<path d="M33.125 7.5C32.9592 7.5 32.8003 7.56585 32.6831 7.68306C32.5658 7.80027 32.5 7.95924 32.5 8.125V9.375C32.5 9.54076 32.5658 9.69973 32.6831 9.81694C32.8003 9.93415 32.9592 10 33.125 10C33.2908 10 33.4497 9.93415 33.5669 9.81694C33.6842 9.69973 33.75 9.54076 33.75 9.375V8.125C33.75 7.95924 33.6842 7.80027 33.5669 7.68306C33.4497 7.56585 33.2908 7.5 33.125 7.5Z" fill="#F1F2F2"/>
</svg>
