<svg width="28" height="29" viewBox="0 0 28 29" fill="none" xmlns="http://www.w3.org/2000/svg">
<path d="M21.9688 1.40625C22.3417 1.40625 22.6994 1.55441 22.9631 1.81813C23.2268 2.08185 23.375 2.43954 23.375 2.8125C23.375 3.18546 23.2268 3.54315 22.9631 3.80687C22.6994 4.07059 22.3417 4.21875 21.9688 4.21875H6.96875C6.59579 4.21875 6.2381 4.07059 5.97438 3.80687C5.71066 3.54315 5.5625 3.18546 5.5625 2.8125C5.5625 2.43954 5.71066 2.08185 5.97438 1.81813C6.2381 1.55441 6.59579 1.40625 6.96875 1.40625H21.9688Z" fill="#898890"/>
<path d="M12.5938 17.3438H8.375V13.125C9.49388 13.125 10.5669 13.5695 11.3581 14.3606C12.1493 15.1518 12.5938 16.2249 12.5938 17.3438Z" fill="#00B39D"/>
<path d="M20.5625 13.125V17.3438H16.3438C16.3438 16.2249 16.7882 15.1518 17.5794 14.3606C18.3706 13.5695 19.4436 13.125 20.5625 13.125Z" fill="#00B39D"/>
<path d="M20.5625 1.40625V13.125C19.4436 13.125 18.3706 13.5695 17.5794 14.3606C16.7882 15.1518 16.3438 16.2249 16.3438 17.3438H12.5938C12.5938 16.2249 12.1493 15.1518 11.3581 14.3606C10.5669 13.5695 9.49388 13.125 8.375 13.125V1.40625H20.5625Z" fill="#00CCB3"/>
<path d="M13.5312 24.8438V28.5938H5.09375V24.8438H6.03125H12.5938H13.5312Z" fill="#3D9AE2"/>
<path d="M10.2501 17.3438V13.5938C10.2501 13.2209 10.3983 12.8632 10.662 12.5995C10.9257 12.3358 11.2834 12.1876 11.6564 12.1876C12.0293 12.1876 12.387 12.3358 12.6507 12.5995C12.9144 12.8632 13.0626 13.2209 13.0626 13.5938V16.8751L13.2501 17.3438L13.6626 18.3798C13.8869 18.9337 14.0015 19.5259 14.0001 20.1235V20.7329C14.0005 21.5836 13.7687 22.4183 13.3298 23.147L12.5939 24.3751V24.8438H6.03135V22.9688L5.36573 16.9782C5.18836 15.3882 5.52514 13.7832 6.32666 12.3985L8.3751 8.8501V17.3438H10.2501Z" fill="#FFC477"/>
<path d="M5.5625 9.84375L3.21875 12.6562L0.875 9.84375H2.28125V0.9375H4.15625V9.84375H5.5625Z" fill="#FFA733"/>
<path d="M27.125 16.4062L24.7812 19.2188L22.4375 16.4062H23.8438V7.5H25.7188V16.4062H27.125Z" fill="#FFA733"/>
<path d="M14.4688 8.90625C16.0221 8.90625 17.2812 7.64705 17.2812 6.09375C17.2812 4.54045 16.0221 3.28125 14.4688 3.28125C12.9154 3.28125 11.6562 4.54045 11.6562 6.09375C11.6562 7.64705 12.9154 8.90625 14.4688 8.90625Z" fill="#FFD422"/>
<path d="M8.375 1.40625H20.5625V2.34375H8.375V1.40625Z" fill="#00B39D"/>
<path d="M10.25 17.8125C10.25 17.5536 10.0401 17.3438 9.78125 17.3438C9.52237 17.3438 9.3125 17.5536 9.3125 17.8125V18.2812C9.3125 18.5401 9.52237 18.75 9.78125 18.75C10.0401 18.75 10.25 18.5401 10.25 18.2812V17.8125Z" fill="#FFB655"/>
</svg>
