<svg width="130" height="141" viewBox="0 0 130 141" fill="none" xmlns="http://www.w3.org/2000/svg">
<path fill-rule="evenodd" clip-rule="evenodd" d="M84.3727 76.2263C84.3938 75.6708 84.0258 75.1786 83.4868 75.0427C82.9501 74.9067 82.3923 75.1669 82.1485 75.6661C78.2508 83.6653 70.4696 90.3052 64.5329 93.2747C64.0383 93.5231 63.7852 94.0809 63.9235 94.6153C64.0594 95.1497 64.5516 95.5153 65.1048 95.4942C67.8352 95.3864 71.4329 95.5716 75.6446 96.5536C76.2727 96.6989 76.9008 96.3098 77.0508 95.6817C78.2602 90.57 81.7594 88.8028 84.5485 88.1747C84.8508 88.1067 85.1157 87.9192 85.2821 87.6544C85.4485 87.3895 85.5024 87.0684 85.4297 86.7661C84.4501 82.5544 84.2649 78.9591 84.3727 76.2263Z" fill="#F24E1E"/>
<path fill-rule="evenodd" clip-rule="evenodd" d="M28.2001 31.613C26.058 32.6232 21.9798 36.1997 19.7416 40.074C17.5666 43.8404 16.4205 48.1763 16.4158 51.1294C16.4158 51.7763 16.9384 52.3036 17.5853 52.3036C18.2322 52.3036 18.7595 51.781 18.7595 51.1341C18.7642 48.488 19.8236 44.6185 21.7712 41.2458C23.747 37.824 27.3072 34.6247 29.1986 33.7341C29.7845 33.4576 30.0353 32.7591 29.7587 32.1755C29.4845 31.5896 28.7861 31.3388 28.2001 31.613Z" fill="#FD805C" fill-opacity="0.5"/>
<path fill-rule="evenodd" clip-rule="evenodd" d="M19.9805 31.1025C33.7008 17.3822 55.9782 17.3822 69.6985 31.1025C83.4188 44.8229 83.4188 67.1002 69.6985 80.8205C55.9782 94.5408 33.7008 94.5408 19.9805 80.8205C8.73288 69.5728 6.70553 52.576 13.8985 39.2541C14.2055 38.6869 13.9923 37.9744 13.4227 37.6674C12.8555 37.3603 12.143 37.5713 11.836 38.1408C4.16256 52.3486 6.32585 70.4799 18.3235 82.4775C32.9579 97.1119 56.7212 97.1119 71.3555 82.4775C85.9899 67.8432 85.9899 44.0799 71.3555 29.4455C56.7212 14.8111 32.9579 14.8111 18.3235 29.4455C17.8665 29.9025 17.8665 30.6455 18.3235 31.1025C18.7805 31.5596 19.5235 31.5596 19.9805 31.1025Z" fill="#FD805C" fill-opacity="0.5"/>
<path fill-rule="evenodd" clip-rule="evenodd" d="M85.6782 66.5467C83.8595 73.599 80.1892 80.274 74.6696 85.7912C58.2071 102.256 31.472 102.256 15.0095 85.7912C-1.45537 69.3287 -1.45537 42.5936 15.0095 26.1311C31.472 9.66621 58.2071 9.66621 74.6696 26.1311C83.1845 34.6436 87.2954 45.9029 87.0048 57.0686C86.986 57.7154 87.4993 58.2545 88.1439 58.2709C88.7907 58.2873 89.3298 57.7764 89.3462 57.1295C89.6532 45.3428 85.3149 33.46 76.3267 24.4717C58.9478 7.09277 30.729 7.09277 13.3501 24.4717C-4.02881 41.8506 -4.02881 70.0717 13.3501 87.4506C30.729 104.829 58.9478 104.829 76.3267 87.4506C82.1532 81.624 86.0274 74.5787 87.947 67.1326C88.1087 66.5045 87.7313 65.867 87.1056 65.7053C86.4774 65.5435 85.84 65.9209 85.6782 66.5467Z" fill="#FD805C" fill-opacity="0.5"/>
<path fill-rule="evenodd" clip-rule="evenodd" d="M126.684 124.548C126.619 124.777 126.445 125.333 126.209 125.776C125.302 127.473 123.445 129.826 121.073 132.195C118.704 134.567 116.351 136.423 114.654 137.33C114.211 137.567 113.656 137.741 113.426 137.806L85.5704 109.951C85.1133 109.494 84.3704 109.494 83.9133 109.951C83.4563 110.408 83.4563 111.151 83.9133 111.608L111.959 139.653C112.451 140.148 113.454 140.387 114.818 139.843C116.679 139.098 119.707 136.878 122.731 133.855C125.756 130.829 127.976 127.801 128.719 125.94C129.265 124.576 129.023 123.573 128.531 123.08L94.5586 89.1078C89.9813 84.5305 82.561 84.5305 77.986 89.1078C77.6508 89.443 77.986 89.1078 77.986 89.1078C73.4086 93.6828 73.4086 101.103 77.986 105.68C78.443 106.137 79.186 106.137 79.643 105.68C80.1 105.223 80.1 104.48 79.643 104.023C75.9821 100.36 75.9821 94.4258 79.643 90.7648C79.4227 90.9851 79.643 90.7648 79.643 90.7648C83.304 87.1039 89.2383 87.1039 92.9016 90.7648L126.684 124.548Z" fill="#FD805C" fill-opacity="0.5"/>
<path fill-rule="evenodd" clip-rule="evenodd" d="M39.3586 48.5818C39.3047 46.3482 40.1414 44.7169 41.4375 43.7607C43.4719 42.2607 46.5094 42.324 48.1594 44.1826C48.8695 44.9818 49.2797 46.1115 49.2914 47.5412C49.3195 50.9701 47.7117 52.974 46.1367 55.0482C44.0179 57.8443 41.9015 60.7177 41.639 65.5154C41.5687 66.8091 42.5601 67.913 43.8515 67.9833C45.1453 68.0537 46.2492 67.0623 46.3195 65.7708C46.5187 62.1263 48.2625 60.0029 49.8726 57.8794C52.0289 55.0365 54.0164 52.2005 53.9789 47.5037C53.9554 44.7427 53.0344 42.6123 51.6656 41.0701C48.4664 37.4701 42.5953 37.081 38.6554 39.9873C36.2929 41.731 34.575 44.6185 34.6711 48.6919C34.7015 49.9857 35.7773 51.0099 37.0711 50.9794C38.3625 50.949 39.389 49.8755 39.3586 48.5818Z" fill="#F24E1E"/>
<path d="M43.7625 76.6885C45.3546 76.6885 46.6453 75.3978 46.6453 73.8057C46.6453 72.2135 45.3546 70.9229 43.7625 70.9229C42.1703 70.9229 40.8796 72.2135 40.8796 73.8057C40.8796 75.3978 42.1703 76.6885 43.7625 76.6885Z" fill="#F24E1E"/>
<path fill-rule="evenodd" clip-rule="evenodd" d="M86.4562 15.9147L93.4874 4.19593C94.1531 3.08734 93.7945 1.64593 92.6835 0.980307C91.5749 0.317026 90.1335 0.67562 89.4679 1.78421L82.4367 13.503C81.771 14.6139 82.132 16.0553 83.2406 16.7186C84.3515 17.3842 85.7906 17.0256 86.4562 15.9147Z" fill="#F24E1E"/>
<path fill-rule="evenodd" clip-rule="evenodd" d="M97.5444 23.6371L123.326 4.88712C124.371 4.1254 124.603 2.65821 123.844 1.6129C123.082 0.56524 121.615 0.335552 120.569 1.09493L94.7882 19.8449C93.7405 20.6066 93.5108 22.0738 94.2702 23.1191C95.0319 24.1668 96.4991 24.3965 97.5444 23.6371Z" fill="#F24E1E"/>
<path fill-rule="evenodd" clip-rule="evenodd" d="M101.421 38.0774L120.171 33.3899C121.427 33.0758 122.192 31.8032 121.877 30.5469C121.563 29.293 120.291 28.5289 119.034 28.843L100.284 33.5305C99.0306 33.8446 98.2665 35.1172 98.5806 36.3735C98.8946 37.6274 100.167 38.3914 101.421 38.0774Z" fill="#F24E1E"/>
</svg>
