<svg width="193" height="90" viewBox="0 0 193 90" fill="none" xmlns="http://www.w3.org/2000/svg">
<g filter="url(#filter0_d_7661_12789)">
<g clip-path="url(#clip0_7661_12789)">
<path d="M38.4938 53.401C37.8629 52.9813 37.3037 52.4626 36.8378 51.865C36.3253 51.2482 35.8504 50.601 35.4158 49.927C34.3959 48.4328 33.596 46.7998 33.0408 45.078C32.3738 43.078 32.0508 41.161 32.0508 39.286C32.0508 37.192 32.5038 35.364 33.3898 33.828C34.0466 32.6275 35.0122 31.6242 36.1868 30.922C37.3251 30.215 38.633 29.8281 39.9728 29.802C40.4418 29.802 40.9468 29.87 41.4828 30C41.8678 30.109 42.3368 30.281 42.9098 30.495C43.6388 30.776 44.0398 30.948 44.1758 30.99C44.6028 31.146 44.9618 31.214 45.2438 31.214C45.4578 31.214 45.7598 31.146 46.1028 31.042C46.2958 30.974 46.6598 30.854 47.1808 30.631C47.6968 30.443 48.1028 30.282 48.4258 30.162C48.9208 30.016 49.3998 29.881 49.8268 29.813C50.333 29.7332 50.8467 29.7121 51.3578 29.75C52.2434 29.8079 53.1157 29.9956 53.9468 30.307C55.3058 30.854 56.4048 31.708 57.2228 32.922C56.877 33.1351 56.5525 33.3809 56.2538 33.656C55.6034 34.2326 55.0494 34.9095 54.6128 35.661C54.0421 36.6881 53.7462 37.8451 53.7538 39.02C53.7748 40.463 54.1448 41.734 54.8738 42.833C55.4097 43.6475 56.1063 44.3441 56.9208 44.88C57.3378 45.161 57.6968 45.354 58.0408 45.484C57.8798 45.984 57.7078 46.468 57.5048 46.948C57.0444 48.0244 56.4864 49.0564 55.8378 50.031C55.2598 50.87 54.8068 51.495 54.4628 51.911C53.9268 52.546 53.4108 53.031 52.8898 53.369C52.3168 53.749 51.6398 53.952 50.9518 53.952C50.4858 53.9699 50.02 53.9135 49.5718 53.785C49.1868 53.655 48.8058 53.514 48.4308 53.353C48.0409 53.174 47.6389 53.0226 47.2278 52.9C46.2115 52.639 45.1459 52.6373 44.1288 52.895C43.7118 53.015 43.3108 53.155 42.9148 53.327C42.3578 53.561 41.9878 53.718 41.7738 53.785C41.3468 53.91 40.9038 53.988 40.4558 54.014C39.7628 54.014 39.1168 53.816 38.4768 53.415L38.4938 53.401ZM47.6338 28.786C46.7278 29.239 45.8628 29.432 45.0038 29.369C44.8688 28.504 45.0038 27.619 45.3628 26.65C45.6684 25.8291 46.12 25.0702 46.6958 24.41C47.3038 23.715 48.0416 23.1454 48.8678 22.733C49.7478 22.28 50.5868 22.035 51.3888 21.999C51.4928 22.905 51.3888 23.796 51.0558 24.759C50.7476 25.6103 50.2968 26.403 49.7228 27.103C49.1368 27.799 48.4178 28.3708 47.6078 28.785L47.6338 28.786Z" fill="#666666"/>
</g>
<path d="M77.1332 31H75.4113L75.4227 30.1107H77.1332C77.7223 30.1107 78.2132 29.988 78.6059 29.7426C78.9986 29.4934 79.2931 29.146 79.4895 28.7004C79.6896 28.251 79.7896 27.7262 79.7896 27.1258V26.6217C79.7896 26.1497 79.733 25.7305 79.6197 25.3643C79.5064 24.9942 79.3403 24.6827 79.1213 24.4297C78.9023 24.1729 78.6342 23.9785 78.317 23.8463C78.0036 23.7141 77.643 23.648 77.2352 23.648H75.3773V22.7531H77.2352C77.7751 22.7531 78.2679 22.8437 78.7135 23.025C79.159 23.2025 79.5423 23.4611 79.8633 23.801C80.188 24.137 80.4372 24.5449 80.6109 25.0244C80.7846 25.5002 80.8715 26.0364 80.8715 26.633V27.1258C80.8715 27.7224 80.7846 28.2605 80.6109 28.74C80.4372 29.2158 80.1861 29.6217 79.8576 29.9578C79.5329 30.2939 79.1402 30.5525 78.6795 30.7338C78.2226 30.9113 77.7072 31 77.1332 31ZM75.9947 22.7531V31H74.9016V22.7531H75.9947ZM82.0779 28.0037V27.8734C82.0779 27.4316 82.1421 27.0219 82.2705 26.6443C82.3989 26.263 82.5839 25.9326 82.8256 25.6531C83.0673 25.3699 83.3599 25.1509 83.7035 24.9961C84.0471 24.8375 84.4323 24.7582 84.859 24.7582C85.2895 24.7582 85.6765 24.8375 86.0201 24.9961C86.3675 25.1509 86.662 25.3699 86.9037 25.6531C87.1492 25.9326 87.3361 26.263 87.4645 26.6443C87.5928 27.0219 87.657 27.4316 87.657 27.8734V28.0037C87.657 28.4455 87.5928 28.8552 87.4645 29.2328C87.3361 29.6104 87.1492 29.9408 86.9037 30.224C86.662 30.5035 86.3694 30.7225 86.0258 30.8811C85.6859 31.0359 85.3008 31.1133 84.8703 31.1133C84.4398 31.1133 84.0528 31.0359 83.7092 30.8811C83.3656 30.7225 83.071 30.5035 82.8256 30.224C82.5839 29.9408 82.3989 29.6104 82.2705 29.2328C82.1421 28.8552 82.0779 28.4455 82.0779 28.0037ZM83.1258 27.8734V28.0037C83.1258 28.3096 83.1617 28.5984 83.2334 28.8703C83.3051 29.1384 83.4128 29.3763 83.5563 29.584C83.7035 29.7917 83.8867 29.9559 84.1057 30.0768C84.3247 30.1938 84.5796 30.2523 84.8703 30.2523C85.1573 30.2523 85.4084 30.1938 85.6236 30.0768C85.8426 29.9559 86.0239 29.7917 86.1674 29.584C86.3109 29.3763 86.4185 29.1384 86.4902 28.8703C86.5658 28.5984 86.6035 28.3096 86.6035 28.0037V27.8734C86.6035 27.5714 86.5658 27.2863 86.4902 27.0182C86.4185 26.7463 86.309 26.5065 86.1617 26.2988C86.0182 26.0874 85.837 25.9212 85.618 25.8004C85.4027 25.6796 85.1497 25.6191 84.859 25.6191C84.572 25.6191 84.319 25.6796 84.1 25.8004C83.8848 25.9212 83.7035 26.0874 83.5563 26.2988C83.4128 26.5065 83.3051 26.7463 83.2334 27.0182C83.1617 27.2863 83.1258 27.5714 83.1258 27.8734ZM90.0189 26.1799V31H88.9711V24.8715H89.9623L90.0189 26.1799ZM89.7697 27.7035L89.3336 27.6865C89.3374 27.2674 89.3997 26.8803 89.5205 26.5254C89.6413 26.1667 89.8113 25.8551 90.0303 25.5908C90.2493 25.3265 90.5098 25.1226 90.8119 24.9791C91.1178 24.8318 91.4557 24.7582 91.8258 24.7582C92.1279 24.7582 92.3997 24.7997 92.6414 24.8828C92.8831 24.9621 93.0889 25.0905 93.2588 25.268C93.4325 25.4454 93.5646 25.6758 93.6553 25.959C93.7459 26.2384 93.7912 26.5801 93.7912 26.9842V31H92.7377V26.9729C92.7377 26.6519 92.6905 26.3951 92.5961 26.2025C92.5017 26.0062 92.3639 25.8646 92.1826 25.7777C92.0014 25.6871 91.7786 25.6418 91.5143 25.6418C91.2537 25.6418 91.0158 25.6965 90.8006 25.8061C90.5891 25.9156 90.406 26.0666 90.2512 26.2592C90.1001 26.4518 89.9812 26.6727 89.8943 26.9219C89.8113 27.1673 89.7697 27.4279 89.7697 27.7035ZM96.9348 29.9125L98.5094 24.8715H99.2004L99.0645 25.874L97.4615 31H96.7875L96.9348 29.9125ZM95.8756 24.8715L97.218 29.9691L97.3143 31H96.6063L94.8277 24.8715H95.8756ZM100.707 29.9295L101.987 24.8715H103.029L101.251 31H100.548L100.707 29.9295ZM99.3533 24.8715L100.894 29.8275L101.07 31H100.401L98.7529 25.8627L98.617 24.8715H99.3533ZM105.244 22.3V31H104.19V22.3H105.244ZM106.649 28.0037V27.8734C106.649 27.4316 106.713 27.0219 106.841 26.6443C106.97 26.263 107.155 25.9326 107.396 25.6531C107.638 25.3699 107.931 25.1509 108.274 24.9961C108.618 24.8375 109.003 24.7582 109.43 24.7582C109.86 24.7582 110.247 24.8375 110.591 24.9961C110.938 25.1509 111.233 25.3699 111.474 25.6531C111.72 25.9326 111.907 26.263 112.035 26.6443C112.164 27.0219 112.228 27.4316 112.228 27.8734V28.0037C112.228 28.4455 112.164 28.8552 112.035 29.2328C111.907 29.6104 111.72 29.9408 111.474 30.224C111.233 30.5035 110.94 30.7225 110.596 30.8811C110.257 31.0359 109.871 31.1133 109.441 31.1133C109.011 31.1133 108.624 31.0359 108.28 30.8811C107.936 30.7225 107.642 30.5035 107.396 30.224C107.155 29.9408 106.97 29.6104 106.841 29.2328C106.713 28.8552 106.649 28.4455 106.649 28.0037ZM107.696 27.8734V28.0037C107.696 28.3096 107.732 28.5984 107.804 28.8703C107.876 29.1384 107.983 29.3763 108.127 29.584C108.274 29.7917 108.457 29.9559 108.676 30.0768C108.895 30.1938 109.15 30.2523 109.441 30.2523C109.728 30.2523 109.979 30.1938 110.194 30.0768C110.413 29.9559 110.595 29.7917 110.738 29.584C110.882 29.3763 110.989 29.1384 111.061 28.8703C111.136 28.5984 111.174 28.3096 111.174 28.0037V27.8734C111.174 27.5714 111.136 27.2863 111.061 27.0182C110.989 26.7463 110.88 26.5065 110.732 26.2988C110.589 26.0874 110.408 25.9212 110.189 25.8004C109.973 25.6796 109.72 25.6191 109.43 25.6191C109.143 25.6191 108.89 25.6796 108.671 25.8004C108.455 25.9212 108.274 26.0874 108.127 26.2988C107.983 26.5065 107.876 26.7463 107.804 27.0182C107.732 27.2863 107.696 27.5714 107.696 27.8734ZM117.155 29.9521V26.7973C117.155 26.5556 117.106 26.346 117.008 26.1686C116.914 25.9873 116.77 25.8476 116.578 25.7494C116.385 25.6512 116.147 25.6021 115.864 25.6021C115.6 25.6021 115.368 25.6475 115.167 25.7381C114.971 25.8287 114.816 25.9477 114.703 26.0949C114.593 26.2422 114.539 26.4008 114.539 26.5707H113.491C113.491 26.3517 113.547 26.1346 113.661 25.9193C113.774 25.7041 113.936 25.5096 114.148 25.3359C114.363 25.1585 114.62 25.0187 114.918 24.9168C115.22 24.8111 115.556 24.7582 115.926 24.7582C116.372 24.7582 116.765 24.8337 117.104 24.9848C117.448 25.1358 117.716 25.3643 117.909 25.6701C118.105 25.9722 118.203 26.3517 118.203 26.8086V29.6633C118.203 29.8672 118.22 30.0843 118.254 30.3146C118.292 30.545 118.347 30.7432 118.419 30.9094V31H117.325C117.273 30.8792 117.231 30.7187 117.201 30.5186C117.171 30.3146 117.155 30.1258 117.155 29.9521ZM117.337 27.2844L117.348 28.0207H116.289C115.991 28.0207 115.724 28.0452 115.49 28.0943C115.256 28.1396 115.06 28.2095 114.901 28.3039C114.743 28.3983 114.622 28.5173 114.539 28.6607C114.456 28.8005 114.414 28.9647 114.414 29.1535C114.414 29.3461 114.457 29.5217 114.544 29.6803C114.631 29.8389 114.761 29.9654 114.935 30.0598C115.113 30.1504 115.33 30.1957 115.587 30.1957C115.907 30.1957 116.191 30.1277 116.436 29.9918C116.682 29.8559 116.876 29.6897 117.02 29.4934C117.167 29.297 117.246 29.1063 117.257 28.9213L117.705 29.4254C117.678 29.584 117.607 29.7596 117.49 29.9521C117.373 30.1447 117.216 30.3298 117.02 30.5072C116.827 30.6809 116.597 30.8263 116.329 30.9434C116.064 31.0566 115.766 31.1133 115.434 31.1133C115.018 31.1133 114.654 31.0321 114.34 30.8697C114.031 30.7074 113.789 30.4902 113.615 30.2184C113.446 29.9427 113.361 29.635 113.361 29.2951C113.361 28.9666 113.425 28.6777 113.553 28.4285C113.682 28.1755 113.867 27.966 114.108 27.7998C114.35 27.6299 114.641 27.5015 114.98 27.4146C115.32 27.3278 115.7 27.2844 116.119 27.2844H117.337ZM123.714 29.8105V22.3H124.768V31H123.805L123.714 29.8105ZM119.591 28.0037V27.8848C119.591 27.4165 119.648 26.9917 119.761 26.6104C119.878 26.2252 120.042 25.8948 120.254 25.6191C120.469 25.3435 120.724 25.132 121.018 24.9848C121.317 24.8337 121.649 24.7582 122.015 24.7582C122.4 24.7582 122.736 24.8262 123.023 24.9621C123.314 25.0943 123.56 25.2887 123.76 25.5455C123.964 25.7985 124.124 26.1044 124.241 26.4631C124.358 26.8218 124.439 27.2277 124.485 27.6809V28.202C124.443 28.6513 124.362 29.0553 124.241 29.4141C124.124 29.7728 123.964 30.0786 123.76 30.3316C123.56 30.5846 123.314 30.7791 123.023 30.915C122.733 31.0472 122.393 31.1133 122.004 31.1133C121.645 31.1133 121.317 31.0359 121.018 30.8811C120.724 30.7262 120.469 30.5091 120.254 30.2297C120.042 29.9503 119.878 29.6217 119.761 29.2441C119.648 28.8628 119.591 28.4493 119.591 28.0037ZM120.645 27.8848V28.0037C120.645 28.3096 120.675 28.5965 120.735 28.8646C120.799 29.1327 120.898 29.3687 121.03 29.5727C121.162 29.7766 121.33 29.937 121.534 30.0541C121.738 30.1674 121.981 30.224 122.264 30.224C122.612 30.224 122.897 30.1504 123.12 30.0031C123.346 29.8559 123.528 29.6614 123.663 29.4197C123.799 29.1781 123.905 28.9156 123.981 28.6324V27.2674C123.935 27.0597 123.869 26.8596 123.782 26.667C123.699 26.4706 123.59 26.2969 123.454 26.1459C123.322 25.9911 123.157 25.8684 122.961 25.7777C122.769 25.6871 122.54 25.6418 122.276 25.6418C121.989 25.6418 121.741 25.7022 121.534 25.823C121.33 25.9401 121.162 26.1025 121.03 26.3102C120.898 26.5141 120.799 26.752 120.735 27.0238C120.675 27.2919 120.645 27.5789 120.645 27.8848ZM128.999 28.0037V27.8734C128.999 27.4316 129.063 27.0219 129.192 26.6443C129.32 26.263 129.505 25.9326 129.747 25.6531C129.988 25.3699 130.281 25.1509 130.625 24.9961C130.968 24.8375 131.353 24.7582 131.78 24.7582C132.211 24.7582 132.598 24.8375 132.941 24.9961C133.289 25.1509 133.583 25.3699 133.825 25.6531C134.07 25.9326 134.257 26.263 134.386 26.6443C134.514 27.0219 134.578 27.4316 134.578 27.8734V28.0037C134.578 28.4455 134.514 28.8552 134.386 29.2328C134.257 29.6104 134.07 29.9408 133.825 30.224C133.583 30.5035 133.29 30.7225 132.947 30.8811C132.607 31.0359 132.222 31.1133 131.791 31.1133C131.361 31.1133 130.974 31.0359 130.63 30.8811C130.287 30.7225 129.992 30.5035 129.747 30.224C129.505 29.9408 129.32 29.6104 129.192 29.2328C129.063 28.8552 128.999 28.4455 128.999 28.0037ZM130.047 27.8734V28.0037C130.047 28.3096 130.083 28.5984 130.154 28.8703C130.226 29.1384 130.334 29.3763 130.477 29.584C130.625 29.7917 130.808 29.9559 131.027 30.0768C131.246 30.1938 131.501 30.2523 131.791 30.2523C132.078 30.2523 132.329 30.1938 132.545 30.0768C132.764 29.9559 132.945 29.7917 133.088 29.584C133.232 29.3763 133.34 29.1384 133.411 28.8703C133.487 28.5984 133.525 28.3096 133.525 28.0037V27.8734C133.525 27.5714 133.487 27.2863 133.411 27.0182C133.34 26.7463 133.23 26.5065 133.083 26.2988C132.939 26.0874 132.758 25.9212 132.539 25.8004C132.324 25.6796 132.071 25.6191 131.78 25.6191C131.493 25.6191 131.24 25.6796 131.021 25.8004C130.806 25.9212 130.625 26.0874 130.477 26.2988C130.334 26.5065 130.226 26.7463 130.154 27.0182C130.083 27.2863 130.047 27.5714 130.047 27.8734ZM136.94 26.1799V31H135.892V24.8715H136.883L136.94 26.1799ZM136.691 27.7035L136.255 27.6865C136.258 27.2674 136.321 26.8803 136.442 26.5254C136.562 26.1667 136.732 25.8551 136.951 25.5908C137.17 25.3265 137.431 25.1226 137.733 24.9791C138.039 24.8318 138.377 24.7582 138.747 24.7582C139.049 24.7582 139.321 24.7997 139.563 24.8828C139.804 24.9621 140.01 25.0905 140.18 25.268C140.354 25.4454 140.486 25.6758 140.576 25.959C140.667 26.2384 140.712 26.5801 140.712 26.9842V31H139.659V26.9729C139.659 26.6519 139.612 26.3951 139.517 26.2025C139.423 26.0062 139.285 25.8646 139.104 25.7777C138.922 25.6871 138.7 25.6418 138.435 25.6418C138.175 25.6418 137.937 25.6965 137.722 25.8061C137.51 25.9156 137.327 26.0666 137.172 26.2592C137.021 26.4518 136.902 26.6727 136.815 26.9219C136.732 27.1673 136.691 27.4279 136.691 27.7035ZM147.747 24.8715V25.6758H144.434V24.8715H147.747ZM145.555 23.3818H146.603V29.482C146.603 29.6897 146.635 29.8464 146.699 29.9521C146.763 30.0579 146.846 30.1277 146.948 30.1617C147.05 30.1957 147.16 30.2127 147.277 30.2127C147.364 30.2127 147.454 30.2051 147.549 30.19C147.647 30.1712 147.721 30.1561 147.77 30.1447L147.775 31C147.692 31.0264 147.583 31.051 147.447 31.0736C147.315 31.1001 147.154 31.1133 146.965 31.1133C146.709 31.1133 146.473 31.0623 146.257 30.9604C146.042 30.8584 145.87 30.6885 145.742 30.4506C145.617 30.2089 145.555 29.8842 145.555 29.4764V23.3818ZM150.024 22.3V31H148.976V22.3H150.024ZM149.775 27.7035L149.339 27.6865C149.342 27.2674 149.405 26.8803 149.526 26.5254C149.646 26.1667 149.816 25.8551 150.035 25.5908C150.254 25.3265 150.515 25.1226 150.817 24.9791C151.123 24.8318 151.461 24.7582 151.831 24.7582C152.133 24.7582 152.405 24.7997 152.646 24.8828C152.888 24.9621 153.094 25.0905 153.264 25.268C153.438 25.4454 153.57 25.6758 153.66 25.959C153.751 26.2384 153.796 26.5801 153.796 26.9842V31H152.743V26.9729C152.743 26.6519 152.696 26.3951 152.601 26.2025C152.507 26.0062 152.369 25.8646 152.188 25.7777C152.006 25.6871 151.784 25.6418 151.519 25.6418C151.259 25.6418 151.021 25.6965 150.806 25.8061C150.594 25.9156 150.411 26.0666 150.256 26.2592C150.105 26.4518 149.986 26.6727 149.899 26.9219C149.816 27.1673 149.775 27.4279 149.775 27.7035ZM157.908 31.1133C157.482 31.1133 157.095 31.0415 156.747 30.898C156.404 30.7508 156.107 30.545 155.858 30.2807C155.613 30.0163 155.424 29.7029 155.292 29.3404C155.159 28.9779 155.093 28.5814 155.093 28.151V27.9131C155.093 27.4146 155.167 26.971 155.314 26.582C155.462 26.1893 155.662 25.857 155.915 25.5852C156.168 25.3133 156.455 25.1075 156.776 24.9678C157.097 24.8281 157.429 24.7582 157.772 24.7582C158.21 24.7582 158.588 24.8337 158.905 24.9848C159.226 25.1358 159.489 25.3473 159.693 25.6191C159.896 25.8872 160.048 26.2044 160.146 26.5707C160.244 26.9332 160.293 27.3297 160.293 27.7602V28.2303H155.716V27.375H159.245V27.2957C159.23 27.0238 159.173 26.7595 159.075 26.5027C158.981 26.246 158.83 26.0345 158.622 25.8684C158.414 25.7022 158.131 25.6191 157.772 25.6191C157.535 25.6191 157.316 25.6701 157.115 25.7721C156.915 25.8702 156.743 26.0175 156.6 26.2139C156.457 26.4102 156.345 26.65 156.266 26.9332C156.187 27.2164 156.147 27.543 156.147 27.9131V28.151C156.147 28.4417 156.187 28.7155 156.266 28.9723C156.349 29.2253 156.468 29.448 156.623 29.6406C156.781 29.8332 156.972 29.9842 157.195 30.0937C157.421 30.2033 157.678 30.258 157.965 30.258C158.335 30.258 158.649 30.1825 158.905 30.0314C159.162 29.8804 159.387 29.6784 159.579 29.4254L160.214 29.9295C160.082 30.1296 159.913 30.3203 159.71 30.5016C159.506 30.6828 159.255 30.8301 158.956 30.9434C158.662 31.0566 158.312 31.1133 157.908 31.1133ZM79.585 41.5703L76.4912 51H73.999L78.2256 39.625H79.8115L79.585 41.5703ZM82.1553 51L79.0537 41.5703L78.8037 39.625H80.4053L84.6553 51H82.1553ZM82.0146 46.7656V48.6016H76.0068V46.7656H82.0146ZM87.5693 44.1719V54.25H85.3193V42.5469H87.4053L87.5693 44.1719ZM92.9209 46.6797V46.8438C92.9209 47.4583 92.848 48.0286 92.7021 48.5547C92.5615 49.0807 92.3532 49.5391 92.0771 49.9297C91.8011 50.3151 91.4574 50.6172 91.0459 50.8359C90.6396 51.0495 90.1709 51.1562 89.6396 51.1562C89.124 51.1562 88.6761 51.0521 88.2959 50.8438C87.9157 50.6354 87.5954 50.3438 87.335 49.9688C87.0798 49.5885 86.874 49.1484 86.7178 48.6484C86.5615 48.1484 86.4417 47.612 86.3584 47.0391V46.6094C86.4417 45.9948 86.5615 45.4323 86.7178 44.9219C86.874 44.4062 87.0798 43.9609 87.335 43.5859C87.5954 43.2057 87.9131 42.9115 88.2881 42.7031C88.6683 42.4948 89.1136 42.3906 89.624 42.3906C90.1605 42.3906 90.6318 42.4922 91.0381 42.6953C91.4495 42.8984 91.7933 43.1901 92.0693 43.5703C92.3506 43.9505 92.5615 44.4036 92.7021 44.9297C92.848 45.4557 92.9209 46.0391 92.9209 46.6797ZM90.6631 46.8438V46.6797C90.6631 46.3203 90.6318 45.9896 90.5693 45.6875C90.512 45.3802 90.4183 45.112 90.2881 44.8828C90.1631 44.6536 89.9964 44.4766 89.7881 44.3516C89.585 44.2214 89.3376 44.1562 89.0459 44.1562C88.7386 44.1562 88.4756 44.2057 88.2568 44.3047C88.0433 44.4036 87.8688 44.5469 87.7334 44.7344C87.598 44.9219 87.4964 45.1458 87.4287 45.4062C87.361 45.6667 87.3193 45.9609 87.3037 46.2891V47.375C87.3298 47.7604 87.4027 48.1068 87.5225 48.4141C87.6423 48.7161 87.8271 48.9557 88.0771 49.1328C88.3271 49.3099 88.6553 49.3984 89.0615 49.3984C89.3584 49.3984 89.6084 49.3333 89.8115 49.2031C90.0146 49.0677 90.1787 48.8828 90.3037 48.6484C90.4339 48.4141 90.5251 48.1432 90.5771 47.8359C90.6344 47.5286 90.6631 47.1979 90.6631 46.8438ZM96.5693 44.1719V54.25H94.3193V42.5469H96.4053L96.5693 44.1719ZM101.921 46.6797V46.8438C101.921 47.4583 101.848 48.0286 101.702 48.5547C101.562 49.0807 101.353 49.5391 101.077 49.9297C100.801 50.3151 100.457 50.6172 100.046 50.8359C99.6396 51.0495 99.1709 51.1562 98.6396 51.1562C98.124 51.1562 97.6761 51.0521 97.2959 50.8438C96.9157 50.6354 96.5954 50.3438 96.335 49.9688C96.0798 49.5885 95.874 49.1484 95.7178 48.6484C95.5615 48.1484 95.4417 47.612 95.3584 47.0391V46.6094C95.4417 45.9948 95.5615 45.4323 95.7178 44.9219C95.874 44.4062 96.0798 43.9609 96.335 43.5859C96.5954 43.2057 96.9131 42.9115 97.2881 42.7031C97.6683 42.4948 98.1136 42.3906 98.624 42.3906C99.1605 42.3906 99.6318 42.4922 100.038 42.6953C100.45 42.8984 100.793 43.1901 101.069 43.5703C101.351 43.9505 101.562 44.4036 101.702 44.9297C101.848 45.4557 101.921 46.0391 101.921 46.6797ZM99.6631 46.8438V46.6797C99.6631 46.3203 99.6318 45.9896 99.5693 45.6875C99.512 45.3802 99.4183 45.112 99.2881 44.8828C99.1631 44.6536 98.9964 44.4766 98.7881 44.3516C98.585 44.2214 98.3376 44.1562 98.0459 44.1562C97.7386 44.1562 97.4756 44.2057 97.2568 44.3047C97.0433 44.4036 96.8688 44.5469 96.7334 44.7344C96.598 44.9219 96.4964 45.1458 96.4287 45.4062C96.361 45.6667 96.3193 45.9609 96.3037 46.2891V47.375C96.3298 47.7604 96.4027 48.1068 96.5225 48.4141C96.6423 48.7161 96.8271 48.9557 97.0771 49.1328C97.3271 49.3099 97.6553 49.3984 98.0615 49.3984C98.3584 49.3984 98.6084 49.3333 98.8115 49.2031C99.0146 49.0677 99.1787 48.8828 99.3037 48.6484C99.4339 48.4141 99.5251 48.1432 99.5771 47.8359C99.6344 47.5286 99.6631 47.1979 99.6631 46.8438ZM113.366 48.0234C113.366 47.8203 113.335 47.638 113.272 47.4766C113.215 47.3099 113.106 47.1589 112.944 47.0234C112.783 46.8828 112.556 46.7448 112.265 46.6094C111.973 46.474 111.595 46.3333 111.132 46.1875C110.616 46.0208 110.127 45.8333 109.663 45.625C109.205 45.4167 108.799 45.1745 108.444 44.8984C108.095 44.6172 107.819 44.2917 107.616 43.9219C107.418 43.5521 107.319 43.1224 107.319 42.6328C107.319 42.1589 107.424 41.7292 107.632 41.3438C107.84 40.9531 108.132 40.6198 108.507 40.3438C108.882 40.0625 109.325 39.8464 109.835 39.6953C110.351 39.5443 110.916 39.4688 111.53 39.4688C112.369 39.4688 113.101 39.6198 113.726 39.9219C114.351 40.224 114.835 40.638 115.179 41.1641C115.528 41.6901 115.702 42.2917 115.702 42.9688H113.374C113.374 42.6354 113.304 42.3438 113.163 42.0938C113.028 41.8385 112.819 41.638 112.538 41.4922C112.262 41.3464 111.913 41.2734 111.491 41.2734C111.085 41.2734 110.746 41.3359 110.476 41.4609C110.205 41.5807 110.002 41.7448 109.866 41.9531C109.731 42.1562 109.663 42.3854 109.663 42.6406C109.663 42.8333 109.71 43.0078 109.804 43.1641C109.903 43.3203 110.049 43.4661 110.241 43.6016C110.434 43.737 110.671 43.8646 110.952 43.9844C111.233 44.1042 111.559 44.2214 111.929 44.3359C112.549 44.5234 113.093 44.7344 113.562 44.9688C114.035 45.2031 114.431 45.4661 114.749 45.7578C115.067 46.0495 115.306 46.3802 115.468 46.75C115.629 47.1198 115.71 47.5391 115.71 48.0078C115.71 48.5026 115.614 48.9453 115.421 49.3359C115.228 49.7266 114.95 50.0573 114.585 50.3281C114.22 50.599 113.785 50.8047 113.28 50.9453C112.775 51.0859 112.21 51.1562 111.585 51.1562C111.022 51.1562 110.468 51.0833 109.921 50.9375C109.374 50.7865 108.877 50.5599 108.429 50.2578C107.986 49.9557 107.632 49.5703 107.366 49.1016C107.101 48.6328 106.968 48.0781 106.968 47.4375H109.319C109.319 47.7917 109.374 48.0911 109.483 48.3359C109.593 48.5807 109.746 48.7786 109.944 48.9297C110.147 49.0807 110.387 49.1901 110.663 49.2578C110.944 49.3255 111.252 49.3594 111.585 49.3594C111.991 49.3594 112.325 49.3021 112.585 49.1875C112.851 49.0729 113.046 48.9141 113.171 48.7109C113.301 48.5078 113.366 48.2786 113.366 48.0234ZM121.304 42.5469V44.1406H116.382V42.5469H121.304ZM117.601 40.4609H119.851V48.4531C119.851 48.6979 119.882 48.8854 119.944 49.0156C120.012 49.1458 120.111 49.237 120.241 49.2891C120.371 49.3359 120.535 49.3594 120.733 49.3594C120.874 49.3594 120.999 49.3542 121.108 49.3438C121.223 49.3281 121.319 49.3125 121.397 49.2969L121.405 50.9531C121.213 51.0156 121.004 51.0651 120.78 51.1016C120.556 51.138 120.309 51.1562 120.038 51.1562C119.543 51.1562 119.111 51.0755 118.741 50.9141C118.377 50.7474 118.095 50.4818 117.897 50.1172C117.7 49.7526 117.601 49.2734 117.601 48.6797V40.4609ZM122.022 46.8594V46.6953C122.022 46.0755 122.111 45.5052 122.288 44.9844C122.465 44.4583 122.723 44.0026 123.062 43.6172C123.4 43.2318 123.817 42.9323 124.312 42.7188C124.806 42.5 125.374 42.3906 126.015 42.3906C126.655 42.3906 127.226 42.5 127.726 42.7188C128.226 42.9323 128.645 43.2318 128.983 43.6172C129.327 44.0026 129.588 44.4583 129.765 44.9844C129.942 45.5052 130.03 46.0755 130.03 46.6953V46.8594C130.03 47.474 129.942 48.0443 129.765 48.5703C129.588 49.0911 129.327 49.5469 128.983 49.9375C128.645 50.3229 128.228 50.6224 127.733 50.8359C127.239 51.0495 126.671 51.1562 126.03 51.1562C125.39 51.1562 124.819 51.0495 124.319 50.8359C123.825 50.6224 123.405 50.3229 123.062 49.9375C122.723 49.5469 122.465 49.0911 122.288 48.5703C122.111 48.0443 122.022 47.474 122.022 46.8594ZM124.272 46.6953V46.8594C124.272 47.2135 124.304 47.5443 124.366 47.8516C124.429 48.1589 124.528 48.4297 124.663 48.6641C124.804 48.8932 124.986 49.0729 125.21 49.2031C125.434 49.3333 125.707 49.3984 126.03 49.3984C126.343 49.3984 126.611 49.3333 126.835 49.2031C127.059 49.0729 127.239 48.8932 127.374 48.6641C127.509 48.4297 127.608 48.1589 127.671 47.8516C127.739 47.5443 127.772 47.2135 127.772 46.8594V46.6953C127.772 46.3516 127.739 46.0286 127.671 45.7266C127.608 45.4193 127.507 45.1484 127.366 44.9141C127.231 44.6745 127.051 44.487 126.827 44.3516C126.603 44.2161 126.332 44.1484 126.015 44.1484C125.697 44.1484 125.426 44.2161 125.202 44.3516C124.983 44.487 124.804 44.6745 124.663 44.9141C124.528 45.1484 124.429 45.4193 124.366 45.7266C124.304 46.0286 124.272 46.3516 124.272 46.6953ZM133.663 44.3906V51H131.413V42.5469H133.53L133.663 44.3906ZM136.21 42.4922L136.171 44.5781C136.062 44.5625 135.929 44.5495 135.772 44.5391C135.621 44.5234 135.483 44.5156 135.358 44.5156C135.041 44.5156 134.765 44.5573 134.53 44.6406C134.301 44.7188 134.108 44.8359 133.952 44.9922C133.801 45.1484 133.687 45.3385 133.608 45.5625C133.535 45.7865 133.494 46.0417 133.483 46.3281L133.03 46.1875C133.03 45.6406 133.085 45.138 133.194 44.6797C133.304 44.2161 133.463 43.8125 133.671 43.4688C133.884 43.125 134.145 42.8594 134.452 42.6719C134.759 42.4844 135.111 42.3906 135.507 42.3906C135.632 42.3906 135.759 42.401 135.89 42.4219C136.02 42.4375 136.127 42.4609 136.21 42.4922ZM141.007 51.1562C140.351 51.1562 139.762 51.0521 139.241 50.8438C138.72 50.6302 138.278 50.3359 137.913 49.9609C137.554 49.5859 137.278 49.151 137.085 48.6562C136.892 48.1562 136.796 47.625 136.796 47.0625V46.75C136.796 46.1094 136.887 45.5234 137.069 44.9922C137.252 44.4609 137.512 44 137.851 43.6094C138.194 43.2188 138.611 42.9193 139.101 42.7109C139.59 42.4974 140.142 42.3906 140.757 42.3906C141.356 42.3906 141.887 42.4896 142.351 42.6875C142.814 42.8854 143.202 43.1667 143.515 43.5312C143.832 43.8958 144.072 44.3333 144.233 44.8438C144.395 45.349 144.476 45.9115 144.476 46.5312V47.4688H137.757V45.9688H142.265V45.7969C142.265 45.4844 142.207 45.2057 142.093 44.9609C141.983 44.7109 141.817 44.513 141.593 44.3672C141.369 44.2214 141.082 44.1484 140.733 44.1484C140.437 44.1484 140.181 44.2135 139.968 44.3438C139.754 44.474 139.58 44.6562 139.444 44.8906C139.314 45.125 139.215 45.401 139.147 45.7188C139.085 46.0312 139.054 46.375 139.054 46.75V47.0625C139.054 47.401 139.101 47.7135 139.194 48C139.293 48.2865 139.431 48.5339 139.608 48.7422C139.791 48.9505 140.009 49.112 140.265 49.2266C140.525 49.3411 140.819 49.3984 141.147 49.3984C141.554 49.3984 141.931 49.3203 142.28 49.1641C142.634 49.0026 142.939 48.7604 143.194 48.4375L144.288 49.625C144.111 49.8802 143.869 50.125 143.562 50.3594C143.259 50.5938 142.895 50.7865 142.468 50.9375C142.041 51.0833 141.554 51.1562 141.007 51.1562Z" fill="#666666"/>
<rect x="19" y="13.5" width="152" height="49" rx="5.94444" stroke="#666666" shape-rendering="crispEdges"/>
</g>
<defs>
<filter id="filter0_d_7661_12789" x="0.455555" y="0.755555" width="191.667" height="88.6667" filterUnits="userSpaceOnUse" color-interpolation-filters="sRGB">
<feFlood flood-opacity="0" result="BackgroundImageFix"/>
<feColorMatrix in="SourceAlpha" type="matrix" values="0 0 0 0 0 0 0 0 0 0 0 0 0 0 0 0 0 0 127 0" result="hardAlpha"/>
<feOffset dx="1.28889" dy="7.08889"/>
<feGaussianBlur stdDeviation="9.66667"/>
<feComposite in2="hardAlpha" operator="out"/>
<feColorMatrix type="matrix" values="0 0 0 0 0.2 0 0 0 0 0.2 0 0 0 0 0.2 0 0 0 0.08 0"/>
<feBlend mode="normal" in2="BackgroundImageFix" result="effect1_dropShadow_7661_12789"/>
<feBlend mode="normal" in="SourceGraphic" in2="effect1_dropShadow_7661_12789" result="shape"/>
</filter>
<clipPath id="clip0_7661_12789">
<rect width="32" height="32" fill="white" transform="translate(29.0557 22)"/>
</clipPath>
</defs>
</svg>
