<svg width="39" height="73" viewBox="0 0 39 73" fill="none" xmlns="http://www.w3.org/2000/svg">
<rect y="47" width="35" height="26" rx="5" fill="#558B2F"/>
<path d="M24 63C24 60.2386 26.2386 58 29 58H36C36.5523 58 37 58.4477 37 59V67C37 67.5523 36.5523 68 36 68H29C26.2386 68 24 65.7614 24 63Z" fill="white"/>
<rect y="47" width="31" height="6" rx="3" fill="white"/>
<circle cx="30.5" cy="46.5" r="8.5" fill="#558B2F"/>
<circle cx="30" cy="63" r="2" fill="#558B2F"/>
<path d="M31.8503 8.1541C31.7734 7.40118 31.416 6.65658 30.7813 6.06691C30.1467 5.47723 29.3453 5.14515 28.5334 5.07366C28.5106 5.07203 28.4885 5.07863 28.4716 5.09208C28.4548 5.10554 28.4445 5.1248 28.4431 5.14584L28.4055 5.7088C28.4029 5.75376 28.4402 5.79395 28.4887 5.79868C29.1209 5.85088 29.7464 6.10875 30.2414 6.56861C30.7363 7.02847 31.0138 7.60965 31.0708 8.1963C31.0759 8.24145 31.1191 8.27606 31.1675 8.27364L31.7734 8.23875C31.8203 8.23629 31.8546 8.19851 31.8503 8.1541ZM33.8277 8.03892C33.6818 6.87343 33.1148 5.72651 32.1313 4.81265C31.1477 3.8988 29.9133 3.37204 28.6581 3.23569C28.635 3.23332 28.6123 3.2395 28.5949 3.25288C28.5776 3.26626 28.567 3.28574 28.5654 3.3071L28.5279 3.87006C28.5245 3.91429 28.5618 3.95448 28.6088 3.95917C29.6866 4.077 30.7474 4.53032 31.5913 5.31436C32.4351 6.09839 32.923 7.08407 33.0491 8.08472C33.0549 8.12916 33.0974 8.16305 33.145 8.15989L33.7509 8.125C33.7985 8.12184 33.8336 8.08337 33.8277 8.03892ZM35.7914 7.92627C35.58 6.34187 34.8018 4.78543 33.4654 3.54373C32.1377 2.3101 30.4764 1.5888 28.7825 1.38628C28.7709 1.38483 28.7593 1.38555 28.7482 1.38837C28.7372 1.39119 28.727 1.39608 28.7182 1.40273C28.7094 1.40938 28.7022 1.41766 28.6971 1.42709C28.692 1.43653 28.689 1.44691 28.6883 1.45765L28.6508 2.02061C28.6481 2.06414 28.6838 2.1043 28.7301 2.10969C30.2489 2.29304 31.7358 2.94015 32.9254 4.04543C34.1237 5.15878 34.8213 6.55251 35.0127 7.9735C35.0186 8.01794 35.0618 8.05113 35.1094 8.04798L35.7153 8.01308C35.7637 8.01066 35.798 7.97146 35.7914 7.92627ZM28.4983 7.23464C28.371 7.35292 28.3022 7.5158 28.3069 7.68746C28.3116 7.85913 28.3896 8.0255 28.5235 8.14999C28.6575 8.27449 28.8366 8.34689 29.0214 8.35129C29.2061 8.35568 29.3814 8.29171 29.5087 8.17343C29.636 8.05516 29.7049 7.89227 29.7001 7.72061C29.6954 7.54895 29.6175 7.38257 29.4835 7.25808C29.3495 7.13359 29.1704 7.06118 28.9857 7.05679C28.8009 7.05239 28.6256 7.11637 28.4983 7.23464Z" fill="white"/>
<path d="M9 26.7575V22.1119M9 22.1119V17.4663M9 22.1119H14M9 22.1119H4" stroke="white" stroke-linecap="round"/>
</svg>
