<svg width="1517" height="289" viewBox="0 0 1517 289" fill="none" xmlns="http://www.w3.org/2000/svg">
<rect x="5" width="1512" height="289" fill="#F24E1E"/>
<g opacity="0.3" clip-path="url(#clip0_7827_17412)">
<path d="M1374.85 186.154H1340.42C1328.99 186.154 1319.77 195.379 1319.77 206.809V262.346C1319.77 273.775 1328.99 283 1340.42 283H1395.5C1406.93 283 1416.15 273.775 1416.15 262.346V227.463L1374.85 186.154Z" fill="#FFF1CC"/>
<path d="M1395.5 283C1406.93 283 1416.15 273.775 1416.15 262.346V227.463L1374.85 186.154V283H1395.5Z" fill="#FFDCB3"/>
<path d="M1409.27 48H1340.42C1328.99 48 1319.77 57.2251 1319.77 68.6543V124.191C1319.77 135.621 1328.99 144.846 1340.42 144.846H1374.85L1429.92 103.537V68.6543C1429.92 57.2251 1420.7 48 1409.27 48Z" fill="#FFF1CC"/>
<path d="M1409.27 48H1374.85V144.846L1429.92 103.537V68.6543C1429.92 57.2251 1420.7 48 1409.27 48Z" fill="#FFDCB3"/>
<path d="M1478.12 103.537H1429.92L1374.85 144.846V186.154L1416.15 227.463H1478.12C1489.55 227.463 1498.77 218.238 1498.77 206.809V124.191C1498.77 112.762 1489.55 103.537 1478.12 103.537Z" fill="#F28F8F"/>
<path d="M1429.92 103.537V124.191C1429.92 135.621 1420.7 144.846 1409.27 144.846H1374.85V124.191C1374.85 112.762 1384.07 103.537 1395.5 103.537H1429.92Z" fill="white"/>
<path d="M1416.15 206.809V227.463H1395.5C1384.07 227.463 1374.85 218.238 1374.85 206.809V186.154H1395.5C1406.93 186.154 1416.15 195.379 1416.15 206.809Z" fill="white"/>
<path d="M1506.12 283H1478.58C1474.77 283 1471.69 279.921 1471.69 276.115V248.576C1471.69 244.771 1474.77 241.691 1478.58 241.691H1506.12C1509.92 241.691 1513 244.771 1513 248.576V276.115C1513 279.921 1509.92 283 1506.12 283Z" fill="white"/>
<path d="M1312.42 186.154H1284.88C1281.08 186.154 1278 183.075 1278 179.27V151.73C1278 147.925 1281.08 144.846 1284.88 144.846H1312.42C1316.23 144.846 1319.31 147.925 1319.31 151.73V179.27C1319.31 183.075 1316.23 186.154 1312.42 186.154Z" fill="#FFA599" fill-opacity="0.2"/>
<path d="M1506.12 89.3086H1478.58C1474.77 89.3086 1471.69 86.2293 1471.69 82.4238V54.8848C1471.69 51.0793 1474.77 48 1478.58 48H1506.12C1509.92 48 1513 51.0793 1513 54.8848V82.4238C1513 86.2293 1509.92 89.3086 1506.12 89.3086Z" fill="white"/>
</g>
<g opacity="0.15" clip-path="url(#clip1_7827_17412)">
<path d="M107.06 156.054L57.5572 205.563C55.5926 207.528 52.4069 207.528 50.4423 205.563L38.1942 193.315C36.2296 191.351 36.2296 188.166 38.1939 186.201L71.8917 152.496L52.138 132.742L38.1947 118.799C36.2301 116.834 36.2301 113.649 38.1947 111.684L50.4425 99.4364C52.4072 97.4717 55.5926 97.4717 57.5572 99.4364L90.8632 132.742L107.06 148.939C109.025 150.904 109.025 154.089 107.06 156.054Z" fill="white"/>
<path d="M91.2463 133.141L71.8835 152.504L64.4825 145.103L52.1374 132.743L38.1942 118.8C36.2295 116.835 36.2295 113.65 38.1942 111.685L50.4409 99.4379C52.4061 97.4727 55.592 97.4733 57.5567 99.4389L83.845 125.741L91.2463 133.141Z" fill="white"/>
<path d="M91.2455 133.141L71.883 152.504L67.1875 147.801L86.55 128.438L91.2455 133.141Z" fill="white"/>
<path d="M130.257 213.826C129.165 213.826 128.279 214.711 128.279 215.803V218.023C128.279 219.115 129.165 220 130.257 220C131.349 220 132.234 219.115 132.234 218.023V215.803C132.234 214.711 131.349 213.826 130.257 213.826Z" fill="white"/>
<path d="M118.583 213.826C117.491 213.826 116.605 214.711 116.605 215.803V218.023C116.605 219.115 117.491 220 118.583 220C119.675 220 120.561 219.115 120.561 218.023V215.803C120.561 214.711 119.675 213.826 118.583 213.826Z" fill="white"/>
<path d="M106.909 213.826C105.817 213.826 104.932 214.711 104.932 215.803V218.023C104.932 219.115 105.817 220 106.909 220C108.001 220 108.887 219.115 108.887 218.023V215.803C108.887 214.711 108.001 213.826 106.909 213.826Z" fill="white"/>
<path d="M28.0908 91.1744C29.1829 91.1744 30.0684 90.289 30.0684 89.1969V86.9775C30.0684 85.8854 29.1829 85 28.0908 85C26.9987 85 26.1133 85.8854 26.1133 86.9775V89.1969C26.1133 90.289 26.9987 91.1744 28.0908 91.1744Z" fill="white"/>
<path d="M16.417 91.1744C17.5091 91.1744 18.3945 90.289 18.3945 89.1969V86.9775C18.3945 85.8854 17.5091 85 16.417 85C15.3249 85 14.4395 85.8854 14.4395 86.9775V89.1969C14.4395 90.289 15.3249 91.1744 16.417 91.1744Z" fill="white"/>
<path d="M4.74316 85C3.65104 85 2.76562 85.8854 2.76562 86.9775V89.1969C2.76562 90.289 3.65104 91.1744 4.74316 91.1744C5.83529 91.1744 6.7207 90.289 6.7207 89.1969V86.9775C6.7207 85.8854 5.83529 85 4.74316 85Z" fill="white"/>
<path d="M76.2762 97.7291C75.504 96.9568 74.2518 96.9568 73.4797 97.7291C72.7074 98.5014 72.7074 99.7536 73.4797 100.526L122.982 150.028C124.173 151.219 124.173 153.156 122.982 154.346L73.4795 203.856C72.7072 204.628 72.7074 205.88 73.4797 206.653C73.8658 207.039 74.3717 207.232 74.878 207.232C75.3842 207.232 75.8902 207.039 76.2765 206.652L125.779 157.143C128.511 154.41 128.511 149.964 125.779 147.231L76.2762 97.7291Z" fill="white"/>
<path d="M10.4229 141.831H46.4122C47.5043 141.831 48.3898 140.945 48.3898 139.853C48.3898 138.761 47.5043 137.875 46.4122 137.875H10.4229C9.33072 137.875 8.44531 138.761 8.44531 139.853C8.44531 140.945 9.33072 141.831 10.4229 141.831Z" fill="white"/>
<path d="M10.4229 168.309H46.4122C47.5043 168.309 48.3898 167.423 48.3898 166.331C48.3898 165.239 47.5043 164.354 46.4122 164.354H10.4229C9.33072 164.354 8.44531 165.239 8.44531 166.331C8.44531 167.423 9.33072 168.309 10.4229 168.309Z" fill="white"/>
<path d="M17.146 172.13H10.4229C9.33072 172.13 8.44531 173.016 8.44531 174.108C8.44531 175.2 9.33072 176.085 10.4229 176.085H17.1462C18.2383 176.085 19.1238 175.2 19.1238 174.108C19.1238 173.016 18.2381 172.13 17.146 172.13Z" fill="white"/>
<path d="M10.4229 132.869H17.1462C18.2383 132.869 19.1238 131.984 19.1238 130.892C19.1238 129.799 18.2383 128.914 17.1462 128.914H10.4229C9.33072 128.914 8.44531 129.799 8.44531 130.892C8.44531 131.984 9.33072 132.869 10.4229 132.869Z" fill="white"/>
</g>
<defs>
<clipPath id="clip0_7827_17412">
<rect width="235" height="235" fill="white" transform="translate(1278 48)"/>
</clipPath>
<clipPath id="clip1_7827_17412">
<rect width="135" height="135" fill="white" transform="translate(0 85)"/>
</clipPath>
</defs>
</svg>
