<svg width="200" height="200" viewBox="0 0 200 200" fill="none" xmlns="http://www.w3.org/2000/svg">
<path d="M82.4219 117.578H53.125C43.3977 117.578 35.5469 125.429 35.5469 135.156V182.422C35.5469 192.149 43.3977 200 53.125 200H100C109.727 200 117.578 192.149 117.578 182.422V152.734L82.4219 117.578Z" fill="#FFF1CC"/>
<path d="M100 200C109.727 200 117.578 192.149 117.578 182.422V152.734L82.4219 117.578V200H100Z" fill="#FFDCB3"/>
<path d="M111.719 0H53.125C43.3977 0 35.5469 7.85117 35.5469 17.5781V64.8438C35.5469 74.5707 43.3977 82.4219 53.125 82.4219H82.4219L129.297 47.2656V17.5781C129.297 7.85117 121.446 0 111.719 0Z" fill="#FFF1CC"/>
<path d="M111.719 0H82.4219V82.4219L129.297 47.2656V17.5781C129.297 7.85117 121.446 0 111.719 0Z" fill="#FFDCB3"/>
<path d="M170.312 47.2656H129.297L82.4219 82.4219V117.578L117.578 152.734H170.312C180.04 152.734 187.891 144.883 187.891 135.156V64.8438C187.891 55.1168 180.04 47.2656 170.312 47.2656Z" fill="white"/>
<path d="M129.297 47.2656V64.8438C129.297 74.5707 121.446 82.4219 111.719 82.4219H82.4219V64.8438C82.4219 55.1168 90.2727 47.2656 100 47.2656H129.297Z" fill="#FF725E" fill-opacity="0.1"/>
<path d="M117.578 135.156V152.734H100C90.2727 152.734 82.4219 144.883 82.4219 135.156V117.578H100C109.727 117.578 117.578 125.429 117.578 135.156Z" fill="#FF725E" fill-opacity="0.1"/>
<path d="M194.141 200H170.703C167.464 200 164.844 197.379 164.844 194.141V170.703C164.844 167.464 167.464 164.844 170.703 164.844H194.141C197.379 164.844 200 167.464 200 170.703V194.141C200 197.379 197.379 200 194.141 200Z" fill="white"/>
<path d="M29.2969 117.578H5.85938C2.6207 117.578 0 114.957 0 111.719V88.2812C0 85.0426 2.6207 82.4219 5.85938 82.4219H29.2969C32.5355 82.4219 35.1562 85.0426 35.1562 88.2812V111.719C35.1562 114.957 32.5355 117.578 29.2969 117.578Z" fill="#FFA599" fill-opacity="0.2"/>
<path d="M194.141 35.1562H170.703C167.464 35.1562 164.844 32.5355 164.844 29.2969V5.85938C164.844 2.6207 167.464 0 170.703 0H194.141C197.379 0 200 2.6207 200 5.85938V29.2969C200 32.5355 197.379 35.1562 194.141 35.1562Z" fill="white"/>
</svg>
