<svg width="22" height="28" viewBox="0 0 22 28" fill="none" xmlns="http://www.w3.org/2000/svg">
<path d="M17.7778 18.7446V14.8C17.7778 11.2613 15.35 8.2803 12.0611 7.3838C11.7356 6.572 10.94 6 10 6C9.06 6 8.26445 6.572 7.93889 7.3838C4.65 8.2814 2.22222 11.2613 2.22222 14.8V18.7446L0.325557 20.6223C0.222176 20.7243 0.14019 20.8455 0.0843171 20.979C0.0284446 21.1124 -0.000210499 21.2555 1.16408e-06 21.4V23.6C1.16408e-06 23.8917 0.117064 24.1715 0.325438 24.3778C0.533812 24.5841 0.816427 24.7 1.11111 24.7H18.8889C19.1836 24.7 19.4662 24.5841 19.6746 24.3778C19.8829 24.1715 20 23.8917 20 23.6V21.4C20.0002 21.2555 19.9716 21.1124 19.9157 20.979C19.8598 20.8455 19.7778 20.7243 19.6744 20.6223L17.7778 18.7446ZM17.7778 22.5H2.22222V21.8554L4.11889 19.9777C4.22227 19.8757 4.30426 19.7545 4.36013 19.621C4.416 19.4876 4.44466 19.3445 4.44445 19.2V14.8C4.44445 11.7673 6.93667 9.3 10 9.3C13.0633 9.3 15.5556 11.7673 15.5556 14.8V19.2C15.5556 19.4926 15.6722 19.772 15.8811 19.9777L17.7778 21.8554V22.5ZM10 28C10.6881 28.0009 11.3594 27.7895 11.9205 27.3952C12.4817 27.0009 12.9048 26.4433 13.1311 25.8H6.86889C7.09518 26.4433 7.51831 27.0009 8.07946 27.3952C8.6406 27.7895 9.31189 28.0009 10 28Z" fill="black"/>
<circle cx="17" cy="5" r="5" fill="#FF0000"/>
</svg>
