<svg width="30" height="30" viewBox="0 0 30 30" fill="none" xmlns="http://www.w3.org/2000/svg">
<g clip-path="url(#clip0_6901_12293)">
<path d="M15.8138 0.878906C8.02406 0.878906 1.68655 7.21642 1.68655 15.0062H0.311197C0.0230348 15.0062 -0.15412 15.3218 -0.00397322 15.5679L2.66799 19.9491C2.81196 20.1851 3.15483 20.1851 3.29879 19.9491L5.97076 15.5679C6.12091 15.3218 5.94375 15.0062 5.65559 15.0062H4.41642C4.41642 8.71216 9.54498 3.59322 15.8429 3.60901C22.0918 3.62457 27.1957 8.72841 27.2112 14.9773C27.2268 21.1549 22.3019 26.2074 16.1734 26.3981C15.9734 26.4043 15.8141 26.5668 15.8141 26.7671V28.7588C15.8141 28.9668 15.9857 29.1342 16.1935 29.1287C23.8087 28.9268 29.9413 22.6692 29.9413 15.0064C29.9413 7.22512 23.5951 0.878906 15.8138 0.878906Z" fill="#97D57E"/>
<path d="M2.34155 19.4137L2.66817 19.949C2.81213 20.185 3.15477 20.185 3.29874 19.949L5.97093 15.5678C6.12108 15.3217 5.94393 15.0061 5.65553 15.0061H5.02977L2.34155 19.4137Z" fill="#82CD64"/>
<path d="M15.0291 3.60889C8.8715 3.60889 3.83861 8.51772 3.63788 14.6277C3.63125 14.8351 3.7997 15.0063 4.0073 15.0063H4.41654C4.41654 8.85326 9.31805 3.82404 15.4216 3.61644C15.2914 3.61209 15.1605 3.60889 15.0291 3.60889Z" fill="#82CD64"/>
<path d="M26.3252 5.57788C28.1297 7.95047 29.2027 10.9085 29.2027 14.1127C29.2027 21.6548 23.2618 27.8353 15.8142 28.2209V28.7588C15.8142 28.9664 15.9854 29.1342 16.193 29.1285C23.8084 28.927 29.9415 22.6694 29.9415 15.0062C29.9415 11.3862 28.5723 8.08025 26.3252 5.57788Z" fill="#82CD64"/>
<path d="M9.53321 23.2554C8.77057 23.2554 8.12673 22.7461 7.92348 22.0492C7.85482 21.8137 8.03403 21.5786 8.27916 21.5786H18.2955C18.4745 21.5786 18.6265 21.7072 18.6587 21.8833C18.802 22.664 19.4859 23.2554 20.3078 23.2554H9.53321Z" fill="#FEBA80"/>
<path d="M9.5332 21.5785V7.92656C9.5332 7.72263 9.69868 7.55737 9.90262 7.55737H21.6154C21.8194 7.55737 21.9846 7.72263 21.9846 7.92656V21.5437C21.9846 22.4574 21.2684 23.2296 20.355 23.2548C19.5127 23.2777 18.8054 22.6794 18.659 21.8845C18.6265 21.7089 18.4781 21.5785 18.2996 21.5785H9.5332Z" fill="#F7E5C1"/>
<path d="M20.7305 7.55737V21.5785C20.7305 22.2827 20.2961 22.8851 19.6807 23.1337C19.8938 23.2195 20.1281 23.2635 20.3742 23.2541C21.2803 23.2188 21.9846 22.448 21.9846 21.5414V7.92656C21.9846 7.72263 21.8193 7.55737 21.6152 7.55737H20.7305Z" fill="#F3D69E"/>
<path d="M19.7809 12.3474H11.737C11.4818 12.3474 11.2751 12.1407 11.2751 11.8857C11.2751 11.6305 11.4818 11.4238 11.737 11.4238H19.7809C20.0358 11.4238 20.2425 11.6305 20.2425 11.8857C20.2425 12.1407 20.0358 12.3474 19.7809 12.3474Z" fill="#5F6C75"/>
<path d="M19.7809 14.6267H11.737C11.4818 14.6267 11.2751 14.42 11.2751 14.1648C11.2751 13.9098 11.4818 13.7031 11.737 13.7031H19.7809C20.0358 13.7031 20.2425 13.9098 20.2425 14.1648C20.2425 14.42 20.0358 14.6267 19.7809 14.6267Z" fill="#5F6C75"/>
<path d="M19.7809 16.9057H11.737C11.4818 16.9057 11.2751 16.6988 11.2751 16.4438C11.2751 16.1889 11.4818 15.9822 11.737 15.9822H19.7809C20.0358 15.9822 20.2425 16.1889 20.2425 16.4438C20.2425 16.6988 20.0358 16.9057 19.7809 16.9057Z" fill="#5F6C75"/>
<path d="M19.7809 19.185H11.737C11.4818 19.185 11.2751 18.9781 11.2751 18.7231C11.2751 18.4682 11.4818 18.2615 11.737 18.2615H19.7809C20.0358 18.2615 20.2425 18.4682 20.2425 18.7231C20.2425 18.9781 20.0358 19.185 19.7809 19.185Z" fill="#5F6C75"/>
</g>
<defs>
<clipPath id="clip0_6901_12293">
<rect width="30" height="30" fill="white"/>
</clipPath>
</defs>
</svg>
