<svg width="92" height="92" viewBox="0 0 92 92" fill="none" xmlns="http://www.w3.org/2000/svg">
<path d="M67.5625 22.9321C76.6062 31.5801 87.6875 45.7237 87.6875 56.0626C87.6875 73.5282 73.5281 83.3751 56.0625 83.3751C38.5969 83.3751 24.4375 73.5282 24.4375 56.0626C24.4375 45.7506 35.461 31.6466 44.4906 23.0001L67.5625 22.9321Z" fill="#39B54A"/>
<path d="M83.358 42.6917C77.5469 59.4684 61.609 71.5157 42.8552 71.5157C37.5688 71.5214 32.3273 70.5466 27.3965 68.6407C32.4344 78.1785 43.3748 83.3751 56.0622 83.3751C73.5278 83.3751 87.6872 73.5282 87.6872 56.0626C87.6872 52.0043 85.9802 47.3598 83.358 42.6917Z" fill="#009245"/>
<path d="M44.4914 23L67.5633 22.9317L71.4057 11.387C72.5323 8.00204 68.8182 5.062 65.8059 6.95321C65.08 7.40915 64.2206 7.60447 63.3689 7.50702C62.5173 7.40956 61.7241 7.02516 61.12 6.41702C60.4576 5.7501 59.6697 5.22081 58.8019 4.85963C57.934 4.49845 57.0033 4.3125 56.0633 4.3125C55.1232 4.3125 54.1925 4.49845 53.3246 4.85963C52.4568 5.22081 51.6689 5.7501 51.0065 6.41702C50.4024 7.02549 49.6091 7.41016 48.7573 7.50775C47.9054 7.60533 47.0458 7.41001 46.3197 6.95393L46.2658 6.91943C43.2587 5.03127 39.5491 7.95622 40.6606 11.3383L44.4914 23Z" fill="#39B54A"/>
<path d="M69 15.8125H43.125C41.5372 15.8125 40.25 17.0997 40.25 18.6875C40.25 20.2753 41.5372 21.5625 43.125 21.5625H69C70.5878 21.5625 71.875 20.2753 71.875 18.6875C71.875 17.0997 70.5878 15.8125 69 15.8125Z" fill="#8C6239"/>
<path d="M69 21.5625H43.125C41.5372 21.5625 40.25 22.8497 40.25 24.4375C40.25 26.0253 41.5372 27.3125 43.125 27.3125H69C70.5878 27.3125 71.875 26.0253 71.875 24.4375C71.875 22.8497 70.5878 21.5625 69 21.5625Z" fill="#603813"/>
<path d="M41.6875 47.4375V41.6875L56.0625 37.375L70.4375 41.6875V47.4375H41.6875Z" fill="#666666"/>
<path d="M41.6875 48.875H44.5625V63.25H41.6875V48.875Z" fill="#CCCCCC"/>
<path d="M50.3125 48.875H53.1875V63.25H50.3125V48.875Z" fill="#CCCCCC"/>
<path d="M67.5625 48.875H70.4375V63.25H67.5625V48.875Z" fill="#CCCCCC"/>
<path d="M58.9375 48.875H61.8125V63.25H58.9375V48.875Z" fill="#CCCCCC"/>
<path d="M78.888 74.75C78.0297 74.75 77.1798 74.9192 76.3869 75.248C75.594 75.5768 74.8738 76.0587 74.2674 76.6662L71.875 79.0625L64.6875 80.5H56.0625L40.25 74.75L49.8135 73.6873C50.7412 73.5843 51.5983 73.1427 52.2208 72.4473C52.8433 71.7518 53.1875 70.8512 53.1875 69.9178C53.1875 69.4198 53.0894 68.9266 52.8989 68.4664C52.7083 68.0062 52.4289 67.5881 52.0767 67.2359C51.7245 66.8837 51.3064 66.6043 50.8463 66.4137C50.3861 66.2231 49.8929 66.125 49.3948 66.125H35.9375L21.5625 69H17.25V81.9375H21.5625L54.625 87.6875H66.125L76.1875 84.8125L81.0443 79.9555C81.3275 79.6724 81.5521 79.3363 81.7054 78.9663C81.8587 78.5963 81.9375 78.1998 81.9375 77.7993C81.9375 76.9906 81.6161 76.215 81.0443 75.6431C80.4724 75.0713 79.6968 74.75 78.888 74.75Z" fill="#FCCCA7"/>
<path d="M38.8125 46H73.3125V51.75H38.8125V46Z" fill="#808080"/>
<path d="M38.8125 60.375H73.3125V66.125H38.8125V60.375Z" fill="#808080"/>
<path d="M50.3125 68.4804C50.3125 69.4138 49.9683 70.3144 49.3458 71.0099C48.7233 71.7053 47.8662 72.1468 46.9385 72.2499L38.8125 73.3126L40.25 74.7501L49.8135 73.6874C50.7669 73.5795 51.6439 73.1142 52.2677 72.3853C52.8916 71.6563 53.2159 70.718 53.1752 69.7594C53.1346 68.8008 52.732 67.8933 52.0486 67.2198C51.3653 66.5463 50.452 66.1569 49.4929 66.1301C50.0241 66.7983 50.313 67.6269 50.3125 68.4804Z" fill="#E5B391"/>
<path d="M78.888 74.75C78.7926 74.75 78.6976 74.7529 78.6025 74.7572C78.9031 75.2384 79.0625 75.7944 79.0625 76.3618C79.0625 76.7623 78.9837 77.1588 78.8304 77.5288C78.6771 77.8988 78.4525 78.2349 78.1693 78.518L73.3125 83.375L63.25 86.25H51.75L18.6875 80.5H17.25V81.9375H21.5625L54.625 87.6875H66.125L76.1875 84.8125L81.0443 79.9555C81.3275 79.6724 81.5521 79.3363 81.7054 78.9663C81.8587 78.5963 81.9375 78.1998 81.9375 77.7993C81.9375 76.9906 81.6161 76.215 81.0443 75.6431C80.4724 75.0713 79.6968 74.75 78.888 74.75Z" fill="#E5B391"/>
<path d="M4.3125 66.125H21.5625V87.6875H4.3125V66.125Z" fill="#FFC841"/>
<path d="M4.3125 83.375H21.5625V87.6875H4.3125V83.375Z" fill="#F2B630"/>
<path d="M63.6758 66.125H73.313V60.375H71.6756C69.2382 62.592 66.554 64.5213 63.6758 66.125Z" fill="#666666"/>
</svg>
