<svg width="100" height="100" viewBox="0 0 100 100" fill="none" xmlns="http://www.w3.org/2000/svg">
<path d="M71.0938 4.6875H28.9062C26.7489 4.6875 25 6.43639 25 8.59375V91.4062C25 93.5636 26.7489 95.3125 28.9062 95.3125H71.0938C73.2511 95.3125 75 93.5636 75 91.4062V8.59375C75 6.43639 73.2511 4.6875 71.0938 4.6875Z" fill="#FF9A6C"/>
<path d="M95.3125 25H4.6875V77.7344C4.6875 78.2524 4.89328 78.7492 5.25956 79.1154C5.62584 79.4817 6.12262 79.6875 6.64062 79.6875H93.3594C93.8774 79.6875 94.3742 79.4817 94.7404 79.1154C95.1067 78.7492 95.3125 78.2524 95.3125 77.7344V25Z" fill="#EBF7FF"/>
<path d="M6.64062 14.0625H93.3594C93.8774 14.0625 94.3742 14.2683 94.7404 14.6346C95.1067 15.0008 95.3125 15.4976 95.3125 16.0156V26.5625H4.6875V16.0156C4.6875 15.4976 4.89328 15.0008 5.25956 14.6346C5.62584 14.2683 6.12262 14.0625 6.64062 14.0625Z" fill="#F79F1B"/>
<path d="M82.0312 64.0625H61.7188C59.5614 64.0625 57.8125 65.8114 57.8125 67.9688V69.5312C57.8125 71.6886 59.5614 73.4375 61.7188 73.4375H82.0312C84.1886 73.4375 85.9375 71.6886 85.9375 69.5312V67.9688C85.9375 65.8114 84.1886 64.0625 82.0312 64.0625Z" fill="#F79F1B"/>
<path d="M10.9375 73.4375V32.8125H45.3125V73.4375" fill="#F79F1B"/>
<path d="M10.9375 73.4375V68.123C10.9375 66.9303 11.3015 65.7659 11.9809 64.7856C12.6603 63.8052 13.6226 63.0555 14.7395 62.6367L23.4375 59.375H32.8125L41.5105 62.6367C42.6274 63.0555 43.5897 63.8052 44.2691 64.7856C44.9485 65.7659 45.3125 66.9303 45.3125 68.123V73.4375H10.9375Z" fill="#FAFDFF"/>
<path d="M30.4688 39.0625H25.7812C24.7452 39.0625 23.7517 39.4741 23.0191 40.2066C22.2866 40.9392 21.875 41.9327 21.875 42.9688V50.7812C21.875 52.9387 25 54.6875 25 54.6875L23.4375 59.375L28.125 65.625L32.8125 59.375L31.25 54.6875C31.25 54.6875 34.375 52.9387 34.375 50.7812V42.9688C34.375 41.9327 33.9634 40.9392 33.2309 40.2066C32.4983 39.4741 31.5048 39.0625 30.4688 39.0625Z" fill="#FFD4CF"/>
<path d="M60.9375 37.6038C60.9375 35.0149 58.8388 32.9163 56.25 32.9163C53.6612 32.9163 51.5625 35.0149 51.5625 37.6038C51.5625 40.1926 53.6612 42.2913 56.25 42.2913C58.8388 42.2913 60.9375 40.1926 60.9375 37.6038Z" fill="#F79F1B"/>
<path d="M60.9375 53.2288C60.9375 50.6399 58.8388 48.5413 56.25 48.5413C53.6612 48.5413 51.5625 50.6399 51.5625 53.2288C51.5625 55.8176 53.6612 57.9163 56.25 57.9163C58.8388 57.9163 60.9375 55.8176 60.9375 53.2288Z" fill="#F79F1B"/>
<path d="M25 85.9375H75V89.0625H25V85.9375Z" fill="#F06740"/>
<path d="M84.375 32.9163H90.625V36.0413H84.375V32.9163Z" fill="#F79F1B"/>
<path d="M65.625 32.8125H81.25V35.9375H65.625V32.8125Z" fill="#F79F1B"/>
<path d="M78.125 39.0625H90.625V42.1875H78.125V39.0625Z" fill="#F79F1B"/>
<path d="M65.625 39.0625H75V42.1875H65.625V39.0625Z" fill="#F79F1B"/>
<path d="M84.375 48.4375H90.625V51.5625H84.375V48.4375Z" fill="#F79F1B"/>
<path d="M65.625 48.4375H81.25V51.5625H65.625V48.4375Z" fill="#F79F1B"/>
<path d="M78.125 54.6875H90.625V57.8125H78.125V54.6875Z" fill="#F79F1B"/>
<path d="M65.625 54.6875H75V57.8125H65.625V54.6875Z" fill="#F79F1B"/>
<path d="M9.375 18.75H12.5V21.875H9.375V18.75Z" fill="#FAFDFF"/>
<path d="M15.625 18.75H18.75V21.875H15.625V18.75Z" fill="#FAFDFF"/>
<path d="M21.875 18.75H25V21.875H21.875V18.75Z" fill="#FAFDFF"/>
<path d="M87.5 18.75H90.625V21.875H87.5V18.75Z" fill="#FAFDFF"/>
<path d="M25 79.6875H75V81.25H25V79.6875Z" fill="#E44C51"/>
</svg>
