<svg width="46" height="72" viewBox="0 0 46 72" fill="none" xmlns="http://www.w3.org/2000/svg">
<rect y="41.5" width="40.8333" height="30.3333" rx="5" fill="#558B2F"/>
<path d="M28 60.1663C28 56.9447 30.6117 54.333 33.8333 54.333H42.1667C42.719 54.333 43.1667 54.7807 43.1667 55.333V64.9997C43.1667 65.552 42.719 65.9997 42.1667 65.9997H33.8333C30.6117 65.9997 28 63.388 28 60.1663Z" fill="white"/>
<rect y="41.5" width="36.1667" height="7" rx="3.5" fill="white"/>
<circle cx="35.5834" cy="40.9167" r="9.91667" fill="#558B2F"/>
<circle cx="35" cy="60.1663" r="2.33333" fill="#558B2F"/>
<path d="M37.1588 9.66177C37.0691 8.77954 36.6521 7.90708 35.9117 7.21614C35.1713 6.5252 34.2363 6.13609 33.2891 6.05232C33.2625 6.05041 33.2367 6.05814 33.2171 6.07391C33.1974 6.08968 33.1855 6.11225 33.1837 6.13689L33.1399 6.79654C33.1369 6.84922 33.1803 6.89631 33.237 6.90185C33.9745 6.96302 34.7043 7.26516 35.2817 7.804C35.8592 8.34283 36.183 9.02382 36.2494 9.71121C36.2553 9.76411 36.3058 9.80467 36.3622 9.80183L37.0691 9.76095C37.1238 9.75807 37.1639 9.7138 37.1588 9.66177ZM39.4658 9.52681C39.2956 8.16117 38.6341 6.81728 37.4866 5.74649C36.3391 4.67571 34.899 4.05848 33.4346 3.89872C33.4077 3.89595 33.3812 3.90319 33.3609 3.91886C33.3407 3.93453 33.3283 3.95737 33.3265 3.98239L33.2827 4.64203C33.2787 4.69385 33.3222 4.74095 33.3771 4.74645C34.6345 4.88451 35.8722 5.41567 36.8567 6.33435C37.8411 7.25303 38.4104 8.40798 38.5574 9.58046C38.5642 9.63254 38.6138 9.67225 38.6693 9.66855L39.3762 9.62766C39.4317 9.62397 39.4727 9.57889 39.4658 9.52681ZM41.7568 9.39481C41.5102 7.53832 40.6023 5.7146 39.0431 4.25966C37.4941 2.81418 35.5559 1.96902 33.5797 1.73171C33.5662 1.73002 33.5526 1.73085 33.5397 1.73416C33.5269 1.73747 33.5149 1.74319 33.5047 1.75098C33.4945 1.75878 33.4861 1.76848 33.4801 1.77954C33.4741 1.79059 33.4706 1.80276 33.4699 1.81534L33.426 2.47498C33.423 2.52598 33.4646 2.57304 33.5186 2.57935C35.2905 2.79419 37.0253 3.55243 38.4132 4.84752C39.8112 6.15206 40.625 7.78513 40.8484 9.45015C40.8552 9.50223 40.9056 9.54111 40.9611 9.53742L41.668 9.49653C41.7245 9.49369 41.7645 9.44775 41.7568 9.39481ZM33.2482 8.58441C33.0997 8.72299 33.0194 8.91385 33.0249 9.11499C33.0304 9.31613 33.1213 9.51108 33.2776 9.65695C33.434 9.80282 33.6429 9.88767 33.8584 9.89282C34.074 9.89797 34.2785 9.823 34.427 9.68442C34.5755 9.54583 34.6559 9.35497 34.6503 9.15383C34.6448 8.95269 34.5539 8.75774 34.3976 8.61187C34.2413 8.466 34.0323 8.38116 33.8168 8.37601C33.6012 8.37086 33.3967 8.44582 33.2482 8.58441Z" fill="white"/>
</svg>
