<svg width="15" height="20" viewBox="0 0 15 20" fill="none" xmlns="http://www.w3.org/2000/svg">
<path d="M6.49219 10.4296L7.5 9.62916L8.48438 10.4296C8.67188 10.5751 8.85938 10.579 9.04688 10.4412C9.23438 10.3041 9.29688 10.1223 9.23438 9.89596L8.83594 8.5862L9.96094 7.66452C10.1328 7.51899 10.1838 7.33692 10.1138 7.1183C10.0431 6.90033 9.89844 6.79135 9.67969 6.79135H8.34375L7.94531 5.50584C7.86719 5.27946 7.71875 5.16627 7.5 5.16627C7.28125 5.16627 7.13281 5.27946 7.05469 5.50584L6.65625 6.79135H5.32031C5.08594 6.79135 4.93375 6.90033 4.86375 7.1183C4.79312 7.33692 4.84375 7.51899 5.01563 7.66452L6.14062 8.5862L5.74219 9.89596C5.66406 10.1223 5.7225 10.3041 5.9175 10.4412C6.11313 10.579 6.30469 10.5751 6.49219 10.4296ZM3.11719 19.9374C2.80469 20.0506 2.51938 20.0102 2.26125 19.8162C2.00375 19.6221 1.875 19.3634 1.875 19.04V12.8793C1.28125 12.2002 0.820313 11.424 0.492188 10.5508C0.164063 9.67767 0 8.7479 0 7.76154C0 5.59477 0.726562 3.75949 2.17969 2.2557C3.63281 0.751899 5.40625 0 7.5 0C9.59375 0 11.3672 0.751899 12.8203 2.2557C14.2734 3.75949 15 5.59477 15 7.76154C15 8.7479 14.8359 9.67767 14.5078 10.5508C14.1797 11.424 13.7188 12.2002 13.125 12.8793V19.04C13.125 19.3634 12.9959 19.6221 12.7378 19.8162C12.4803 20.0102 12.1953 20.0506 11.8828 19.9374L7.5 18.4337L3.11719 19.9374ZM7.5 13.5827C9.0625 13.5827 10.3906 13.0167 11.4844 11.8849C12.5781 10.753 13.125 9.37852 13.125 7.76154C13.125 6.14455 12.5781 4.77011 11.4844 3.63822C10.3906 2.50633 9.0625 1.94038 7.5 1.94038C5.9375 1.94038 4.60938 2.50633 3.51562 3.63822C2.42188 4.77011 1.875 6.14455 1.875 7.76154C1.875 9.37852 2.42188 10.753 3.51562 11.8849C4.60938 13.0167 5.9375 13.5827 7.5 13.5827Z" fill="#F24E1E"/>
</svg>
