<svg width="1512" height="982" viewBox="0 0 1512 982" fill="none" xmlns="http://www.w3.org/2000/svg">
<rect width="1512" height="982" fill="#F24E1E"/>
<g opacity="0.3">
<path d="M1394.42 197.578H1365.12C1355.4 197.578 1347.55 205.429 1347.55 215.156V262.422C1347.55 272.149 1355.4 280 1365.12 280H1412C1421.73 280 1429.58 272.149 1429.58 262.422V232.734L1394.42 197.578Z" fill="#FFF1CC"/>
<path d="M1412 280C1421.73 280 1429.58 272.149 1429.58 262.422V232.734L1394.42 197.578V280H1412Z" fill="#FFDCB3"/>
<path d="M1423.72 80H1365.12C1355.4 80 1347.55 87.8512 1347.55 97.5781V144.844C1347.55 154.571 1355.4 162.422 1365.12 162.422H1394.42L1441.3 127.266V97.5781C1441.3 87.8512 1433.45 80 1423.72 80Z" fill="#FFF1CC"/>
<path d="M1423.72 80H1394.42V162.422L1441.3 127.266V97.5781C1441.3 87.8512 1433.45 80 1423.72 80Z" fill="#FFDCB3"/>
<path d="M1482.31 127.266H1441.3L1394.42 162.422V197.578L1429.58 232.734H1482.31C1492.04 232.734 1499.89 224.883 1499.89 215.156V144.844C1499.89 135.117 1492.04 127.266 1482.31 127.266Z" fill="white"/>
<path d="M1441.3 127.266V144.844C1441.3 154.571 1433.45 162.422 1423.72 162.422H1394.42V144.844C1394.42 135.117 1402.27 127.266 1412 127.266H1441.3Z" fill="#FF725E" fill-opacity="0.1"/>
<path d="M1429.58 215.156V232.734H1412C1402.27 232.734 1394.42 224.883 1394.42 215.156V197.578H1412C1421.73 197.578 1429.58 205.429 1429.58 215.156Z" fill="#FF725E" fill-opacity="0.1"/>
<path d="M1506.14 280H1482.7C1479.46 280 1476.84 277.379 1476.84 274.141V250.703C1476.84 247.464 1479.46 244.844 1482.7 244.844H1506.14C1509.38 244.844 1512 247.464 1512 250.703V274.141C1512 277.379 1509.38 280 1506.14 280Z" fill="white"/>
<path d="M1341.3 197.578H1317.86C1314.62 197.578 1312 194.957 1312 191.719V168.281C1312 165.043 1314.62 162.422 1317.86 162.422H1341.3C1344.54 162.422 1347.16 165.043 1347.16 168.281V191.719C1347.16 194.957 1344.54 197.578 1341.3 197.578Z" fill="#FFA599" fill-opacity="0.2"/>
<path d="M1506.14 115.156H1482.7C1479.46 115.156 1476.84 112.536 1476.84 109.297V85.8594C1476.84 82.6207 1479.46 80 1482.7 80H1506.14C1509.38 80 1512 82.6207 1512 85.8594V109.297C1512 112.536 1509.38 115.156 1506.14 115.156Z" fill="white"/>
</g>
</svg>
