<svg width="30" height="31" viewBox="0 0 30 31" fill="none" xmlns="http://www.w3.org/2000/svg">
<path d="M28.5938 17.4417V22.1261C28.5938 22.3745 28.495 22.6128 28.3192 22.7885C28.1433 22.9642 27.9049 23.0629 27.6562 23.0629H23.4375C22.5673 23.0629 21.7327 22.7175 21.1173 22.1025C20.502 21.4876 20.1562 20.6536 20.1562 19.7839C20.1562 18.9143 20.502 18.0802 21.1173 17.4653C21.7327 16.8504 22.5673 16.5049 23.4375 16.5049H27.6562C27.9049 16.5049 28.1433 16.6036 28.3192 16.7793C28.495 16.955 28.5938 17.1933 28.5938 17.4417ZM24.8438 19.7839C24.8438 19.506 24.7613 19.2343 24.6068 19.0032C24.4522 18.7721 24.2326 18.592 23.9756 18.4856C23.7187 18.3792 23.4359 18.3514 23.1632 18.4056C22.8904 18.4598 22.6398 18.5937 22.4431 18.7902C22.2465 18.9868 22.1125 19.2372 22.0583 19.5098C22.004 19.7824 22.0319 20.0649 22.1383 20.3217C22.2447 20.5785 22.425 20.798 22.6562 20.9524C22.8875 21.1068 23.1594 21.1892 23.4375 21.1892C23.8104 21.1891 24.1681 21.041 24.4318 20.7775C24.6955 20.514 24.8437 20.1566 24.8438 19.7839Z" fill="#B18310"/>
<path d="M23.2805 21.1804C22.9369 21.1419 22.6195 20.9781 22.389 20.7205C22.1586 20.4629 22.0312 20.1295 22.0312 19.7839C22.0312 19.4384 22.1586 19.1049 22.389 18.8473C22.6195 18.5897 22.9369 18.426 23.2805 18.3874C23.5457 17.8244 23.9658 17.3484 24.4916 17.0151C25.0174 16.6817 25.6273 16.5048 26.25 16.5049H23.4375C22.5673 16.5049 21.7327 16.8504 21.1173 17.4653C20.502 18.0802 20.1562 18.9143 20.1562 19.7839C20.1562 20.6536 20.502 21.4876 21.1173 22.1025C21.7327 22.7175 22.5673 23.0629 23.4375 23.0629H26.25C25.819 23.0634 25.3922 22.9788 24.994 22.814C24.5958 22.6492 24.2341 22.4075 23.9297 22.1027C23.662 21.8347 23.4425 21.5227 23.2805 21.1804Z" fill="#B18310"/>
<path d="M25.7812 7.6042V10.4148H22.9688V5.73047H23.9062C24.4035 5.73047 24.8804 5.92788 25.2321 6.27927C25.5837 6.63066 25.7812 7.10726 25.7812 7.6042Z" fill="#B18310"/>
<path d="M4.21875 5.73047V10.4148H3.75C3.1284 10.4148 2.53226 10.168 2.09272 9.72879C1.65318 9.28955 1.40625 8.69381 1.40625 8.07263C1.40625 7.45145 1.65318 6.85571 2.09272 6.41647C2.53226 5.97723 3.1284 5.73047 3.75 5.73047H4.21875Z" fill="#B18310"/>
<path d="M3.28125 29.1527C2.78397 29.1527 2.30706 28.9553 1.95542 28.6039C1.60379 28.2525 1.40625 27.7759 1.40625 27.279V8.07324C1.40625 8.69442 1.65318 9.29016 2.09272 9.7294C2.53226 10.1686 3.1284 10.4154 3.75 10.4154H25.7812C26.2785 10.4154 26.7554 10.6128 27.1071 10.9642C27.4587 11.3156 27.6562 11.7922 27.6562 12.2891V16.505H23.4375C22.5673 16.505 21.7327 16.8505 21.1173 17.4654C20.502 18.0804 20.1562 18.9144 20.1562 19.7841C20.1562 20.6537 20.502 21.4878 21.1173 22.1027C21.7327 22.7176 22.5673 23.0631 23.4375 23.0631H27.6562V27.279C27.6562 27.7759 27.4587 28.2525 27.1071 28.6039C26.7554 28.9553 26.2785 29.1527 25.7812 29.1527H3.28125Z" fill="#B18310"/>
<path d="M6.5625 29.1527H3.28125C2.78397 29.1527 2.30706 28.9553 1.95542 28.6039C1.60379 28.2525 1.40625 27.7759 1.40625 27.279V8.07324C1.40625 8.69442 1.65318 9.29016 2.09272 9.7294C2.53226 10.1686 3.1284 10.4154 3.75 10.4154H4.6875V27.279C4.6875 27.7759 4.88504 28.2525 5.23667 28.6039C5.58831 28.9553 6.06522 29.1527 6.5625 29.1527Z" fill="#9C6F02"/>
<path d="M23.4375 21.1895C24.2142 21.1895 24.8438 20.5603 24.8438 19.7842C24.8438 19.0081 24.2142 18.3789 23.4375 18.3789C22.6608 18.3789 22.0312 19.0081 22.0312 19.7842C22.0312 20.5603 22.6608 21.1895 23.4375 21.1895Z" fill="#E4EBF0"/>
<path d="M11.7188 10.4148C11.7188 9.17244 12.2126 7.98096 13.0917 7.10248C13.9708 6.22399 15.163 5.73047 16.4062 5.73047C17.6495 5.73047 18.8417 6.22399 19.7208 7.10248C20.5999 7.98096 21.0938 9.17244 21.0938 10.4148H11.7188Z" fill="#E4EBF0"/>
<path d="M18.0469 6.02616C17.1521 6.36036 16.3808 6.95973 15.8363 7.74405C15.2917 8.52836 15 9.46019 15 10.4148H11.7188C11.719 9.65843 11.9024 8.91336 12.2534 8.24324C12.6044 7.57312 13.1125 6.99787 13.7343 6.56664C14.3561 6.1354 15.0731 5.86101 15.8241 5.76689C16.5751 5.67277 17.3378 5.76173 18.0469 6.02616Z" fill="#D0D7DB"/>
<path d="M6.09375 1.9834H8.90625C8.40897 1.9834 7.93206 2.18081 7.58043 2.5322C7.22879 2.88359 7.03125 3.36019 7.03125 3.85713V10.4152H4.21875V3.85713C4.21875 3.36019 4.41629 2.88359 4.76792 2.5322C5.11956 2.18081 5.59647 1.9834 6.09375 1.9834Z" fill="#ABBD3F"/>
<path d="M8.90625 1.9834H11.7188C11.2215 1.9834 10.7446 2.18081 10.3929 2.5322C10.0413 2.88359 9.84375 3.36019 9.84375 3.85713V10.4152H7.03125V3.85713C7.03125 3.36019 7.22879 2.88359 7.58043 2.5322C7.93206 2.18081 8.40897 1.9834 8.90625 1.9834Z" fill="#ABBD3F"/>
<path d="M7.5 1.9834C7.00272 1.9834 6.52581 2.18081 6.17417 2.5322C5.82254 2.88359 5.625 3.36019 5.625 3.85713V10.4152H4.21875V3.85713C4.21875 3.36019 4.41629 2.88359 4.76792 2.5322C5.11956 2.18081 5.59647 1.9834 6.09375 1.9834H7.5Z" fill="#90AA06"/>
<path d="M10.3125 1.9834C9.81522 1.9834 9.33831 2.18081 8.98668 2.5322C8.63504 2.88359 8.4375 3.36019 8.4375 3.85713V10.4152H7.03125V3.85713C7.03125 3.36019 7.22879 2.88359 7.58043 2.5322C7.93206 2.18081 8.40897 1.9834 8.90625 1.9834H10.3125Z" fill="#90AA06"/>
<path d="M22.9688 5.73086V10.4152H21.0938C21.0938 9.17283 20.5999 7.98135 19.7208 7.10287C18.8417 6.22439 17.6495 5.73086 16.4062 5.73086C15.163 5.73086 13.9708 6.22439 13.0917 7.10287C12.2126 7.98135 11.7188 9.17283 11.7188 10.4152H9.84375V3.85713C9.84375 3.36019 10.0413 2.88359 10.3929 2.5322C10.7446 2.18081 11.2215 1.9834 11.7188 1.9834H21.0938C21.591 1.9834 22.0679 2.18081 22.4196 2.5322C22.7712 2.88359 22.9688 3.36019 22.9688 3.85713V5.73086Z" fill="#ABBD3F"/>
<path d="M14.5312 1.9834C14.034 1.9834 13.5571 2.18081 13.2054 2.5322C12.8538 2.88359 12.6562 3.36019 12.6562 3.85713V7.60401C12.0465 8.41445 11.7174 9.40125 11.7188 10.4152H9.84375V3.85713C9.84375 3.36019 10.0413 2.88359 10.3929 2.5322C10.7446 2.18081 11.2215 1.9834 11.7188 1.9834H14.5312Z" fill="#90AA06"/>
<path d="M12.1875 5.67158C12.5115 5.58724 12.8072 5.41804 13.044 5.18142C13.2807 4.94481 13.4501 4.64936 13.5345 4.32554H19.278C19.3624 4.64936 19.5318 4.94481 19.7685 5.18142C20.0053 5.41804 20.301 5.58724 20.625 5.67158V6.19927H21.5625V5.2624C21.5625 5.13817 21.5131 5.01902 21.4252 4.93117C21.3373 4.84332 21.2181 4.79397 21.0938 4.79397C20.8452 4.79368 20.6069 4.69488 20.4312 4.51924C20.2554 4.34361 20.1565 4.10549 20.1562 3.8571C20.1562 3.73287 20.1069 3.61372 20.019 3.52587C19.931 3.43802 19.8118 3.38867 19.6875 3.38867H13.125C13.0007 3.38867 12.8815 3.43802 12.7935 3.52587C12.7056 3.61372 12.6562 3.73287 12.6562 3.8571C12.656 4.10549 12.5571 4.34361 12.3813 4.51924C12.2056 4.69488 11.9673 4.79368 11.7188 4.79397C11.5944 4.79397 11.4752 4.84332 11.3873 4.93117C11.2994 5.01902 11.25 5.13817 11.25 5.2624V6.19927H12.1875V5.67158Z" fill="#E4EBF0"/>
</svg>
