<svg width="18" height="21" viewBox="0 0 18 21" fill="none" xmlns="http://www.w3.org/2000/svg">
<path d="M4.71435 20.1171C4.30168 19.8548 3.93593 19.5308 3.63117 19.1575C3.29593 18.7722 2.98533 18.3679 2.70104 17.9468C2.03391 17.0134 1.51073 15.9932 1.14756 14.9176C0.711274 13.6682 0.5 12.4706 0.5 11.2993C0.5 9.99117 0.796306 8.84921 1.37584 7.88966C1.80543 7.13966 2.43705 6.51292 3.20535 6.07426C3.94991 5.63258 4.80543 5.39086 5.68176 5.37459C5.98853 5.37459 6.31885 5.41707 6.66945 5.49828C6.92128 5.56638 7.22805 5.67382 7.60285 5.80751C8.07968 5.98306 8.34198 6.0905 8.43093 6.11674C8.71023 6.2142 8.94506 6.25668 9.12951 6.25668C9.26949 6.25668 9.46703 6.2142 9.69138 6.14923C9.81762 6.10675 10.0557 6.03178 10.3965 5.89247C10.734 5.77503 10.9996 5.67445 11.2108 5.59948C11.5346 5.50828 11.8479 5.42394 12.1272 5.38146C12.4584 5.33161 12.7944 5.3184 13.1287 5.34211C13.7079 5.37827 14.2785 5.49551 14.8221 5.69007C15.711 6.03178 16.4299 6.56528 16.9649 7.32368C16.7388 7.4568 16.5265 7.61035 16.3311 7.78221C15.9057 8.1424 15.5433 8.56526 15.2578 9.03475C14.8845 9.67636 14.6909 10.3991 14.6959 11.1331C14.7096 12.0346 14.9516 12.8286 15.4285 13.5151C15.779 14.024 16.2346 14.4591 16.7674 14.7939C17.0402 14.9695 17.275 15.09 17.5 15.1712C17.3947 15.4836 17.2822 15.786 17.1494 16.0858C16.8483 16.7583 16.4833 17.4029 16.059 18.0118C15.681 18.5359 15.3846 18.9264 15.1596 19.1862C14.809 19.5829 14.4715 19.8859 14.1307 20.0971C13.7559 20.3345 13.3131 20.4613 12.8631 20.4613C12.5583 20.4724 12.2536 20.4372 11.9604 20.3569C11.7086 20.2757 11.4594 20.1876 11.2141 20.0871C10.9591 19.9752 10.6962 19.8806 10.4272 19.8041C9.76248 19.641 9.0655 19.6399 8.40019 19.801C8.12743 19.8759 7.86514 19.9634 7.60612 20.0708C7.24179 20.217 6.99977 20.3151 6.85979 20.3569C6.58049 20.435 6.29073 20.4838 5.99769 20.5C5.5444 20.5 5.12185 20.3763 4.70323 20.1258L4.71435 20.1171ZM10.6928 4.73989C10.1002 5.02288 9.5344 5.14345 8.97253 5.10409C8.88422 4.56372 8.97253 4.01085 9.20735 3.40551C9.40726 2.89267 9.70266 2.41859 10.0793 2.00617C10.477 1.57201 10.9595 1.21615 11.5 0.958535C12.0756 0.675543 12.6244 0.522489 13.1489 0.5C13.217 1.06598 13.1489 1.6226 12.9311 2.22419C12.7296 2.756 12.4347 3.25117 12.0592 3.68851C11.676 4.12326 11.2056 4.4805 10.6758 4.73926L10.6928 4.73989Z" fill="white"/>
</svg>
