<svg width="30" height="30" viewBox="0 0 30 30" fill="none" xmlns="http://www.w3.org/2000/svg">
<path d="M28.5938 16.875V21.5625C28.5938 21.8111 28.495 22.0496 28.3192 22.2254C28.1433 22.4012 27.9049 22.5 27.6562 22.5H23.4375C22.5673 22.5 21.7327 22.1543 21.1173 21.5389C20.502 20.9236 20.1562 20.089 20.1562 19.2188C20.1562 18.3485 20.502 17.5139 21.1173 16.8986C21.7327 16.2832 22.5673 15.9375 23.4375 15.9375H27.6562C27.9049 15.9375 28.1433 16.0363 28.3192 16.2121C28.495 16.3879 28.5938 16.6264 28.5938 16.875ZM24.8438 19.2188C24.8438 18.9406 24.7613 18.6687 24.6068 18.4375C24.4522 18.2062 24.2326 18.026 23.9756 17.9195C23.7187 17.8131 23.4359 17.7853 23.1632 17.8395C22.8904 17.8938 22.6398 18.0277 22.4431 18.2244C22.2465 18.421 22.1125 18.6716 22.0583 18.9444C22.004 19.2172 22.0319 19.4999 22.1383 19.7569C22.2447 20.0139 22.425 20.2335 22.6562 20.388C22.8875 20.5425 23.1594 20.625 23.4375 20.625C23.8104 20.6249 24.1681 20.4767 24.4318 20.213C24.6955 19.9493 24.8437 19.5917 24.8438 19.2188Z" fill="#B18310"/>
<path d="M23.2805 20.6162C22.9369 20.5776 22.6195 20.4138 22.389 20.156C22.1586 19.8982 22.0312 19.5645 22.0312 19.2188C22.0312 18.873 22.1586 18.5393 22.389 18.2815C22.6195 18.0237 22.9369 17.8599 23.2805 17.8213C23.5457 17.2579 23.9658 16.7816 24.4916 16.448C25.0174 16.1145 25.6273 15.9374 26.25 15.9375H23.4375C22.5673 15.9375 21.7327 16.2832 21.1173 16.8986C20.502 17.5139 20.1562 18.3485 20.1562 19.2188C20.1562 20.089 20.502 20.9236 21.1173 21.5389C21.7327 22.1543 22.5673 22.5 23.4375 22.5H26.25C25.819 22.5005 25.3922 22.4158 24.994 22.2509C24.5958 22.086 24.2341 21.8441 23.9297 21.5391C23.662 21.2709 23.4425 20.9587 23.2805 20.6162Z" fill="#B18310"/>
<path d="M25.7812 7.03125V9.84375H22.9688V5.15625H23.9062C24.4035 5.15625 24.8804 5.35379 25.2321 5.70542C25.5837 6.05706 25.7812 6.53397 25.7812 7.03125Z" fill="#B18310"/>
<path d="M4.21875 5.15625V9.84375H3.75C3.1284 9.84375 2.53226 9.59682 2.09272 9.15728C1.65318 8.71774 1.40625 8.1216 1.40625 7.5C1.40625 6.8784 1.65318 6.28226 2.09272 5.84272C2.53226 5.40318 3.1284 5.15625 3.75 5.15625H4.21875Z" fill="#B18310"/>
<path d="M3.28125 28.5938C2.78397 28.5938 2.30706 28.3962 1.95542 28.0446C1.60379 27.6929 1.40625 27.216 1.40625 26.7188V7.5C1.40625 8.1216 1.65318 8.71774 2.09272 9.15728C2.53226 9.59682 3.1284 9.84375 3.75 9.84375H25.7812C26.2785 9.84375 26.7554 10.0413 27.1071 10.3929C27.4587 10.7446 27.6562 11.2215 27.6562 11.7188V15.9375H23.4375C22.5673 15.9375 21.7327 16.2832 21.1173 16.8986C20.502 17.5139 20.1562 18.3485 20.1562 19.2188C20.1562 20.089 20.502 20.9236 21.1173 21.5389C21.7327 22.1543 22.5673 22.5 23.4375 22.5H27.6562V26.7188C27.6562 27.216 27.4587 27.6929 27.1071 28.0446C26.7554 28.3962 26.2785 28.5938 25.7812 28.5938H3.28125Z" fill="#B18310"/>
<path d="M6.5625 28.5938H3.28125C2.78397 28.5938 2.30706 28.3962 1.95542 28.0446C1.60379 27.6929 1.40625 27.216 1.40625 26.7188V7.5C1.40625 8.1216 1.65318 8.71774 2.09272 9.15728C2.53226 9.59682 3.1284 9.84375 3.75 9.84375H4.6875V26.7188C4.6875 27.216 4.88504 27.6929 5.23667 28.0446C5.58831 28.3962 6.06522 28.5938 6.5625 28.5938Z" fill="#9C6F02"/>
<path d="M23.4375 20.625C24.2142 20.625 24.8438 19.9954 24.8438 19.2188C24.8438 18.4421 24.2142 17.8125 23.4375 17.8125C22.6608 17.8125 22.0312 18.4421 22.0312 19.2188C22.0312 19.9954 22.6608 20.625 23.4375 20.625Z" fill="#E4EBF0"/>
<path d="M11.7188 9.84375C11.7188 8.60055 12.2126 7.40826 13.0917 6.52919C13.9708 5.65011 15.163 5.15625 16.4062 5.15625C17.6495 5.15625 18.8417 5.65011 19.7208 6.52919C20.5999 7.40826 21.0938 8.60055 21.0938 9.84375H11.7188Z" fill="#E4EBF0"/>
<path d="M18.0469 5.45214C17.1521 5.78656 16.3808 6.38634 15.8363 7.17119C15.2917 7.95604 15 8.8885 15 9.84374H11.7188C11.719 9.08687 11.9024 8.34129 12.2534 7.67072C12.6044 7.00015 13.1125 6.42451 13.7343 5.99298C14.3561 5.56146 15.0731 5.28688 15.8241 5.19269C16.5751 5.09851 17.3378 5.18753 18.0469 5.45214Z" fill="#D0D7DB"/>
<path d="M6.09375 1.40625H8.90625C8.40897 1.40625 7.93206 1.60379 7.58043 1.95542C7.22879 2.30706 7.03125 2.78397 7.03125 3.28125V9.84375H4.21875V3.28125C4.21875 2.78397 4.41629 2.30706 4.76792 1.95542C5.11956 1.60379 5.59647 1.40625 6.09375 1.40625Z" fill="#ABBD3F"/>
<path d="M8.90625 1.40625H11.7188C11.2215 1.40625 10.7446 1.60379 10.3929 1.95542C10.0413 2.30706 9.84375 2.78397 9.84375 3.28125V9.84375H7.03125V3.28125C7.03125 2.78397 7.22879 2.30706 7.58043 1.95542C7.93206 1.60379 8.40897 1.40625 8.90625 1.40625Z" fill="#ABBD3F"/>
<path d="M7.5 1.40625C7.00272 1.40625 6.52581 1.60379 6.17417 1.95542C5.82254 2.30706 5.625 2.78397 5.625 3.28125V9.84375H4.21875V3.28125C4.21875 2.78397 4.41629 2.30706 4.76792 1.95542C5.11956 1.60379 5.59647 1.40625 6.09375 1.40625H7.5Z" fill="#90AA06"/>
<path d="M10.3125 1.40625C9.81522 1.40625 9.33831 1.60379 8.98668 1.95542C8.63504 2.30706 8.4375 2.78397 8.4375 3.28125V9.84375H7.03125V3.28125C7.03125 2.78397 7.22879 2.30706 7.58043 1.95542C7.93206 1.60379 8.40897 1.40625 8.90625 1.40625H10.3125Z" fill="#90AA06"/>
<path d="M22.9688 5.15625V9.84375H21.0938C21.0938 8.60055 20.5999 7.40826 19.7208 6.52919C18.8417 5.65011 17.6495 5.15625 16.4062 5.15625C15.163 5.15625 13.9708 5.65011 13.0917 6.52919C12.2126 7.40826 11.7188 8.60055 11.7188 9.84375H9.84375V3.28125C9.84375 2.78397 10.0413 2.30706 10.3929 1.95542C10.7446 1.60379 11.2215 1.40625 11.7188 1.40625H21.0938C21.591 1.40625 22.0679 1.60379 22.4196 1.95542C22.7712 2.30706 22.9688 2.78397 22.9688 3.28125V5.15625Z" fill="#ABBD3F"/>
<path d="M14.5312 1.40625C14.034 1.40625 13.5571 1.60379 13.2054 1.95542C12.8538 2.30706 12.6562 2.78397 12.6562 3.28125V7.03066C12.0465 7.84165 11.7174 8.82912 11.7188 9.84375H9.84375V3.28125C9.84375 2.78397 10.0413 2.30706 10.3929 1.95542C10.7446 1.60379 11.2215 1.40625 11.7188 1.40625H14.5312Z" fill="#90AA06"/>
<path d="M12.1875 5.09695C12.5115 5.01256 12.8072 4.84324 13.044 4.60646C13.2807 4.36969 13.4501 4.07404 13.5345 3.75H19.278C19.3624 4.07404 19.5318 4.36969 19.7685 4.60646C20.0053 4.84324 20.301 5.01256 20.625 5.09695V5.625H21.5625V4.6875C21.5625 4.56318 21.5131 4.44395 21.4252 4.35604C21.3373 4.26814 21.2181 4.21875 21.0938 4.21875C20.8452 4.21846 20.6069 4.11959 20.4312 3.94384C20.2554 3.76809 20.1565 3.5298 20.1562 3.28125C20.1562 3.15693 20.1069 3.0377 20.019 2.94979C19.931 2.86189 19.8118 2.8125 19.6875 2.8125H13.125C13.0007 2.8125 12.8815 2.86189 12.7935 2.94979C12.7056 3.0377 12.6562 3.15693 12.6562 3.28125C12.656 3.5298 12.5571 3.76809 12.3813 3.94384C12.2056 4.11959 11.9673 4.21846 11.7188 4.21875C11.5944 4.21875 11.4752 4.26814 11.3873 4.35604C11.2994 4.44395 11.25 4.56318 11.25 4.6875V5.625H12.1875V5.09695Z" fill="#E4EBF0"/>
<path d="M16.8506 18.9863V20.8936H8.0791V18.9863H16.8506ZM13.4932 15.4004V24.7168H11.4453V15.4004H13.4932Z" fill="white"/>
</svg>
