<svg width="55" height="42" viewBox="0 0 55 42" fill="none" xmlns="http://www.w3.org/2000/svg">
<rect x="15.1667" y="15.167" width="39.6667" height="26.8333" rx="4" fill="#D9D9D9" fill-opacity="0.5"/>
<rect y="10.5" width="40.8333" height="30.3333" rx="5" fill="#558B2F"/>
<path d="M28 29.1663C28 25.9447 30.6117 23.333 33.8333 23.333H42.1667C42.719 23.333 43.1667 23.7807 43.1667 24.333V33.9997C43.1667 34.552 42.719 34.9997 42.1667 34.9997H33.8333C30.6117 34.9997 28 32.388 28 29.1663Z" fill="white"/>
<rect y="10.5" width="36.1667" height="7" rx="3.5" fill="white"/>
<circle cx="35.5834" cy="9.91667" r="9.91667" fill="#558B2F"/>
<circle cx="35" cy="29.1663" r="2.33333" fill="#558B2F"/>
<path d="M37.1588 12.8071C37.0691 11.8617 36.6521 10.9267 35.9117 10.1863C35.1713 9.44587 34.2363 9.02888 33.2891 8.93912C33.2625 8.93707 33.2367 8.94536 33.2171 8.96225C33.1974 8.97915 33.1855 9.00334 33.1837 9.02975L33.1399 9.73664C33.1369 9.7931 33.1803 9.84357 33.237 9.8495C33.9745 9.91505 34.7043 10.2388 35.2817 10.8163C35.8592 11.3937 36.183 12.1235 36.2494 12.8601C36.2553 12.9168 36.3058 12.9603 36.3622 12.9572L37.0691 12.9134C37.1238 12.9103 37.1639 12.8629 37.1588 12.8071ZM39.4658 12.6625C39.2956 11.199 38.6341 9.75888 37.4866 8.61138C36.3391 7.46389 34.899 6.80245 33.4346 6.63125C33.4077 6.62828 33.3812 6.63603 33.3609 6.65283C33.3407 6.66963 33.3283 6.6941 33.3265 6.72091L33.2827 7.4278C33.2787 7.48334 33.3222 7.53381 33.3771 7.5397C34.6345 7.68765 35.8722 8.25686 36.8567 9.24135C37.8411 10.2258 38.4104 11.4635 38.5574 12.72C38.5642 12.7758 38.6138 12.8184 38.6693 12.8144L39.3762 12.7706C39.4317 12.7666 39.4727 12.7183 39.4658 12.6625ZM41.7568 12.521C41.5102 10.5316 40.6023 8.5772 39.0431 7.01804C37.4941 5.46902 35.5559 4.56331 33.5797 4.30901C33.5662 4.30719 33.5526 4.30809 33.5397 4.31163C33.5269 4.31518 33.5149 4.32131 33.5047 4.32966C33.4945 4.33801 33.4861 4.34842 33.4801 4.36026C33.4741 4.3721 33.4706 4.38515 33.4699 4.39862L33.426 5.10552C33.423 5.16018 33.4646 5.2106 33.5186 5.21737C35.2905 5.44759 37.0253 6.26015 38.4132 7.64801C39.8112 9.046 40.625 10.7961 40.8484 12.5803C40.8552 12.6362 40.9056 12.6778 40.9611 12.6739L41.668 12.63C41.7245 12.627 41.7645 12.5778 41.7568 12.521ZM33.2482 11.6526C33.0997 11.8011 33.0194 12.0056 33.0249 12.2212C33.0304 12.4367 33.1213 12.6456 33.2776 12.802C33.434 12.9583 33.6429 13.0492 33.8584 13.0547C34.074 13.0602 34.2785 12.9799 34.427 12.8314C34.5755 12.6829 34.6559 12.4783 34.6503 12.2628C34.6448 12.0472 34.5539 11.8383 34.3976 11.682C34.2413 11.5257 34.0323 11.4348 33.8168 11.4293C33.6012 11.4237 33.3967 11.5041 33.2482 11.6526Z" fill="white"/>
</svg>
