<svg width="1535" height="910" viewBox="0 0 1535 910" fill="none" xmlns="http://www.w3.org/2000/svg">
<path d="M800.057 330.129C652.38 184.333 539.901 56.5935 632.868 0H1535C1535 164.66 1531.5 800.392 1531.5 863.723C1348.24 1066.11 974.641 502.488 800.057 330.129Z" fill="#F24E1E" fill-opacity="0.1"/>
<circle cx="862.117" cy="190.5" r="17.5" fill="url(#paint0_linear_7716_20397)"/>
<circle cx="1331.62" cy="836" r="15" fill="url(#paint1_linear_7716_20397)"/>
<path d="M615 570.267L621.752 588.514L640 595.267L621.752 602.019L615 620.267L608.248 602.019L590 595.267L608.248 588.514L615 570.267Z" fill="url(#paint2_linear_7716_20397)"/>
<circle cx="380" cy="726.267" r="14" fill="url(#paint3_linear_7716_20397)"/>
<path opacity="0.2" d="M341.388 733.094C205.503 701.423 10 610 10 610L3 907C3 907 964.89 905 978.5 905C992.11 905 841.498 799.055 730.025 769.656C583.899 731.118 488.872 767.468 341.388 733.094Z" stroke="#F14E1F" stroke-width="5"/>
<g opacity="0.1">
<path d="M161.304 476.632L124.635 513.306C123.179 514.761 120.82 514.762 119.364 513.306L110.292 504.234C108.836 502.778 108.836 500.419 110.291 498.964L135.253 473.997L120.62 459.365L110.292 449.036C108.837 447.581 108.837 445.221 110.292 443.766L119.365 434.694C120.82 433.238 123.179 433.238 124.635 434.694L149.306 459.365L161.303 471.362C162.759 472.818 162.759 475.177 161.304 476.632Z" fill="black" fill-opacity="0.8"/>
<path d="M149.59 459.66L135.247 474.003L129.765 468.521L120.62 459.365L110.292 449.037C108.836 447.581 108.836 445.222 110.292 443.766L119.363 434.695C120.819 433.239 123.179 433.239 124.634 434.695L144.107 454.179L149.59 459.66Z" fill="#666666" fill-opacity="0.8"/>
<path d="M149.59 459.66L135.248 474.003L131.77 470.519L146.112 456.176L149.59 459.66Z" fill="black" fill-opacity="0.8"/>
<path d="M178.486 519.426C177.677 519.426 177.021 520.082 177.021 520.891V522.535C177.021 523.344 177.677 524 178.486 524C179.295 524 179.951 523.344 179.951 522.535V520.891C179.951 520.082 179.295 519.426 178.486 519.426Z" fill="black" fill-opacity="0.8"/>
<path d="M169.84 519.426C169.031 519.426 168.375 520.082 168.375 520.891V522.535C168.375 523.344 169.031 524 169.84 524C170.649 524 171.305 523.344 171.305 522.535V520.891C171.305 520.082 170.649 519.426 169.84 519.426Z" fill="black" fill-opacity="0.8"/>
<path d="M161.192 519.426C160.383 519.426 159.728 520.082 159.728 520.891V522.535C159.728 523.344 160.383 524 161.192 524C162.001 524 162.657 523.344 162.657 522.535V520.891C162.657 520.082 162.001 519.426 161.192 519.426Z" fill="black" fill-opacity="0.8"/>
<path d="M102.808 428.574C103.617 428.574 104.272 427.918 104.272 427.109V425.465C104.272 424.656 103.617 424 102.808 424C101.999 424 101.343 424.656 101.343 425.465V427.109C101.343 427.918 101.999 428.574 102.808 428.574Z" fill="black" fill-opacity="0.8"/>
<path d="M94.1602 428.574C94.9691 428.574 95.625 427.918 95.625 427.109V425.465C95.625 424.656 94.9691 424 94.1602 424C93.3512 424 92.6953 424.656 92.6953 425.465V427.109C92.6953 427.918 93.3512 428.574 94.1602 428.574Z" fill="black" fill-opacity="0.8"/>
<path d="M85.5137 424C84.7047 424 84.0488 424.656 84.0488 425.465V427.109C84.0488 427.918 84.7047 428.574 85.5137 428.574C86.3227 428.574 86.9785 427.918 86.9785 427.109V425.465C86.9785 424.656 86.3227 424 85.5137 424Z" fill="black" fill-opacity="0.8"/>
<path d="M138.501 433.429C137.929 432.857 137.001 432.857 136.429 433.429C135.857 434.001 135.857 434.929 136.429 435.501L173.098 472.169C173.98 473.051 173.98 474.486 173.098 475.368L136.429 512.042C135.857 512.614 135.857 513.541 136.429 514.113C136.715 514.399 137.09 514.542 137.465 514.542C137.84 514.542 138.215 514.399 138.501 514.113L175.17 477.439C177.193 475.415 177.193 472.121 175.169 470.097L138.501 433.429Z" fill="black" fill-opacity="0.8"/>
<path d="M89.7207 466.097H116.379C117.188 466.097 117.844 465.441 117.844 464.632C117.844 463.823 117.188 463.167 116.379 463.167H89.7207C88.9117 463.167 88.2559 463.823 88.2559 464.632C88.2559 465.441 88.9117 466.097 89.7207 466.097Z" fill="black" fill-opacity="0.8"/>
<path d="M89.7207 485.71H116.379C117.188 485.71 117.844 485.054 117.844 484.245C117.844 483.436 117.188 482.78 116.379 482.78H89.7207C88.9117 482.78 88.2559 483.436 88.2559 484.245C88.2559 485.054 88.9117 485.71 89.7207 485.71Z" fill="black" fill-opacity="0.8"/>
<path d="M94.7008 488.541H89.7207C88.9117 488.541 88.2559 489.197 88.2559 490.006C88.2559 490.815 88.9117 491.471 89.7207 491.471H94.701C95.51 491.471 96.1658 490.815 96.1658 490.006C96.1658 489.197 95.5098 488.541 94.7008 488.541Z" fill="black" fill-opacity="0.8"/>
<path d="M89.7207 459.459H94.701C95.51 459.459 96.1658 458.803 96.1658 457.994C96.1658 457.185 95.51 456.529 94.701 456.529H89.7207C88.9117 456.529 88.2559 457.185 88.2559 457.994C88.2559 458.803 88.9117 459.459 89.7207 459.459Z" fill="black" fill-opacity="0.8"/>
</g>
<path d="M314.353 763.597C189.553 737.714 10 663 10 663L13 900H901C913.5 900 773.662 817.504 671.283 793.478C537.078 761.983 449.804 791.69 314.353 763.597Z" fill="#FD805C" fill-opacity="0.1"/>
<defs>
<linearGradient id="paint0_linear_7716_20397" x1="847.534" y1="175.157" x2="875.175" y2="206.752" gradientUnits="userSpaceOnUse">
<stop stop-color="white"/>
<stop offset="1" stop-color="#EC8220"/>
</linearGradient>
<linearGradient id="paint1_linear_7716_20397" x1="1319.12" y1="822.849" x2="1342.81" y2="849.931" gradientUnits="userSpaceOnUse">
<stop stop-color="white"/>
<stop offset="1" stop-color="#EC8220"/>
</linearGradient>
<linearGradient id="paint2_linear_7716_20397" x1="594.167" y1="573.349" x2="633.654" y2="618.484" gradientUnits="userSpaceOnUse">
<stop stop-color="#FDFDFD"/>
<stop offset="1" stop-color="#EC8220"/>
</linearGradient>
<linearGradient id="paint3_linear_7716_20397" x1="368.333" y1="713.993" x2="390.446" y2="739.268" gradientUnits="userSpaceOnUse">
<stop stop-color="#FDFDFD"/>
<stop offset="1" stop-color="#EC8220"/>
</linearGradient>
</defs>
</svg>
